<?xml version="1.0" encoding="UTF-8" standalone="no"?>
<svg width="600" height="200" viewBox="0 0 600 200" xmlns="http://www.w3.org/2000/svg">
  <g>
    <!-- Outer rounded rectangle -->
    <path d="M 580,100 
             A 80,80 0 0 1 500,180 
             L 100,180 
             A 80,80 0 0 1 20,100 
             L 20,100 
             A 80,80 0 0 1 100,20 
             L 500,20 
             A 80,80 0 0 1 580,100 Z" 
          fill="black" />
    
    <!-- PADPAK -->
    <path d="M 80,50 L 80,100 L 100,100 L 130,100 C 150,100 160,80 160,75 C 160,70 150,50 130,50 L 80,50 Z" fill="white" />
    <path d="M 170,50 L 170,100 L 190,100 L 190,85 L 200,100 L 220,100 L 205,80 C 220,70 220,50 205,50 L 170,50 Z" fill="white" />
    <path d="M 230,50 L 230,100 L 250,100 L 250,80 L 270,80 L 270,100 L 290,100 L 290,50 L 270,50 L 270,65 L 250,65 L 250,50 L 230,50 Z" fill="white" />
    <path d="M 300,50 L 300,100 L 320,100 L 320,85 L 330,100 L 350,100 L 335,80 C 350,70 350,50 335,50 L 300,50 Z" fill="white" />
    <path d="M 360,50 L 360,100 L 380,100 L 380,85 L 400,85 L 400,100 L 420,100 L 420,50 L 400,50 L 400,65 L 380,65 L 380,50 L 360,50 Z" fill="white" />
    
    <!-- PRO -->
    <rect x="150" y="110" width="250" height="60" fill="black" stroke="white" stroke-width="5" />
    <path d="M 180,120 L 180,160 L 200,160 L 200,145 L 210,160 L 230,160 L 215,140 C 230,130 230,120 215,120 L 180,120 Z" fill="white" />
    <path d="M 240,120 L 240,160 L 260,160 L 260,140 L 280,140 L 280,120 L 260,120 L 260,130 L 240,130 Z" fill="white" />
    <path d="M 290,120 L 290,160 L 310,160 L 310,140 C 330,145 330,120 310,120 L 290,120 Z" fill="white" />
  </g>
</svg> 