<?xml version="1.0" encoding="UTF-8" standalone="no"?>
<svg width="800" height="400" viewBox="0 0 800 400" xmlns="http://www.w3.org/2000/svg">
  <g transform="translate(0,0)">
    <!-- Single outer path for the whole logo shape -->
    <path d="
      M 750,200 A 150,150 0 0 1 600,350 L 200,350 A 150,150 0 0 1 50,200 L 50,200 A 150,150 0 0 1 200,50 L 600,50 A 150,150 0 0 1 750,200 Z 
      M 730,200 A 130,130 0 0 0 600,70 L 200,70 A 130,130 0 0 0 70,200 L 70,200 A 130,130 0 0 0 200,330 L 600,330 A 130,130 0 0 0 730,200 Z
      
      M 150,100 L 150,190 L 185,190 L 220,190 C 255,190 270,160 270,145 C 270,130 255,100 220,100 L 150,100 Z 
      M 190,130 L 220,130 C 235,130 235,160 220,160 L 190,160 L 190,130 Z
      
      M 280,100 L 280,190 L 315,190 L 315,160 L 335,190 L 370,190 L 340,155 C 365,145 365,100 335,100 L 280,100 Z 
      M 315,130 L 335,130 C 345,130 345,155 335,155 L 315,155 L 315,130 Z
      
      M 380,100 L 380,190 L 415,190 L 415,155 L 455,155 L 455,190 L 490,190 L 490,100 L 455,100 L 455,130 L 415,130 L 415,100 L 380,100 Z
      
      M 500,100 L 500,190 L 535,190 L 535,160 L 555,190 L 590,190 L 560,155 C 585,145 585,100 555,100 L 500,100 Z 
      M 535,130 L 555,130 C 565,130 565,155 555,155 L 535,155 L 535,130 Z
      
      M 600,100 L 600,190 L 635,190 L 635,160 L 675,160 L 675,190 L 710,190 L 710,100 L 675,100 L 675,130 L 635,130 L 635,100 L 600,100 Z
      
      M 180,210 L 180,300 L 320,300 L 320,210 L 180,210 Z
      
      M 335,210 L 335,300 L 345,300 L 345,265 L 385,265 L 385,210 L 345,210 L 345,240 L 335,240 L 335,210 Z
      
      M 400,210 L 400,300 L 435,300 L 435,265 C 475,275 485,210 435,210 L 400,210 Z 
      M 435,240 L 450,240 C 465,240 465,275 450,275 L 435,275 L 435,240 Z
      
      M 205,240 L 205,265 L 240,265 L 240,240 L 205,240 Z
      M 260,240 L 260,265 L 295,265 L 295,240 L 260,240 Z
      " 
    fill="black" />
  </g>
</svg> 