<?xml version="1.0" encoding="UTF-8" standalone="no"?>
<!-- Created with Inkscape (http://www.inkscape.org/) -->

<svg
   width="210mm"
   height="297mm"
   viewBox="0 0 210 297"
   version="1.1"
   id="svg1"
   xml:space="preserve"
   xmlns="http://www.w3.org/2000/svg"
   xmlns:svg="http://www.w3.org/2000/svg"><defs
     id="defs1" /><path
     d="m 141.15312,105.37466 c -0.0368,-0.005 -0.0818,-0.002 -0.13843,0.009 -0.087,0.0162 -0.43643,0.0417 -0.77659,0.0567 -0.51696,0.0229 -0.627,0.0393 -0.67084,0.0994 -0.0408,0.0559 -0.14228,0.0777 -0.45524,0.0976 -0.27015,0.0171 -0.40259,0.0108 -0.40259,-0.0186 0,-0.0241 -0.0376,-0.0639 -0.0835,-0.0885 -0.0626,-0.0335 -0.13836,-0.0272 -0.30229,0.0245 -0.14116,0.0445 -0.47768,0.0814 -0.94861,0.10439 -0.40131,0.0196 -0.89836,0.0513 -1.10474,0.0704 -0.20639,0.019 -0.39658,0.0276 -0.42302,0.0191 -0.0264,-0.009 -0.0583,-0.0544 -0.0708,-0.10213 -0.0213,-0.0816 -0.0418,-0.0853 -0.34813,-0.059 -0.17897,0.0154 -0.58296,0.0721 -0.89777,0.12572 -0.31483,0.0536 -0.59629,0.11624 -0.62545,0.13934 -0.0292,0.0231 -0.15254,0.0549 -0.27415,0.0704 -0.12161,0.0155 -0.28586,0.059 -0.36491,0.0967 -0.079,0.0377 -0.14343,0.0834 -0.14343,0.10213 0,0.0187 -0.0367,0.034 -0.0812,0.034 -0.0445,0 -0.0925,-0.0188 -0.10666,-0.0418 -0.0141,-0.0229 0.0131,-0.0413 0.0603,-0.0413 0.0472,0 0.0858,-0.0175 0.0858,-0.0386 0,-0.0211 -0.0596,-0.0512 -0.13208,-0.0672 -0.0726,-0.0159 -0.4976,-0.0154 -0.94453,0.001 -0.78596,0.0295 -0.81555,0.0337 -0.90548,0.13071 -0.0753,0.0812 -0.16184,0.10936 -0.45389,0.14706 -0.34915,0.0451 -0.36408,0.0435 -0.46114,-0.0477 -0.0715,-0.0671 -0.13405,-0.0888 -0.21741,-0.0744 -0.0644,0.0111 -0.42634,0.0819 -0.80472,0.15704 -0.55205,0.10967 -0.70467,0.1548 -0.7716,0.22921 -0.0459,0.0511 -0.15819,0.10552 -0.25009,0.12073 -0.0917,0.0152 -0.26069,0.0351 -0.37535,0.0445 -0.17499,0.0143 -0.21934,0.003 -0.27687,-0.0713 -0.0637,-0.0821 -0.0847,-0.0855 -0.29185,-0.0427 -0.1228,0.0254 -0.36404,0.0868 -0.53603,0.13662 -0.17199,0.0498 -0.44404,0.11274 -0.60457,0.13979 -0.22998,0.0387 -0.30041,0.0683 -0.33133,0.13798 -0.0313,0.0705 -0.0898,0.094 -0.29003,0.11665 -0.13816,0.0156 -0.26962,0.0398 -0.29184,0.0536 -0.0222,0.0137 -0.004,0.0389 0.0404,0.0563 0.0668,0.0262 0.0685,0.032 0.01,0.0345 -0.0387,0.002 -0.082,-0.016 -0.0962,-0.039 -0.0142,-0.023 -0.0714,-0.0303 -0.12709,-0.0163 -0.0695,0.0175 -0.10903,0.006 -0.12572,-0.0377 -0.0134,-0.0348 -0.0683,-0.0744 -0.12255,-0.0881 -0.0591,-0.0148 -0.27907,0.0332 -0.54965,0.11982 -0.24802,0.0794 -0.58502,0.17443 -0.7489,0.21106 -0.17413,0.0389 -0.32841,0.10015 -0.37127,0.14751 -0.0403,0.0446 -0.10211,0.0808 -0.13707,0.0808 -0.0349,0 -0.12582,0.0188 -0.20197,0.0418 -0.0761,0.0229 -0.20377,0.0618 -0.28414,0.0862 -0.12421,0.0378 -0.16359,0.0319 -0.26324,-0.039 -0.0998,-0.0711 -0.14363,-0.0772 -0.29549,-0.0431 -0.098,0.022 -0.24945,0.076 -0.33632,0.12028 -0.0869,0.0443 -0.36204,0.13731 -0.61137,0.20651 -0.29397,0.0816 -0.47764,0.15589 -0.52287,0.21106 -0.0384,0.0468 -0.15132,0.10093 -0.25055,0.12073 -0.0992,0.0198 -0.26752,0.0605 -0.37399,0.0903 -0.17366,0.0486 -0.20111,0.0467 -0.26733,-0.0195 -0.0527,-0.0527 -0.10974,-0.0669 -0.19925,-0.049 -0.069,0.0138 -0.23966,0.0792 -0.379,0.14479 -0.13934,0.0656 -0.42223,0.17118 -0.62862,0.23511 -0.20639,0.0639 -0.40784,0.13676 -0.44798,0.16158 -0.0401,0.0248 -0.0731,0.0666 -0.0731,0.093 0,0.0264 -0.0295,0.0596 -0.0658,0.0735 -0.0363,0.0139 -0.1102,0.0254 -0.16431,0.0254 -0.0541,0 -0.1089,0.0166 -0.12164,0.0372 -0.0127,0.0206 -0.11952,0.0607 -0.23738,0.089 -0.18887,0.0453 -0.2188,0.0432 -0.25235,-0.0168 -0.0209,-0.0374 -0.0802,-0.0681 -0.13163,-0.0681 -0.0515,0 -0.2711,0.0872 -0.48792,0.19335 -0.21681,0.10615 -0.54206,0.23956 -0.72257,0.29638 -0.20973,0.066 -0.33481,0.12799 -0.34631,0.17202 -0.0111,0.0424 -0.1455,0.11429 -0.34949,0.18655 -0.18247,0.0646 -0.32127,0.13455 -0.30818,0.15568 0.0131,0.0211 0.004,0.0386 -0.0205,0.0386 -0.0243,0 -0.0819,-0.0378 -0.12798,-0.084 -0.0461,-0.0461 -0.12893,-0.0876 -0.18383,-0.0921 -0.0549,-0.005 -0.23738,0.0609 -0.40577,0.14524 -0.16838,0.0843 -0.49289,0.2241 -0.72076,0.31091 -0.38852,0.14801 -0.41645,0.16681 -0.4507,0.29911 -0.0236,0.0911 -0.051,0.12686 -0.0771,0.10076 -0.0261,-0.0261 -0.12344,-0.0126 -0.27505,0.0386 -0.12911,0.0436 -0.27866,0.0684 -0.33224,0.0549 -0.0536,-0.0135 -0.0971,-0.0429 -0.0971,-0.0653 0,-0.0225 -0.0517,-0.0409 -0.11483,-0.0409 -0.0631,8e-5 -0.18025,0.0416 -0.26052,0.0921 -0.0803,0.0505 -0.2022,0.11444 -0.27097,0.14207 -0.0688,0.0276 -0.30347,0.11686 -0.52106,0.19834 -0.21758,0.0815 -0.41908,0.18057 -0.44797,0.22014 -0.0289,0.0396 -0.0527,0.0965 -0.0527,0.12617 0,0.0297 -0.0654,0.0813 -0.14569,0.11484 -0.0996,0.0416 -0.14616,0.0883 -0.14616,0.1466 0,0.047 -0.0121,0.0853 -0.0268,0.0853 -0.0147,0 -0.0502,-0.032 -0.079,-0.0713 -0.0443,-0.0605 -0.0624,-0.0628 -0.11938,-0.0154 -0.058,0.0481 -0.0792,0.0403 -0.15341,-0.054 -0.0474,-0.0602 -0.11965,-0.10939 -0.16067,-0.10939 -0.041,0 -0.14286,0.0461 -0.22603,0.10258 -0.0832,0.0565 -0.3062,0.16692 -0.49564,0.24555 -0.18944,0.0786 -0.43817,0.17909 -0.55283,0.22331 -0.15066,0.0581 -0.21228,0.10579 -0.22194,0.17157 -0.007,0.05 -0.0516,0.11151 -0.0985,0.13661 -0.0469,0.0251 -0.1626,0.0683 -0.25736,0.0958 -0.0957,0.0277 -0.17392,0.0766 -0.17655,0.11029 -0.003,0.0334 -0.007,0.0796 -0.0105,0.10213 -0.004,0.0226 -0.0413,-0.0245 -0.084,-0.10439 -0.0459,-0.0858 -0.11539,-0.15078 -0.16975,-0.15886 -0.0506,-0.008 -0.23643,0.0546 -0.41257,0.13843 -0.17616,0.0838 -0.47277,0.20563 -0.65949,0.27051 -0.18673,0.0649 -0.37925,0.13935 -0.42755,0.16522 -0.0483,0.0259 -0.0876,0.0735 -0.0876,0.1062 0,0.034 -0.0709,0.0785 -0.16521,0.10394 -0.0908,0.0244 -0.17639,0.0626 -0.19018,0.0849 -0.0138,0.0223 -0.079,0.0409 -0.14479,0.0409 -0.0658,0 -0.14994,-0.0306 -0.187,-0.0676 -0.0454,-0.0454 -0.10631,-0.0593 -0.18745,-0.0431 -0.0662,0.0133 -0.23889,0.0805 -0.38353,0.14933 -0.14463,0.0689 -0.44199,0.18386 -0.66084,0.25553 -0.32757,0.10729 -0.41021,0.15163 -0.4675,0.25145 -0.0383,0.0667 -0.0979,0.12164 -0.13253,0.12164 -0.0347,0 -0.15243,0.0302 -0.26144,0.0672 -0.19282,0.0655 -0.19996,0.0649 -0.25689,-0.0209 -0.0322,-0.0485 -0.0888,-0.088 -0.12618,-0.0876 -0.0373,4.2e-4 -0.22719,0.0677 -0.42211,0.14932 -0.19492,0.0816 -0.45802,0.18534 -0.58414,0.23057 -0.12613,0.0452 -0.28911,0.10088 -0.36265,0.12346 -0.0735,0.0226 -0.17143,0.0938 -0.21741,0.1584 -0.055,0.0772 -0.16026,0.14167 -0.30728,0.18791 -0.1229,0.0387 -0.25472,0.0579 -0.2932,0.0431 -0.0385,-0.0148 -0.0699,-0.0435 -0.0699,-0.064 0,-0.0205 -0.0641,-0.0372 -0.142063,-0.0372 -0.07797,0 -0.298256,0.0645 -0.489736,0.14342 -0.19148,0.079 -0.48886,0.18543 -0.660849,0.23648 -0.212251,0.063 -0.349021,0.13144 -0.425285,0.21287 -0.08658,0.0924 -0.171312,0.12959 -0.369912,0.16158 -0.236734,0.0381 -0.262426,0.0348 -0.316354,-0.0422 -0.04627,-0.0661 -0.08724,-0.0787 -0.192898,-0.0581 -0.07374,0.0144 -0.251102,0.0699 -0.394422,0.12346 -0.14332,0.0535 -0.429249,0.13438 -0.634977,0.17928 -0.205729,0.0449 -0.411894,0.10173 -0.458419,0.12663 -0.04652,0.0249 -0.08488,0.0703 -0.08488,0.10076 0,0.0355 -0.0919,0.07 -0.257349,0.0967 -0.243763,0.0392 -0.262862,0.0362 -0.349033,-0.0567 -0.0501,-0.054 -0.130783,-0.0985 -0.179283,-0.0985 -0.0485,0 -0.158634,0.0269 -0.245095,0.0595 -0.08646,0.0326 -0.316601,0.0881 -0.511522,0.12346 -0.194921,0.0354 -0.448605,0.0767 -0.563264,0.0917 -0.114659,0.015 -0.266638,0.0626 -0.338141,0.10575 -0.07508,0.0453 -0.207905,0.0785 -0.314085,0.0785 -0.13599,0 -0.203389,-0.0233 -0.259618,-0.089 -0.06694,-0.0782 -0.104424,-0.0857 -0.311816,-0.0622 -0.12954,0.0147 -0.388197,0.0387 -0.574611,0.0531 -0.216042,0.0167 -0.388662,0.009 -0.476573,-0.0218 -0.09314,-0.0324 -0.151664,-0.0344 -0.180191,-0.006 -0.02323,0.0232 -0.06597,0.0422 -0.09486,0.0422 -0.02889,0 -0.170293,-0.0746 -0.314539,-0.16612 -0.251659,-0.15966 -0.276655,-0.16665 -0.610468,-0.16703 -0.305365,-3.5e-4 -0.350135,0.009 -0.368096,0.0781 -0.017,0.065 -0.0749,0.0821 -0.34041,0.10257 -0.175788,0.0136 -0.413203,0.0451 -0.527862,0.0699 -0.114659,0.0248 -0.236571,0.0456 -0.270966,0.0463 -0.01426,2.8e-4 -0.06335,-0.008 -0.09577,-0.0113 -1.19e-4,-2.8e-4 -3.34e-4,-0.0308 -4.53e-4,-0.0309 -0.02926,-0.0111 -0.07265,-0.0184 -0.118917,-0.0213 -0.04626,-0.003 -0.09568,-0.001 -0.136618,0.005 -0.08188,0.0133 -0.151142,0.0451 -0.153865,0.0708 -0.0027,0.0257 -0.0015,0.0714 0.0027,0.10213 0.0054,0.0401 -0.01955,0.0473 -0.08896,0.025 -0.05307,-0.0171 -0.142921,-0.0366 -0.200161,-0.0431 -0.05724,-0.007 -0.245038,0.0254 -0.417115,0.0708 -0.172077,0.0454 -0.481695,0.14908 -0.688081,0.23012 -0.206387,0.081 -0.450205,0.19783 -0.541933,0.25962 -0.09173,0.0618 -0.201261,0.18225 -0.243279,0.26779 -0.05981,0.12175 -0.10062,0.15568 -0.187906,0.15568 -0.06132,0 -0.174814,-0.0183 -0.251903,-0.0404 -0.09091,-0.0261 -0.215248,-0.0256 -0.354026,10e-4 -0.117682,0.0229 -0.274954,0.0722 -0.349488,0.10938 -0.07452,0.0372 -0.135256,0.0848 -0.135256,0.1053 0,0.0205 -0.07059,0.10227 -0.156588,0.18201 -0.086,0.0797 -0.362756,0.28409 -0.615007,0.45388 -0.252251,0.16979 -0.561502,0.3858 -0.687627,0.4802 -0.126125,0.0944 -0.271685,0.24102 -0.323162,0.32589 -0.05148,0.0849 -0.09384,0.1862 -0.09395,0.22512 -1.85e-4,0.0611 -0.02826,0.0555 -0.207877,-0.0409 l -0.207878,-0.11165 -0.219677,0.21241 c -0.120681,0.11683 -0.378783,0.32186 -0.573704,0.45524 -0.194921,0.13338 -0.453402,0.31509 -0.574611,0.40396 -0.12121,0.0889 -0.275005,0.23661 -0.341318,0.32815 -0.06631,0.0915 -0.177901,0.30436 -0.248272,0.4734 -0.07037,0.16903 -0.158519,0.43571 -0.196075,0.59231 -0.04425,0.18453 -0.06738,0.45359 -0.06536,0.76433 0.0018,0.28643 0.03046,0.5968 0.07126,0.77115 0.03757,0.16052 0.102945,0.37655 0.144788,0.47975 0.04184,0.10319 0.08737,0.21569 0.101214,0.25008 0.01385,0.0344 0.0645,0.12807 0.112563,0.20833 l 0.08715,0.14615 -0.110746,-0.10348 c -0.0918,-0.0855 -0.117119,-0.0926 -0.147965,-0.0427 -0.02047,0.0331 -0.05029,0.0468 -0.06627,0.0309 -0.01598,-0.016 -0.0098,-0.0529 0.01361,-0.0821 0.02336,-0.0292 0.02863,-0.0898 0.01225,-0.13481 -0.02296,-0.0631 -0.03613,-0.0412 -0.0581,0.0962 -0.01564,0.098 -0.01636,0.1975 -0.0018,0.22104 0.01454,0.0235 0.06157,0.0336 0.104846,0.0222 0.04327,-0.0113 0.07898,-0.004 0.07898,0.0172 0,0.0208 -0.06118,0.0384 -0.135709,0.039 -0.07452,6.7e-4 -0.290109,0.0122 -0.479297,0.0254 -0.237666,0.0166 -0.344041,0.01 -0.344041,-0.0222 0,-0.0253 -0.04707,-0.0463 -0.104392,-0.0463 -0.05734,0 -0.104392,0.0188 -0.104392,0.0418 0,0.0229 0.03294,0.0442 0.07308,0.0472 0.04013,0.003 -0.208393,0.0293 -0.552371,0.0585 -0.343978,0.0293 -0.820461,0.075 -1.058902,0.10122 -0.303364,0.0334 -0.446784,0.0343 -0.477481,0.004 -0.02413,-0.0241 -0.07763,-0.0436 -0.118916,-0.0436 -0.04128,0 -0.07489,0.0194 -0.07489,0.0436 0,0.0241 -0.05468,0.0629 -0.121639,0.0862 -0.06695,0.0233 -0.132755,0.0713 -0.146149,0.10621 -0.01873,0.0492 -0.07994,0.0605 -0.264159,0.0508 -0.13177,-0.007 -0.276842,0.008 -0.322707,0.0331 -0.04587,0.025 -0.224249,0.0676 -0.396238,0.0949 -0.171989,0.0272 -0.373899,0.0686 -0.448433,0.0917 -0.07452,0.0231 -0.135255,0.0614 -0.135255,0.0853 0,0.0274 0.05038,0.0329 0.135255,0.015 0.07453,-0.0157 0.229382,-0.047 0.344041,-0.0695 0.11466,-0.0225 0.288124,-0.0557 0.385344,-0.0739 0.145465,-0.0273 0.168417,-0.0234 0.130263,0.0227 -0.03402,0.041 -0.03408,0.0705 0,0.11166 0.02554,0.0307 0.0347,0.0679 0.01997,0.0827 -0.01474,0.0148 -0.05268,-0.005 -0.08397,-0.0454 -0.05088,-0.0647 -0.05377,-0.0603 -0.03041,0.0427 0.0218,0.0961 0.01449,0.111 -0.04403,0.0885 -0.06061,-0.0233 -0.06633,-0.007 -0.04175,0.12436 0.02425,0.12927 0.01719,0.1522 -0.04902,0.15659 -0.04269,0.003 -0.115261,7.6e-4 -0.161127,-0.004 -0.04586,-0.004 -0.154998,-0.057 -0.242372,-0.11665 -0.136142,-0.093 -0.204529,-0.10853 -0.479297,-0.11029 -0.176342,-8.7e-4 -0.56562,0.007 -0.86464,0.0178 -0.48339,0.0177 -0.556938,0.0115 -0.664026,-0.0586 -0.106421,-0.0697 -0.175585,-0.0765 -0.594582,-0.0559 -0.26081,0.0128 -0.497475,0.043 -0.526046,0.0667 -0.02857,0.0237 -0.157363,0.0596 -0.285945,0.0798 -0.214502,0.0336 -0.229906,0.0306 -0.189267,-0.0345 0.02433,-0.039 0.03252,-0.10147 0.01816,-0.13888 -0.01436,-0.0375 -0.06888,-0.0699 -0.121186,-0.0717 -0.05231,-0.002 -0.141925,-0.009 -0.199252,-0.0172 -0.05733,-0.008 -0.188652,0.0102 -0.291846,0.04 -0.103193,0.0298 -0.272164,0.079 -0.375358,0.10939 -0.103193,0.0304 -0.248464,0.0938 -0.322708,0.14071 -0.07424,0.0469 -0.135426,0.10843 -0.13571,0.13706 -2.9e-4,0.0286 -0.02046,0.0522 -0.04493,0.0522 -0.02551,0 -0.03288,0.0357 -0.0177,0.0835 0.01455,0.0459 0.01045,0.0835 -0.0091,0.0835 -0.01953,0 -0.07133,-0.0611 -0.114831,-0.13572 -0.0435,-0.0746 -0.133958,-0.20434 -0.201069,-0.28866 -0.09236,-0.116 -0.172133,-0.16538 -0.328609,-0.20288 -0.15259,-0.0366 -0.651084,-0.0423 -1.903117,-0.0218 -0.932953,0.0154 -1.865119,0.0348 -2.071506,0.0436 -0.206386,0.009 -0.741086,0.0275 -1.188256,0.0417 -0.447172,0.0141 -1.188492,0.043 -1.647129,0.064 -0.458637,0.0211 -1.180761,0.0679 -1.604918,0.10394 -0.424157,0.036 -0.818119,0.0762 -0.875534,0.0894 -0.05742,0.0132 -0.311013,0.0794 -0.563264,0.14705 -0.252251,0.0677 -0.683865,0.18962 -0.959047,0.27052 -0.275183,0.0809 -0.60326,0.18104 -0.729386,0.22285 -0.126125,0.0418 -0.454656,0.14507 -0.729838,0.22921 -0.275182,0.0841 -0.678559,0.20823 -0.896411,0.27551 -0.217853,0.0673 -0.433432,0.13838 -0.479297,0.1584 -0.04586,0.02 -0.308507,0.10588 -0.583689,0.19063 -0.275183,0.0848 -0.885182,0.27605 -1.355285,0.42529 -0.470103,0.14925 -0.892303,0.28751 -0.938168,0.30728 -0.04587,0.0198 -0.24262,0.0849 -0.43754,0.14478 -0.194921,0.0599 -0.879766,0.27789 -1.521859,0.48429 -0.642091,0.20639 -1.242678,0.39997 -1.334405,0.43027 -0.09173,0.0303 -0.51393,0.16871 -0.93817,0.30774 -0.424238,0.13903 -0.940113,0.31037 -1.1465,0.38081 -0.206387,0.0704 -0.412552,0.14453 -0.458418,0.16429 -0.04586,0.0198 -0.233659,0.0923 -0.417115,0.16159 -0.183454,0.0693 -0.549182,0.20412 -0.812898,0.2991 -0.263716,0.095 -0.751806,0.28636 -1.084318,0.42574 -0.332512,0.13938 -0.721192,0.3071 -0.863733,0.37218 -0.20763,0.0948 -0.275907,0.15101 -0.343133,0.28278 -0.06364,0.12474 -0.09012,0.2835 -0.109839,0.65767 -0.01629,0.30921 -0.04743,0.52761 -0.08397,0.5855 -0.03206,0.0508 -0.05855,0.10887 -0.05855,0.1289 0,0.02 0.0478,0.0582 0.106208,0.0848 0.05841,0.0266 0.222673,0.0492 0.364918,0.0499 l 0.258712,8.8e-4 -0.248272,0.123 c -0.136546,0.0678 -0.274208,0.14939 -0.305915,0.18109 -0.04125,0.0413 -0.06093,0.20194 -0.06944,0.56463 -0.0097,0.41545 0.0012,0.50189 0.05855,0.58414 v 8.8e-4 l 4.54e-4,4.6e-4 c 0.004,0.005 0.0037,0.0161 0.0082,0.0218 0.04358,0.0554 0.22059,0.16873 0.393513,0.25191 0.172921,0.0832 0.430604,0.19505 0.572342,0.24827 0.141737,0.0532 0.511033,0.18207 0.820614,0.2864 0.30958,0.10433 0.909713,0.29231 1.333953,0.41802 0.424239,0.12572 0.996587,0.28783 1.27177,0.36038 0.275181,0.0726 0.781643,0.20648 1.125621,0.29729 0.343978,0.0908 0.785005,0.20015 0.979926,0.24328 0.194921,0.043 0.384027,0.0902 0.420293,0.10439 0.03627,0.0141 0.374207,0.10055 0.750716,0.19245 0.376508,0.0919 0.759297,0.18595 0.851024,0.20878 0.09173,0.0228 0.232464,0.0582 0.312724,0.0785 0.08026,0.0204 0.296294,0.074 0.479749,0.11892 0.183455,0.045 0.633441,0.15854 1.000351,0.25236 0.36691,0.0938 1.089405,0.27615 1.605372,0.40486 0.515966,0.12871 1.116554,0.27682 1.334406,0.32952 0.217853,0.0527 0.799161,0.19423 1.292195,0.31454 0.493036,0.1203 1.046559,0.25114 1.230014,0.29093 0.183454,0.0398 0.418314,0.093 0.521507,0.11801 0.103193,0.0251 0.337599,0.074 0.521053,0.10893 0.183456,0.0348 0.539771,0.0817 0.79202,0.10439 0.252251,0.0228 1.021808,0.0615 1.709764,0.0858 0.687956,0.0244 2.094844,0.0436 3.126777,0.0427 1.031934,-8.8e-4 2.195456,-0.0118 2.585297,-0.0241 0.389842,-0.0123 0.832842,-0.0403 0.984465,-0.0622 0.151622,-0.0219 0.32955,-0.0681 0.395784,-0.10258 0.06623,-0.0345 0.143132,-0.063 0.170658,-0.0631 0.02753,-1.5e-4 0.1198,-0.0835 0.205154,-0.18564 0.08535,-0.10209 0.172378,-0.17503 0.193352,-0.16203 0.02097,0.013 -0.02155,0.085 -0.09441,0.16022 l -0.132533,0.13661 0.129356,-0.0104 c 0.07107,-0.005 0.169151,-0.0455 0.217863,-0.089 0.08746,-0.0782 0.08802,-0.0779 0.06082,0.01 -0.02329,0.0749 -0.01053,0.0885 0.08261,0.0885 0.06058,0 0.12663,0.0256 0.146603,0.0572 0.01997,0.0315 0.03642,0.0713 0.03677,0.0885 3.51e-4,0.0172 -0.02922,0.0314 -0.06581,0.0314 -0.03659,0 -0.120624,-0.0321 -0.186998,-0.0712 -0.07857,-0.0465 -0.135056,-0.0569 -0.161581,-0.0304 -0.02239,0.0224 -0.02998,0.0821 -0.01679,0.13253 0.01945,0.0744 0.05282,0.0907 0.176106,0.0871 0.08353,-0.003 0.175124,-0.0228 0.203792,-0.0454 0.03494,-0.0275 0.07236,-0.0241 0.113924,0.0105 0.0341,0.0281 0.09058,0.0406 0.12527,0.0272 0.03468,-0.0134 0.06309,-0.005 0.06309,0.0177 0,0.0229 -0.02824,0.0522 -0.06263,0.0653 -0.0344,0.0132 -0.06263,0.0408 -0.06263,0.0613 0,0.0205 0.02544,0.0372 0.05628,0.0372 0.03085,0 0.09012,-0.0372 0.131625,-0.0831 0.04279,-0.0472 0.05454,-0.0835 0.02724,-0.0835 -0.02649,0 -0.04811,-0.026 -0.04811,-0.0576 0,-0.0316 0.02824,-0.0804 0.06263,-0.10894 0.04661,-0.0386 0.06218,-0.0394 0.06218,-0.003 0,0.0273 0.02202,0.0355 0.04856,0.0191 0.03309,-0.0205 0.04061,-8.7e-4 0.02451,0.0603 -0.01293,0.0494 -0.0062,0.0899 0.01453,0.0899 0.02079,0 0.03767,-0.0353 0.03767,-0.0785 0,-0.0464 0.03859,-0.0884 0.09395,-0.10303 0.05159,-0.0135 0.09984,-0.007 0.107571,0.0159 0.0077,0.0227 0.03242,0.0298 0.05492,0.0159 0.0225,-0.0139 0.03659,-1.4e-4 0.03132,0.0308 -0.0053,0.031 0.0053,0.10835 0.02315,0.17203 0.01784,0.0637 0.06665,0.13418 0.108477,0.15658 0.05095,0.0273 0.08514,0.0261 0.103485,-0.004 0.0177,-0.0286 0.0443,-0.0208 0.0758,0.0222 0.0439,0.0597 0.06613,0.0603 0.224217,0.004 0.107752,-0.038 0.185385,-0.0465 0.200615,-0.0218 0.01365,0.022 0.043,0.0287 0.06535,0.0149 0.02235,-0.0138 0.06766,-0.003 0.100761,0.0249 0.0331,0.0278 0.09302,0.0373 0.13344,0.0218 0.06855,-0.0264 0.06832,-0.0315 -0.0073,-0.074 -0.0446,-0.025 -0.121811,-0.0898 -0.171567,-0.14343 -0.04976,-0.0537 -0.117965,-0.0976 -0.151596,-0.0976 -0.03362,0 -0.08643,0.0471 -0.1171,0.10439 -0.03068,0.0574 -0.07127,0.1044 -0.09032,0.1044 -0.01906,0 -0.03449,-0.0168 -0.03449,-0.0372 0,-0.0205 0.02638,-0.0478 0.05901,-0.0603 0.03489,-0.0134 0.05062,-0.0561 0.03813,-0.10393 -0.01168,-0.0447 0.0022,-0.0957 0.03086,-0.11348 0.0287,-0.0177 0.105637,-0.036 0.170658,-0.0413 0.09004,-0.007 0.118009,0.009 0.118009,0.0667 0,0.0419 0.02353,0.0906 0.0522,0.10848 0.02867,0.0179 0.07102,0.0369 0.09395,0.0413 0.02293,0.004 0.103267,0.0331 0.178828,0.0631 0.117037,0.0466 0.143163,0.0457 0.175652,-0.007 0.02339,-0.0379 0.0861,-0.0569 0.162035,-0.049 0.09082,0.009 0.135901,-0.01 0.169751,-0.0731 0.02889,-0.0539 0.08844,-0.0868 0.159312,-0.0876 0.09946,-8.7e-4 0.104011,-0.006 0.03767,-0.045 -0.04153,-0.0242 -0.101505,-0.034 -0.13344,-0.0218 -0.04532,0.0174 -0.04227,-0.009 0.01317,-0.12027 l 0.0708,-0.14297 0.304553,-8.8e-4 c 0.192788,-6.2e-4 0.295438,0.0145 0.279136,0.0408 -0.01418,0.0229 -0.136998,0.0413 -0.273235,0.0413 -0.136238,0 -0.247818,0.0186 -0.247818,0.0413 0,0.0234 0.09837,0.0366 0.226031,0.0314 0.185265,-0.008 0.243521,0.007 0.325432,0.084 0.05494,0.0516 0.123513,0.094 0.152049,0.094 0.02858,0 0.04005,-0.0189 0.02588,-0.0418 -0.01417,-0.0229 -0.0077,-0.0417 0.01407,-0.0417 0.02183,0 0.05202,0.0321 0.06717,0.0717 0.02223,0.058 0.03468,0.061 0.06309,0.0149 0.0228,-0.0369 0.135418,-0.062 0.32044,-0.0699 0.157127,-0.007 0.355459,-0.0415 0.440716,-0.0772 0.08526,-0.0356 0.165268,-0.0649 0.177467,-0.0649 0.0122,0 0.01751,0.0222 0.0118,0.049 -0.0057,0.0268 0.03617,0.0732 0.0935,0.10303 0.07787,0.0403 0.108731,0.0415 0.121186,0.005 0.0092,-0.0269 -0.0049,-0.0561 -0.03132,-0.0649 -0.02637,-0.009 -0.04811,-0.0445 -0.04811,-0.0798 0,-0.0489 0.0136,-0.0531 0.05628,-0.0177 0.03078,0.0253 0.06636,0.0353 0.07943,0.0222 0.01307,-0.0131 0.06384,0.0304 0.112562,0.0962 0.0741,0.10031 0.112039,0.11717 0.23284,0.10303 0.07943,-0.009 0.144334,-0.0291 0.144334,-0.044 0,-0.0149 -0.0475,-0.0783 -0.105755,-0.14116 -0.05826,-0.0629 -0.09047,-0.11437 -0.07171,-0.11437 0.01876,0 0.07578,0.0288 0.126633,0.0645 0.05085,0.0357 0.132817,0.15919 0.182459,0.27459 0.05172,0.12023 0.127526,0.22375 0.177467,0.24237 0.04793,0.0179 0.196902,0.0461 0.331332,0.0626 0.152297,0.0187 0.23545,0.0152 0.220132,-0.01 -0.01353,-0.022 -0.118187,-0.0525 -0.232387,-0.0676 -0.131928,-0.0175 -0.253906,-0.0666 -0.334509,-0.13435 -0.0758,-0.0638 -0.126632,-0.14641 -0.126632,-0.20561 0,-0.0558 -0.03596,-0.1182 -0.08216,-0.14297 0.67616,0.38653 2.366981,0.59368 2.366981,0.59368 -0.465492,-0.0124 -0.910007,-0.0194 -0.987641,-0.0159 -0.07763,0.004 -0.165792,-0.0148 -0.196076,-0.04 -0.03029,-0.0251 -0.07803,-0.0316 -0.105754,-0.0145 -0.03079,0.0191 -0.08819,-0.0162 -0.14751,-0.0903 l -0.09713,-0.12118 v 0.10757 c -1.36e-4,0.0708 0.03363,0.12572 0.09895,0.16067 0.0546,0.0295 0.138855,0.0404 0.187452,0.0249 0.0486,-0.0154 0.08851,-0.009 0.08851,0.0127 0,0.0222 0.07059,0.0401 0.156589,0.04 0.08599,-1.8e-4 0.409366,0.009 0.718945,0.0195 0.920638,0.0327 2.293454,0.0137 2.293454,0.0726 0,0.0229 -0.03765,0.0413 -0.08351,0.0413 -0.04792,0 -0.08351,0.0278 -0.08351,0.0653 0,0.047 0.02431,0.0578 0.08624,0.0381 0.07283,-0.0232 0.07999,-0.0154 0.04766,0.0495 -0.02101,0.0421 -0.0679,0.14212 -0.103938,0.2224 -0.03604,0.0803 -0.08775,0.21887 -0.115285,0.30818 -0.02754,0.0893 -0.07281,0.32611 -0.100308,0.52605 -0.03229,0.2348 -0.03778,0.47549 -0.01589,0.67991 0.01865,0.17406 0.0619,0.39713 0.09622,0.49564 0.03432,0.0985 0.06275,0.20901 0.06309,0.24555 3.34e-4,0.0365 0.07454,0.21487 0.164759,0.39623 0.101711,0.20446 0.239961,0.40285 0.364465,0.52242 0.110436,0.10605 0.34762,0.29384 0.526954,0.41711 0.179335,0.12327 0.409897,0.26607 0.511976,0.31772 0.102079,0.0516 0.205273,0.13751 0.229663,0.19108 0.02439,0.0535 0.09789,0.1292 0.163397,0.16794 0.112021,0.066 0.129363,0.0657 0.287306,-0.003 0.09236,-0.0401 0.173705,-0.10158 0.180644,-0.13662 0.0069,-0.035 0.05674,0.0542 0.110747,0.19789 0.06913,0.18401 0.142867,0.29628 0.249179,0.3799 0.08304,0.0653 0.263639,0.18167 0.40123,0.25826 0.137591,0.0766 0.37104,0.22296 0.518784,0.32543 0.147744,0.10248 0.297889,0.21153 0.333601,0.24192 0.03571,0.0305 0.215052,0.16707 0.398506,0.3041 0.183456,0.13701 0.398109,0.26186 0.477482,0.27731 0.07937,0.0155 0.225391,0.006 0.32407,-0.0199 0.09868,-0.0264 0.217147,-0.0477 0.26325,-0.0477 0.04998,0 0.09909,0.0401 0.12164,0.0994 0.02081,0.0547 0.109434,0.17406 0.196984,0.26507 0.113073,0.11753 0.257031,0.20275 0.496998,0.29457 0.185802,0.0711 0.486095,0.16949 0.667202,0.21877 0.181107,0.0493 0.437825,0.0923 0.570527,0.0958 5.42e-4,1e-5 8.27e-4,-0.0318 0.0014,-0.0327 0.05516,3e-4 0.09306,-0.0134 0.148872,-0.0422 0.06888,-0.0356 0.136644,-0.0645 0.150688,-0.0645 0.01405,0 0.0202,0.0325 0.01361,0.0726 -0.0066,0.0401 0.0029,0.0966 0.02088,0.12527 0.01798,0.0286 0.09112,0.0522 0.162489,0.0522 0.07137,0 0.162578,0.0298 0.202883,0.0662 0.04049,0.0367 0.217356,0.0867 0.39533,0.11166 0.238096,0.0331 0.382202,0.0322 0.552825,-0.004 0.21455,-0.045 0.2366,-0.0422 0.312723,0.0395 0.06834,0.0735 0.114269,0.0842 0.277321,0.0649 0.107439,-0.0127 0.334269,-0.092 0.50426,-0.17565 0.261648,-0.12881 0.362742,-0.15504 0.659486,-0.17111 0.192795,-0.0105 0.366095,-0.0284 0.384891,-0.04 0.0188,-0.0116 0.226918,-4.2e-4 0.462502,0.0249 0.327599,0.0354 0.472417,0.0342 0.615916,-0.004 0.103193,-0.0279 0.272164,-0.0502 0.375358,-0.0499 0.103193,1.7e-4 0.262753,0.0211 0.35448,0.0463 0.09173,0.0252 0.429216,0.0873 0.750262,0.13844 0.321046,0.0511 0.684277,0.1008 0.806998,0.11028 0.122722,0.01 0.242262,-0.002 0.26552,-0.0249 0.0247,-0.0242 0.139583,-0.0323 0.276413,-0.0182 0.128873,0.0134 0.256672,0.0465 0.284128,0.0739 0.02746,0.0275 0.131117,0.0629 0.230117,0.0785 0.099,0.0156 0.339258,0.0667 0.533762,0.11347 0.194503,0.0468 0.419494,0.11458 0.500176,0.15024 0.0983,0.0435 0.270504,0.0639 0.521961,0.0631 0.284711,-8.8e-4 0.41502,0.0182 0.539662,0.0781 0.09035,0.0434 0.304967,0.11827 0.477028,0.16657 0.17206,0.0483 0.482662,0.15338 0.690355,0.23375 0.28946,0.11198 0.44579,0.14724 0.66992,0.15251 0.22971,0.005 0.37283,0.0386 0.66721,0.15749 0.20609,0.0832 0.57166,0.2309 0.81244,0.32771 0.24079,0.0968 0.52809,0.20109 0.63816,0.23192 0.12131,0.034 0.23623,0.0425 0.29184,0.0218 0.0605,-0.0226 0.17675,-0.006 0.34177,0.0477 0.13759,0.045 0.26099,0.099 0.27414,0.12027 0.0132,0.0213 0.2758,0.13272 0.58369,0.24782 0.3079,0.1151 0.62551,0.24066 0.70579,0.27913 0.0813,0.0389 0.25633,0.0718 0.39578,0.0745 0.13759,0.003 0.3348,0.0295 0.43799,0.0603 0.10319,0.0308 0.21566,0.0894 0.25009,0.13028 0.0344,0.0408 0.26881,0.14839 0.52106,0.23919 0.25225,0.0908 0.57885,0.21548 0.72575,0.27731 0.20326,0.0856 0.30572,0.10629 0.42846,0.0867 0.10913,-0.0175 0.24393,8.8e-4 0.41621,0.0576 0.14004,0.0459 0.27528,0.11001 0.30092,0.14207 0.0256,0.032 0.14984,0.0914 0.27596,0.13208 0.12613,0.0406 0.43583,0.16814 0.68808,0.28322 0.33384,0.15226 0.51546,0.21077 0.66721,0.21604 0.11466,0.004 0.302,0.0386 0.41666,0.0777 0.11466,0.0391 0.30245,0.11593 0.41711,0.17065 0.11466,0.0547 0.36379,0.15733 0.55374,0.2283 0.18995,0.071 0.47055,0.19543 0.62317,0.27641 0.22635,0.11968 0.30538,0.14264 0.42983,0.12165 0.10545,-0.0178 0.22844,0.002 0.3985,0.0635 0.13535,0.0494 0.28367,0.10095 0.32952,0.11438 0.0459,0.0134 0.10235,0.0478 0.12527,0.0767 0.0229,0.0289 0.15424,0.0841 0.29184,0.12255 0.13759,0.0385 0.31596,0.0973 0.39624,0.13071 0.0803,0.0335 0.26772,0.1197 0.41666,0.19154 0.16274,0.0784 0.32508,0.12691 0.40668,0.12164 0.0746,-0.005 0.16819,-0.0101 0.20833,-0.0127 0.0401,-0.003 0.21381,0.0371 0.3858,0.0881 0.17198,0.0508 0.34178,0.11815 0.37717,0.14933 0.0354,0.0312 0.28645,0.13321 0.55827,0.22693 0.27183,0.0937 0.56932,0.20909 0.6613,0.256 0.092,0.0469 0.22892,0.0848 0.3041,0.0848 0.0752,0 0.1545,-0.0107 0.17611,-0.0241 0.0216,-0.0134 0.14003,0.004 0.26325,0.0395 0.12322,0.035 0.26142,0.081 0.30727,0.10212 0.0459,0.0212 0.23935,0.076 0.42983,0.12209 0.19048,0.0461 0.40604,0.11132 0.47929,0.14435 0.0733,0.033 0.17216,0.0709 0.21968,0.0844 0.0475,0.0135 0.12892,0.0644 0.18065,0.11257 0.0746,0.0695 0.17778,0.0948 0.49745,0.12345 0.22175,0.0198 0.4779,0.0521 0.56962,0.0717 0.0917,0.0196 0.30776,0.0776 0.47975,0.1289 0.17199,0.0513 0.45929,0.13903 0.63861,0.19472 0.17931,0.0557 0.34688,0.10121 0.37217,0.10121 0.0253,0 0.0784,0.0296 0.11847,0.0658 0.0423,0.0384 0.17434,0.0731 0.3159,0.0831 0.13378,0.009 0.35578,0.0279 0.49337,0.0413 0.13759,0.0134 0.35362,0.051 0.47975,0.0835 0.12612,0.0325 0.4076,0.10783 0.62544,0.16703 0.21786,0.0592 0.47592,0.12415 0.57371,0.14479 0.0978,0.0206 0.21634,0.0584 0.26324,0.0835 0.0469,0.0251 0.28586,0.052 0.53105,0.0599 0.24518,0.008 0.5582,0.0358 0.6958,0.0622 0.13758,0.0264 0.30658,0.0645 0.37535,0.0844 0.0688,0.0199 0.31262,0.0677 0.54194,0.1062 0.22931,0.0385 0.46208,0.0981 0.51742,0.13299 0.0782,0.0492 0.18373,0.0588 0.47294,0.0422 0.20473,-0.0117 0.51447,-0.005 0.68854,0.0145 0.17406,0.0195 0.37399,0.0621 0.44434,0.0949 0.0703,0.0328 0.40946,0.1028 0.75344,0.15568 0.34398,0.0529 0.72899,0.0924 0.85512,0.0871 0.12611,-0.005 0.385,-0.008 0.57551,-0.006 0.19051,0.002 0.42277,0.0297 0.51606,0.0626 0.0933,0.0328 0.24104,0.0599 0.32861,0.0599 0.0876,0 0.41825,0.0393 0.73483,0.0871 0.31657,0.0479 0.63014,0.0863 0.69671,0.0858 0.0666,-5.3e-4 0.13435,-0.0226 0.15068,-0.049 0.0206,-0.0336 0.15345,-0.0416 0.43436,-0.0272 0.27081,0.0139 0.42778,0.0407 0.47477,0.0817 0.0431,0.0375 0.2069,0.0715 0.42437,0.0881 0.19492,0.0148 0.58326,0.0371 0.86283,0.0495 0.46937,0.0208 0.51438,0.0161 0.59141,-0.0609 8.7e-4,-8.8e-4 0.003,-7.7e-4 0.004,-0.002 l 2.05562,0.0345 c 0.0573,0.0121 0.12282,0.0197 0.17656,0.0381 l 4.6e-4,0.002 c 0.13759,0.0474 0.31909,0.0868 0.40349,0.0885 0.12154,0.002 0.17047,-0.0213 0.23511,-0.11211 8.8e-4,-0.002 0.002,-0.002 0.004,-0.003 l 0.9527,0.0163 0.0559,0.064 0.67582,-0.0245 c 0.37172,-0.0135 0.75048,-0.0345 0.84195,-0.0463 0.0915,-0.0118 0.20899,-0.0615 0.26098,-0.11029 0.009,-0.008 0.0227,-0.01 0.0318,-0.0168 l 0.89732,-0.11665 c 0.0149,-0.002 0.0416,-0.003 0.0545,-0.004 0.0182,-0.002 0.0281,-0.007 0.0467,-0.01 l 2.13551,-0.27777 c -0.0111,0.007 -0.0196,0.0145 -0.04,0.0195 -0.084,0.0206 -0.0852,0.0256 -0.0159,0.0522 0.042,0.0162 0.15451,0.0293 0.25009,0.0291 0.0956,-1.8e-4 0.29575,-0.0199 0.4448,-0.0436 0.14906,-0.0236 0.3039,-0.0528 0.34404,-0.0649 0.0401,-0.0121 0.0731,-0.0555 0.0731,-0.0962 0,-0.01 -0.0164,-0.024 -0.0205,-0.0363 l 0.39941,-0.0595 c 0.0322,0.01 0.0629,0.0288 0.0912,0.0354 0.13788,0.0322 0.2582,0.0514 0.26733,0.0423 0.009,-0.009 -0.0581,-0.0462 -0.14886,-0.0826 -0.01,-0.004 -0.0185,-0.0168 -0.0286,-0.0218 l 4.57919,-0.68036 c -0.015,0.0105 -0.0248,0.009 -0.039,0.0213 -0.0648,0.054 -0.17612,0.0999 -0.24736,0.10167 -0.0712,0.002 -0.24069,0.0393 -0.37672,0.084 -0.13603,0.0447 -0.32216,0.0939 -0.41348,0.10939 -0.0913,0.0155 -0.19395,0.0458 -0.22785,0.0676 -0.0416,0.0264 0.0196,0.0349 0.18836,0.0241 0.13759,-0.009 0.42519,-0.0746 0.63861,-0.14615 0.21342,-0.0716 0.41505,-0.1298 0.44843,-0.1298 0.0334,0 0.0937,-0.0156 0.13344,-0.0345 0.0328,-0.0155 0.1869,-0.091 0.33406,-0.16295 l 0.66856,-0.0994 7.44726,-1.40477 c 0.0777,-0.007 0.20726,-0.0112 0.21559,-0.0195 0.0168,-0.0168 0.10949,-0.0304 0.20606,-0.0304 0.0966,0 0.24419,0.0284 0.32816,0.0635 0.084,0.0351 0.14169,0.0822 0.12799,0.10439 -0.0137,0.0222 -1.7e-4,0.0404 0.0299,0.0404 0.0302,0 0.11522,-0.0173 0.18926,-0.0386 0.0826,-0.0237 0.14374,-0.0237 0.15841,0 0.0132,0.0213 -0.006,0.0386 -0.0436,0.0386 -0.0371,0 -0.0568,0.0169 -0.044,0.0377 0.0128,0.0204 0.0608,0.0279 0.10666,0.0159 0.0459,-0.0119 0.0835,-0.0469 0.0835,-0.0781 0,-0.0424 0.0249,-0.0472 0.0989,-0.0191 0.0598,0.023 0.11408,0.0226 0.13753,-8.8e-4 0.0213,-0.0213 0.11535,-0.0443 0.20879,-0.0504 0.0934,-0.006 0.19937,-0.0358 0.23556,-0.0658 0.0362,-0.03 0.0842,-0.0433 0.10666,-0.0295 0.0224,0.0138 0.0525,0.005 0.0672,-0.0182 0.0147,-0.0234 0.044,-0.0322 0.0654,-0.0191 0.0213,0.0132 0.039,-0.004 0.039,-0.0381 0,-0.0342 0.0417,-0.0683 0.0926,-0.0754 0.0508,-0.007 0.13597,-0.0784 0.18972,-0.1584 0.0813,-0.12084 0.15482,-0.16434 0.438,-0.25735 0.1492,-0.049 0.25071,-0.0987 0.32497,-0.14614 l 0.0199,-0.004 -8.8e-4,-0.009 c 0.0234,-0.0166 0.0589,-0.0343 0.0704,-0.0495 0.0406,-0.0536 0.11753,-0.14418 0.17111,-0.20153 0.0536,-0.0574 0.14823,-0.16707 0.21015,-0.24419 0.0696,-0.0866 0.10371,-0.16921 0.089,-0.21559 -0.0132,-0.0414 -8.8e-4,-0.0892 0.0272,-0.10666 0.0288,-0.0178 0.059,-0.009 0.0685,0.0191 0.013,0.0392 0.0307,0.0393 0.0754,0.003 0.0321,-0.0267 0.0586,-0.0707 0.0586,-0.098 0,-0.0273 0.056,-0.10343 0.12482,-0.16931 0.0688,-0.0659 0.12527,-0.15247 0.12527,-0.19243 0,-0.04 0.068,-0.14428 0.1507,-0.23194 0.0827,-0.0876 0.2038,-0.22671 0.26915,-0.30909 0.0653,-0.0824 0.25159,-0.35144 0.41393,-0.59776 0.16234,-0.24632 0.31395,-0.46976 0.33678,-0.49655 0.0228,-0.0268 0.10196,-0.14102 0.17565,-0.25372 0.0737,-0.1127 0.20365,-0.30945 0.28867,-0.43754 0.085,-0.12808 0.24729,-0.38298 0.36083,-0.56644 0.11355,-0.18346 0.2476,-0.4555 0.29775,-0.60456 0.0717,-0.21306 0.0907,-0.3628 0.0881,-0.70079 -0.002,-0.23647 -0.0121,-0.44504 -0.0232,-0.46296 -0.0111,-0.0179 -0.0596,-0.19972 -0.10757,-0.40395 -0.048,-0.20422 -0.11316,-0.49318 -0.14434,-0.64224 -0.0312,-0.14905 -0.0852,-0.40229 -0.12027,-0.56281 -0.035,-0.16053 -0.11843,-0.50007 -0.18519,-0.75435 -0.0667,-0.25427 -0.18281,-0.58751 -0.25825,-0.74073 -0.0754,-0.15322 -0.25365,-0.41486 -0.39578,-0.58142 -0.14212,-0.16656 -0.31278,-0.33841 -0.37945,-0.38172 -0.0667,-0.0433 -0.16822,-0.12234 -0.22557,-0.17565 -0.0574,-0.0533 -0.16328,-0.15308 -0.23557,-0.22194 -0.20233,-0.19288 -0.42915,-0.36476 -0.77387,-0.55238 0,0 -0.68378,-0.52135 -0.75615,-0.51696 0.013,0.2792 -0.2513,0.25475 -0.54602,0.13934 0.002,-0.0195 -0.0457,-0.0434 -0.16249,-0.0695 -0.065,-0.0317 -0.1291,-0.0647 -0.19064,-0.10031 -0.0371,-2e-4 -0.0287,2.1e-4 -0.0645,0 -0.009,0.0114 -0.0218,0.0165 -0.0218,0.0367 0.01,0.016 0.0265,0.0243 0.039,0.0377 -0.13794,-0.0195 -0.23893,-0.0412 -0.49291,-0.0536 -0.0195,-8.8e-4 -0.0216,-0.014 -0.0327,-0.0218 -0.72615,-0.006 -1.61607,-0.0153 -1.78284,-0.004 -0.0264,-0.0516 -0.0586,-0.0666 -0.11891,-0.0526 -0.051,0.0118 -0.22066,0.0584 -0.37719,0.10394 -0.15651,0.0455 -0.32073,0.0733 -0.36491,0.0617 -0.0538,-0.014 -0.0804,4.6e-4 -0.0804,0.044 0,0.0215 0.007,0.0444 0.0177,0.0626 -0.0283,0.006 -0.0229,0.008 -0.054,0.014 -0.20816,0.0439 -1.88534,0.57471 -3.01149,0.91365 -0.0177,-0.0366 -0.0344,-0.0631 -0.0463,-0.0703 -0.0315,-0.0196 -0.0353,-0.01 -0.0113,0.0291 0.006,0.009 0.0108,0.0287 0.015,0.054 -0.11672,0.035 -0.206,0.0607 -0.2982,0.0871 -0.002,-0.003 -0.003,-0.005 -0.004,-0.007 -0.0148,-0.0148 -0.0375,-0.0161 -0.0509,-0.003 -0.004,0.004 -0.006,0.0151 -0.005,0.0272 -0.20093,0.057 -0.69032,0.2141 -0.69307,0.20289 -0.0155,-0.0631 -0.0546,-0.11483 -0.0867,-0.11483 -0.0321,0 -0.0643,0.0161 -0.0722,0.0354 -0.008,0.0192 -0.0747,0.0468 -0.14933,0.0613 -0.0826,0.0161 -0.1357,0.009 -0.1357,-0.0168 0,-0.024 -0.019,-0.0312 -0.0422,-0.0168 -0.0237,0.0144 -0.0322,0.0424 -0.0199,0.0622 0.0122,0.0198 0.004,0.0469 -0.0172,0.0603 -0.0218,0.0134 -0.0514,0.005 -0.0658,-0.0182 -0.0144,-0.0233 -0.066,-0.0422 -0.11438,-0.0422 -0.0484,0 -0.11768,0.0249 -0.15386,0.0554 -0.0362,0.0305 -0.14536,0.0779 -0.24283,0.10575 -0.10219,0.0292 -0.17746,0.076 -0.17746,0.1103 0,0.0357 -0.025,0.0497 -0.0622,0.0354 -0.0342,-0.0131 -0.12883,0.0158 -0.2106,0.064 -0.0818,0.0483 -0.19243,0.0876 -0.246,0.0876 -0.0536,0 -0.10847,0.0282 -0.12164,0.0626 -0.0132,0.0343 -0.0666,0.0627 -0.11892,0.0631 -0.0523,3.5e-4 -0.11728,0.015 -0.14433,0.0322 -0.0271,0.0172 -0.0461,0.0684 -0.0417,0.11393 0.005,0.0636 -0.0214,0.0854 -0.11756,0.0944 -0.0688,0.006 -0.19522,0.0442 -0.28095,0.0835 -0.0857,0.0394 -0.15633,0.0939 -0.15659,0.12118 -2.6e-4,0.0272 -0.0212,0.0624 -0.0467,0.0781 -0.0255,0.0157 -0.0632,0.003 -0.084,-0.0286 -0.0309,-0.0471 -0.0488,-0.0434 -0.0976,0.0205 -0.0431,0.0561 -0.0958,0.073 -0.19063,0.059 -0.0888,-0.0131 -0.13849,-2e-4 -0.15386,0.04 -0.0178,0.0464 -0.0745,0.053 -0.26098,0.0314 l -0.23875,-0.0272 -0.22104,0.21151 c -0.12154,0.11652 -0.24385,0.21196 -0.27187,0.21196 -0.028,0 -0.074,-0.056 -0.10258,-0.12482 -0.0285,-0.0688 -0.0677,-0.12526 -0.0871,-0.12526 -0.019,0 -0.0251,0.0264 -0.0127,0.0586 0.0154,0.0401 -0.0215,0.0684 -0.1162,0.0899 -0.0761,0.0172 -0.18547,0.0347 -0.24282,0.04 -0.12247,0.0105 -0.87228,-0.009 -0.81291,-0.10531 0.0143,-0.023 0.0745,-0.03 0.1339,-0.015 0.0757,0.019 0.0993,0.0126 0.0785,-0.0209 -0.0162,-0.0263 -0.10251,-0.0477 -0.19154,-0.0477 -0.089,0 -0.1749,0.0208 -0.19063,0.0463 0.28489,1.36376 0.29888,0.95953 -0.11165,0.61954 7.1e-4,-0.0435 -0.002,-0.11538 -0.008,-0.19653 -0.01,-0.13185 -0.0196,-0.24816 -0.0214,-0.25826 -0.002,-0.0101 -0.0313,0.0181 -0.0649,0.0626 -0.0336,0.0445 -0.0615,0.1265 -0.0622,0.18201 -5e-4,0.04 0.0152,0.092 0.0381,0.1339 -0.2377,-0.1565 -0.57022,-0.26653 -1.0421,-0.0971 -0.30241,0.074 -0.24425,-0.0738 -0.24601,-0.0967 -0.002,-0.0229 -0.0261,-0.0135 -0.054,0.0209 -0.0347,0.0427 -0.14686,0.0661 -0.35311,0.0749 -0.16626,0.007 -0.30229,0.003 -0.30229,-0.009 0,-0.0119 0.0611,-0.0406 0.13571,-0.0636 0.13332,-0.0412 0.13276,-0.0418 -0.0314,-0.0213 -0.0917,0.0114 -0.28561,0.0296 -0.43073,0.0404 -0.14512,0.0107 -0.29531,0.0379 -0.3336,0.0603 -0.0562,0.0331 -0.0457,0.0404 0.0553,0.04 0.0688,-2.7e-4 0.20373,-0.0156 0.29957,-0.0341 0.0958,-0.019 0.1955,-0.0209 0.22194,-0.004 0.0264,0.0163 -0.0412,0.0399 -0.15068,0.0522 -0.1248,0.014 -0.21968,0.0507 -0.25464,0.0985 -0.0443,0.0607 -0.0708,0.0667 -0.13026,0.0295 -0.0492,-0.0309 -0.0989,-0.033 -0.14569,-0.007 -0.0391,0.0221 -0.10856,0.0277 -0.15432,0.0132 -0.0458,-0.0145 -0.0726,-0.0437 -0.0595,-0.0649 0.0132,-0.0212 0.0651,-0.0405 0.11528,-0.0422 0.0502,-0.002 0.0674,-0.0127 0.0377,-0.0245 -0.0296,-0.0115 -0.0999,-0.01 -0.15612,0.004 -0.0562,0.0141 -0.0974,0.0488 -0.0922,0.0772 0.006,0.0303 -0.0453,0.0566 -0.12526,0.0645 -0.0762,0.007 -0.13572,-0.006 -0.13572,-0.0314 0,-0.0244 -0.0277,-0.0444 -0.0622,-0.0444 -0.0348,0 -0.0626,0.0372 -0.0626,0.0835 0,0.0458 -0.0188,0.0835 -0.0417,0.0835 -0.0229,0 -0.0417,0.0646 -0.0417,0.14342 0,0.0789 -0.0179,0.15414 -0.0395,0.16749 -0.0215,0.0134 -0.0447,-0.055 -0.0517,-0.15206 -0.0107,-0.14755 -0.0299,-0.18108 -0.11711,-0.20514 -0.0573,-0.0158 -0.0855,-0.0319 -0.0626,-0.0345 0.0229,-0.003 0.01,-0.0239 -0.0295,-0.0467 -0.0468,-0.0272 -0.13241,-0.0277 -0.25009,-8.8e-4 -0.0985,0.0223 -0.26825,0.0522 -0.37718,0.0663 -0.10892,0.014 -0.19789,0.0419 -0.19789,0.0617 0,0.0198 -0.0329,0.0429 -0.0731,0.0517 -0.0401,0.009 -0.11323,-0.01 -0.1625,-0.0409 -0.0624,-0.0393 -0.15318,-0.048 -0.2991,-0.0286 -0.15405,0.0205 -0.20371,0.0429 -0.18746,0.0853 0.0155,0.0403 -0.0121,0.0576 -0.0912,0.0576 -0.0819,0 -0.10636,-0.0166 -0.0894,-0.0608 0.0198,-0.0516 -0.0323,-0.0574 -0.3395,-0.039 -0.19961,0.0119 -0.36927,0.0392 -0.37717,0.0608 -0.008,0.0216 -0.12485,0.039 -0.26053,0.039 -0.15461,0 -0.24646,-0.0174 -0.24646,-0.0467 0,-0.0303 -0.018,-0.0326 -0.0522,-0.007 -0.0286,0.0217 -0.0986,0.0423 -0.15524,0.045 -0.0566,0.004 -0.11667,-0.0173 -0.13389,-0.045 -0.0243,-0.0393 -0.05,-0.039 -0.11438,8.8e-4 -0.0455,0.0283 -0.0917,0.0367 -0.10258,0.0191 -0.011,-0.0177 -0.14474,-0.037 -0.29773,-0.0422 -0.17248,-0.006 -0.30184,0.009 -0.33996,0.0408 -0.0488,0.0406 -0.0685,0.0395 -0.0958,-0.004 -0.0189,-0.0306 -0.0641,-0.044 -0.10076,-0.0299 -0.0366,0.014 -0.17165,0.004 -0.30002,-0.0213 -0.15808,-0.0319 -0.24199,-0.0335 -0.26052,-0.004 -0.015,0.0234 -0.0694,0.0556 -0.12073,0.0717 -0.0514,0.0161 -0.11469,0.0162 -0.14025,4.5e-4 -0.0332,-0.0205 -0.0309,-0.0381 0.007,-0.0617 0.0352,-0.0218 0.004,-0.041 -0.0894,-0.0559 -0.0787,-0.0124 -0.39537,-0.0336 -0.70351,-0.0472 -0.30814,-0.0136 -0.57229,-0.0322 -0.58687,-0.0413 -0.0146,-0.009 -0.27219,-0.0282 -0.57234,-0.0422 -0.31647,-0.0148 -0.57782,-0.009 -0.62226,0.0141 -0.0421,0.0217 -0.12594,0.0625 -0.18655,0.0908 -0.0873,0.0406 -0.14367,0.0405 -0.27097,-4.5e-4 -0.0884,-0.0285 -0.18888,-0.0741 -0.22331,-0.10167 -0.0344,-0.0276 -0.13324,-0.0903 -0.21922,-0.13934 -0.086,-0.0489 -0.15613,-0.0728 -0.15613,-0.0531 0,0.0197 0.0282,0.0463 0.0626,0.0595 0.0344,0.0132 0.0622,0.0436 0.0622,0.0672 0,0.0236 0.0377,0.0808 0.0835,0.12663 0.0459,0.0459 0.0835,0.11865 0.0835,0.16203 0,0.0435 -0.0325,0.0915 -0.0722,0.10667 -0.0508,0.0195 -0.10628,-0.0133 -0.187,-0.11029 -0.0631,-0.0758 -0.12536,-0.17047 -0.13888,-0.2106 -0.0135,-0.0401 -0.0422,-0.0731 -0.0635,-0.0731 -0.0213,0 -0.039,-0.0329 -0.039,-0.0731 -3e-5,-0.0401 -0.0466,-0.12759 -0.10394,-0.19425 -0.0573,-0.0667 -0.1044,-0.14619 -0.1044,-0.17702 0,-0.0308 -0.0282,-0.0559 -0.0626,-0.0559 -0.0344,0 -0.0622,-0.022 -0.0622,-0.0486 0,-0.0265 -0.0471,-0.10954 -0.10439,-0.18472 -0.0574,-0.0752 -0.10439,-0.15564 -0.10439,-0.17883 0,-0.0231 -0.0416,-0.0715 -0.0926,-0.10712 -0.0513,-0.0357 -0.0766,-0.0649 -0.0572,-0.0649 0.0191,0 0.0171,-0.0231 -0.004,-0.0517 -0.0217,-0.0286 -0.0423,-0.0988 -0.045,-0.15568 -0.003,-0.0569 -0.035,-0.12496 -0.0708,-0.15114 -0.0355,-0.0263 -0.0543,-0.0762 -0.0408,-0.1112 0.0134,-0.035 8.8e-4,-0.0777 -0.0272,-0.0953 -0.0365,-0.0226 -0.0434,-0.0107 -0.0236,0.0408 0.0178,0.0464 0.0105,0.0671 -0.0205,0.0567 -0.0268,-0.009 -0.0761,-0.0581 -0.10983,-0.10893 -0.0561,-0.0845 -0.0554,-0.0899 0.0122,-0.064 0.0528,0.0202 0.0687,0.0114 0.0549,-0.0304 -0.0106,-0.0323 -0.0605,-0.0652 -0.1103,-0.0722 -0.0498,-0.007 -0.0905,-0.0256 -0.0908,-0.0413 -3.5e-4,-0.0156 -0.0105,-0.0756 -0.0222,-0.13298 -0.0207,-0.10086 -0.0202,-0.10118 0.0199,-0.0105 0.0228,0.0516 0.0617,0.094 0.0863,0.094 0.0301,0 0.0314,-0.0243 0.004,-0.0762 -0.0225,-0.042 -0.0718,-0.10226 -0.10939,-0.13344 -0.0376,-0.0312 -0.15393,-0.20503 -0.25871,-0.3867 l -0.19063,-0.33043 -0.0513,0.11937 c -0.0419,0.0979 -0.0561,0.10711 -0.0799,0.0499 -0.016,-0.0383 -0.0109,-0.10426 0.0113,-0.14615 0.0288,-0.0543 0.0236,-0.0915 -0.0177,-0.12982 -0.032,-0.0296 -0.0604,-0.039 -0.0631,-0.0209 -0.003,0.0181 -7.2e-4,0.0702 0.004,0.11574 0.007,0.0639 -0.0256,0.0451 -0.14117,-0.0812 -0.0827,-0.0903 -0.15023,-0.14748 -0.15023,-0.12754 0,0.0199 -0.0423,-0.002 -0.094,-0.0481 -0.0516,-0.0465 -0.17821,-0.12918 -0.28141,-0.18337 -0.10319,-0.0542 -0.2164,-0.12186 -0.25145,-0.15023 -0.035,-0.0284 -0.17579,-0.0826 -0.31272,-0.12029 -0.13692,-0.0378 -0.33298,-0.0849 -0.43618,-0.10484 -0.10319,-0.0199 -0.30981,-0.0648 -0.45887,-0.0999 -0.14906,-0.0351 -0.30863,-0.0723 -0.35448,-0.0827 -0.0459,-0.0104 -0.26145,-0.0494 -0.47929,-0.0863 -0.21786,-0.0369 -0.46667,-0.0769 -0.55283,-0.0894 -0.0862,-0.0124 -0.16709,-0.0393 -0.17974,-0.0599 -0.0126,-0.0205 -0.1044,-0.0377 -0.20379,-0.0377 -0.0994,0 -0.32772,-0.0288 -0.50789,-0.064 -0.18018,-0.0352 -0.36053,-0.0818 -0.40032,-0.10393 -0.0398,-0.0221 -0.144,-0.0404 -0.23148,-0.0404 -0.0875,0 -0.1793,-0.0205 -0.20425,-0.0454 -0.0249,-0.025 -0.1086,-0.0532 -0.18563,-0.0626 -0.077,-0.009 -0.40289,-0.0741 -0.72394,-0.14434 -0.32104,-0.0702 -0.62554,-0.12893 -0.67718,-0.12981 -0.0516,-8.7e-4 -0.094,-0.0139 -0.094,-0.0286 0,-0.0148 -0.0424,-0.0296 -0.094,-0.0331 -0.0516,-0.004 -0.15938,-0.018 -0.23966,-0.0327 -0.0803,-0.0147 -0.21156,-0.0516 -0.29184,-0.0821 -0.0803,-0.0306 -0.21271,-0.0771 -0.29457,-0.10303 -0.0819,-0.0259 -0.19817,-0.0472 -0.25825,-0.0472 -0.0601,0 -0.11951,-0.0157 -0.13163,-0.0354 -0.0121,-0.0197 -0.1282,-0.0469 -0.25826,-0.0603 -0.13007,-0.0134 -0.25625,-0.0443 -0.2805,-0.0685 -0.0242,-0.0242 -0.0828,-0.045 -0.1298,-0.0459 -0.047,-8.8e-4 -0.16063,-0.0291 -0.25236,-0.0626 -0.0917,-0.0335 -0.35437,-0.10065 -0.58369,-0.14887 -0.22932,-0.0482 -0.42848,-0.10605 -0.44253,-0.12845 -0.0141,-0.0225 -0.0921,-0.0465 -0.17338,-0.0545 -0.0813,-0.008 -0.18548,-0.0342 -0.23194,-0.059 -0.0465,-0.0248 -0.1412,-0.045 -0.21014,-0.045 -0.069,0 -0.13606,-0.0176 -0.14932,-0.039 -0.0133,-0.0214 -0.16904,-0.071 -0.34631,-0.10985 -0.17727,-0.0389 -0.38814,-0.10327 -0.46842,-0.14297 -0.0803,-0.0397 -0.22099,-0.085 -0.31272,-0.10076 -0.0917,-0.0157 -0.29789,-0.0759 -0.45841,-0.13344 -0.16052,-0.0576 -0.32468,-0.12236 -0.36447,-0.14387 -0.0398,-0.0215 -0.1,-0.039 -0.1339,-0.039 -0.0339,0 -0.1517,-0.0289 -0.26143,-0.064 -0.10972,-0.0351 -0.22983,-0.0805 -0.26734,-0.10122 -0.0375,-0.0209 -0.10649,-0.028 -0.15295,-0.0159 -0.0581,0.0153 -0.0887,-5e-4 -0.0985,-0.0504 -0.01,-0.0509 -0.0638,-0.0767 -0.1811,-0.0876 -0.0917,-0.009 -0.20424,-0.0317 -0.25009,-0.0513 -0.0459,-0.0196 -0.17835,-0.0771 -0.29457,-0.12799 -0.11621,-0.0508 -0.23811,-0.0879 -0.27096,-0.0827 -0.0328,0.005 -0.12854,-0.0203 -0.21241,-0.0576 -0.0839,-0.0373 -0.19399,-0.12015 -0.24511,-0.18383 -0.0593,-0.0738 -0.0997,-0.0967 -0.11165,-0.0636 -0.0103,0.0286 -0.0592,0.0508 -0.10892,0.049 -0.0497,-0.002 -0.1562,-0.0271 -0.23648,-0.0563 -0.12108,-0.044 -0.14569,-0.0734 -0.14569,-0.17384 0,-0.0863 -0.0199,-0.1197 -0.0685,-0.11619 -0.0468,0.004 -0.0661,-0.0263 -0.0626,-0.094 0.004,-0.0721 0.0305,-0.0985 0.0971,-0.0985 0.0503,-9e-5 0.10296,0.0184 0.1171,0.0413 0.0142,0.0229 -0.0136,0.0417 -0.0622,0.0417 -0.0486,0 -0.0769,0.0187 -0.0626,0.0417 0.0148,0.024 0.0948,0.031 0.18655,0.0163 0.11428,-0.0184 0.18866,-0.006 0.25734,0.0417 0.0933,0.0653 0.0891,0.0668 -0.12163,0.0459 -0.12002,-0.012 -0.21832,-0.006 -0.21832,0.0118 0,0.0183 0.0546,0.065 0.12118,0.10438 0.0666,0.0393 0.15934,0.0717 0.20606,0.0717 0.0467,0 0.0953,-0.017 0.10803,-0.0377 0.0127,-0.021 0.0796,-0.033 0.14842,-0.0286 0.0689,0.004 0.12527,-0.004 0.12527,-0.0195 0,-0.0154 -0.14543,-0.0988 -0.32316,-0.18518 -0.17772,-0.0864 -0.36975,-0.17587 -0.4271,-0.1988 -0.0574,-0.023 -0.15143,-0.0617 -0.20879,-0.0863 -0.0573,-0.0246 -0.11804,-0.0516 -0.13526,-0.0595 -0.0172,-0.008 -0.0314,0.0155 -0.0314,0.0526 0,0.0374 0.0184,0.0559 0.0413,0.0418 0.0228,-0.0141 0.0635,0.022 0.0903,0.0808 0.0267,0.0588 0.0338,0.12086 0.0155,0.13799 -0.0183,0.0171 -0.0419,0.008 -0.0522,-0.0209 -0.0103,-0.0286 -0.043,-0.0522 -0.0731,-0.0522 -0.03,0 -0.0653,-0.0282 -0.0785,-0.0626 -0.0132,-0.0344 -0.0542,-0.0622 -0.0908,-0.0622 -0.0475,0 -0.059,0.0234 -0.0404,0.0821 0.0226,0.071 8.8e-4,0.0864 -0.15342,0.11121 -0.0988,0.0156 -0.18402,0.0253 -0.19017,0.0218 -0.006,-0.004 -0.006,-0.0209 0,-0.0381 0.006,-0.0175 0.0523,-0.0261 0.10394,-0.0191 0.0604,0.008 0.0939,-0.0102 0.0939,-0.0499 0,-0.0339 -0.0189,-0.073 -0.0418,-0.0871 -0.0229,-0.0141 -0.0415,-0.0386 -0.0413,-0.0545 1.7e-4,-0.0158 0.0483,-0.0512 0.10711,-0.0785 0.0588,-0.027 0.13854,-0.0406 0.17701,-0.0291 0.0385,0.0115 0.004,-0.0157 -0.0758,-0.0608 -0.0803,-0.0451 -0.16498,-0.0699 -0.1879,-0.0549 -0.0229,0.015 0.003,0.0334 0.0567,0.0413 0.0981,0.0139 0.0984,0.0144 -0.0172,0.0744 -0.0797,0.0413 -0.12988,0.0466 -0.15931,0.0172 -0.0295,-0.0294 -0.027,-0.0587 0.007,-0.0931 0.0276,-0.0275 0.0499,-0.0667 0.0499,-0.0876 0,-0.0208 -0.0282,-0.0272 -0.0626,-0.0141 -0.0344,0.0132 -0.0622,0.008 -0.0622,-0.0118 0,-0.0198 -0.0263,-0.0458 -0.0581,-0.0581 -0.0471,-0.0181 -0.0493,-2e-4 -0.0122,0.098 0.0249,0.0661 0.0337,0.13239 0.0191,0.14706 -0.0146,0.0147 -0.0468,0.0142 -0.0712,-8.8e-4 -0.0244,-0.0151 -0.0444,-0.0599 -0.0444,-0.0999 0,-0.0399 -0.0224,-0.0951 -0.0499,-0.12255 -0.0275,-0.0276 -0.0652,-0.0504 -0.0835,-0.0504 -0.0184,0 -0.0337,0.0611 -0.0341,0.13571 -3.5e-4,0.0746 -0.0176,0.16326 -0.039,0.19699 -0.0213,0.0334 -0.0534,0.0464 -0.0712,0.0286 -0.0178,-0.0178 -0.008,-0.0474 0.0227,-0.0662 0.037,-0.0228 0.0468,-0.0753 0.0286,-0.15795 -0.0213,-0.0968 -0.0708,-0.14342 -0.22648,-0.21377 -0.1095,-0.0495 -0.24942,-0.0899 -0.3109,-0.0899 -0.0615,0 -0.11166,-0.0156 -0.11166,-0.0345 0,-0.0189 -0.0842,-0.0764 -0.18745,-0.12799 -0.10322,-0.0516 -0.18791,-0.10391 -0.18791,-0.11665 0,-0.0127 0.0611,-0.0119 0.13571,0.002 0.13487,0.0249 0.13503,0.0243 0.0304,-0.0331 -0.0578,-0.0318 -0.17515,-0.0707 -0.26052,-0.0867 -0.13548,-0.0254 -0.15921,-0.0174 -0.18881,0.0626 -0.0314,0.0848 -0.0382,0.0863 -0.0922,0.0214 -0.0507,-0.0611 -0.0484,-0.0759 0.0195,-0.11393 0.0657,-0.0367 0.0226,-0.0627 -0.27277,-0.16339 -0.19306,-0.0659 -0.37906,-0.11217 -0.41349,-0.10304 -0.0367,0.01 -0.0262,0.0187 0.0258,0.0213 0.0487,0.003 0.11216,0.0332 0.1407,0.0676 0.0286,0.0344 0.0881,0.0626 0.13253,0.0626 0.0444,0 0.0697,0.0177 0.0563,0.0395 -0.0134,0.0221 -0.0833,0.0318 -0.15568,0.0227 -0.0724,-0.009 -0.14828,-0.0461 -0.16839,-0.0821 -0.0202,-0.0362 -0.0557,-0.0532 -0.0794,-0.0386 -0.0237,0.0147 -0.087,0.004 -0.14025,-0.0254 -0.0533,-0.0285 -0.0875,-0.0768 -0.0758,-0.10712 0.016,-0.0413 -0.0183,-0.0508 -0.13888,-0.0377 -0.0879,0.009 -0.12683,0.007 -0.0867,-0.005 0.0401,-0.0124 0.0726,-0.0366 0.0726,-0.054 0,-0.0173 -0.27676,-0.0927 -0.61501,-0.16749 -0.33824,-0.0748 -0.63583,-0.14829 -0.6613,-0.1634 -0.0255,-0.0151 -0.0967,-0.0632 -0.15886,-0.10711 -0.0712,-0.0502 -0.1745,-0.0775 -0.27868,-0.0731 -0.11264,0.004 -0.17257,-0.0134 -0.18881,-0.0559 -0.0138,-0.0359 -0.0795,-0.0636 -0.15523,-0.0653 -0.12487,-0.003 -0.12648,-0.004 -0.0368,-0.0481 0.069,-0.0332 0.12472,-0.0322 0.20834,0.004 0.10601,0.0454 0.10868,0.0442 0.0336,-0.0145 -0.0445,-0.0348 -0.14041,-0.0631 -0.21287,-0.0631 -0.0725,0 -0.19137,0.0207 -0.26462,0.0463 -0.11085,0.0386 -0.14661,0.0346 -0.21196,-0.0245 -0.0498,-0.0454 -0.10995,-0.061 -0.16475,-0.0436 -0.0494,0.0157 -0.0863,0.009 -0.0863,-0.0159 0,-0.0238 -0.0894,-0.0694 -0.19834,-0.10167 -0.13512,-0.0401 -0.22273,-0.0462 -0.27551,-0.0186 -0.0518,0.027 -0.0925,0.0255 -0.123,-0.005 -0.025,-0.0251 -0.0959,-0.0459 -0.1575,-0.0459 -0.0616,0 -0.21239,-0.0299 -0.33542,-0.0668 -0.12302,-0.0369 -0.26143,-0.0824 -0.30727,-0.10076 -0.0459,-0.0184 -0.21813,-0.054 -0.38308,-0.079 -0.16495,-0.0249 -0.36467,-0.0835 -0.44389,-0.13026 -0.0944,-0.0556 -0.21381,-0.0844 -0.34631,-0.0826 -0.11126,0.002 -0.32434,0.005 -0.4734,0.009 -0.14906,0.003 -0.30863,0.003 -0.35448,0 -0.0458,-0.004 -0.1388,-0.0111 -0.20651,-0.0172 -0.0885,-0.009 -0.13568,0.0118 -0.16703,0.0717 -0.0288,0.0552 -0.0766,0.079 -0.14071,0.0699 -0.0534,-0.008 -0.19933,0.0379 -0.32451,0.10121 -0.14392,0.0728 -0.21987,0.13543 -0.20652,0.17021 0.0116,0.0303 -0.005,0.0549 -0.0386,0.0549 -0.037,0 -0.0506,-0.0244 -0.0354,-0.064 0.0214,-0.0556 0.004,-0.055 -0.12481,0.007 -0.0821,0.0392 -0.13826,0.0891 -0.12482,0.11075 0.0134,0.0217 -0.002,0.0558 -0.0331,0.0758 -0.0315,0.02 -0.0828,0.0369 -0.11392,0.0372 -0.0333,3.5e-4 -0.0468,-0.0254 -0.0327,-0.0622 0.0132,-0.0344 0.005,-0.0622 -0.0168,-0.0622 -0.0225,0 -0.077,0.0223 -0.12119,0.0499 -0.0623,0.0387 -0.12568,0.039 -0.28095,8.7e-4 -0.1291,-0.0316 -0.25234,-0.0362 -0.34631,-0.0127 -0.1345,0.0335 -0.12663,0.0369 0.10394,0.0413 0.17805,0.004 0.23244,0.0167 0.18791,0.0454 -0.0344,0.0223 -0.10711,0.0409 -0.16113,0.0413 -0.065,3.5e-4 -0.0909,0.0192 -0.0767,0.0563 0.0162,0.042 -0.0231,0.0544 -0.15931,0.0499 -0.14041,-0.004 -0.18541,0.0104 -0.20016,0.0668 -0.0103,0.04 -0.009,0.0833 0.004,0.0962 0.0127,0.0128 0.0578,0.0232 0.0998,0.0232 0.042,0 0.0762,0.0242 0.0762,0.054 0,0.0299 -0.0224,0.0769 -0.0499,0.1044 -0.0275,0.0276 -0.0762,0.0499 -0.10847,0.0499 -0.0322,0 -0.12964,0.0565 -0.2165,0.12528 -0.0869,0.0688 -0.18406,0.12527 -0.21559,0.12527 -0.0315,0 -0.12628,0.0465 -0.2106,0.10394 -0.0844,0.0574 -0.17064,0.10439 -0.19154,0.10439 -0.0209,0 -0.27993,0.12099 -0.57552,0.2687 -0.2099,0.10488 -0.31685,0.15025 -0.42574,0.19789 l -0.36084,-0.18155 c 0.18302,0.0592 0.35358,0.1057 0.35358,0.0863 0,-0.0224 -0.0235,-0.0475 -0.0522,-0.0563 -0.0287,-0.009 -0.21176,-0.0664 -0.40668,-0.12846 -0.15467,-0.0492 -0.24968,-0.0861 -0.31408,-0.11301 l -2.51313,-1.26678 c -0.0531,-0.0296 -0.10133,-0.0578 -0.14797,-0.0835 -0.20317,-0.11186 -0.4687,-0.25389 -0.59004,-0.31546 -0.121342,-0.0616 -0.232731,-0.13217 -0.24782,-0.15658 -0.01509,-0.0243 -0.06397,-0.044 -0.108478,-0.044 -0.04451,0 -0.08079,-0.0175 -0.08079,-0.0386 0,-0.0212 -0.05628,-0.0508 -0.124817,-0.0658 -0.06852,-0.015 -0.134811,-0.0444 -0.147511,-0.0649 -0.0127,-0.0206 -0.0882,-0.0682 -0.167482,-0.10575 -0.08979,-0.0426 -0.143879,-0.0982 -0.143879,-0.14751 0,-0.0536 -0.06435,-0.10941 -0.198345,-0.17247 -0.108927,-0.0513 -0.22251,-0.11662 -0.252812,-0.14525 -0.0303,-0.0286 -0.07737,-0.0521 -0.104391,-0.0522 -0.02703,-1e-4 -0.337671,-0.14215 -0.690351,-0.31545 -0.352682,-0.17329 -0.826508,-0.39837 -1.053001,-0.50017 -0.226492,-0.10181 -0.422646,-0.18472 -0.435724,-0.18472 -0.01308,0 -0.284625,-0.13059 -0.603206,-0.29004 -0.318583,-0.15946 -0.659359,-0.31284 -0.757525,-0.34086 -0.09817,-0.028 -0.193968,-0.0471 -0.21287,-0.0427 -0.0189,0.004 -0.02268,-0.0104 -0.0086,-0.0331 0.01405,-0.0228 0.1199,-0.089 0.235563,-0.14706 0.115662,-0.0581 0.230209,-0.1053 0.254626,-0.1053 0.02443,0 0.234003,-0.0917 0.465681,-0.20378 0.231678,-0.11214 0.621238,-0.29994 0.865548,-0.41712 0.24431,-0.11719 0.3318,-0.29139 0.347672,-0.29139 0.01586,0 0.204199,0.0435 0.265066,8.8e-4 0.121518,-0.085 0.02472,0.0617 1.249076,-0.63634 -0.180069,0.14491 -0.283391,0.24612 0.181552,-0.084 0.06087,-0.0432 0.141998,-0.0785 0.180644,-0.0785 0.03864,0 0.107227,-0.0423 0.152503,-0.094 0.05704,-0.065 0.08895,-0.0774 0.103939,-0.0413 0.01191,0.0286 0.03825,0.0517 0.05855,0.0517 0.06252,0 -0.05804,-0.082 0.1112,-0.1693 0.06386,-0.033 0.13997,-0.0827 0.169297,-0.1103 0.02933,-0.028 0.07861,-0.0408 0.109385,-0.0291 0.03078,0.0118 0.06708,-0.007 0.08079,-0.0431 0.0137,-0.0357 0.05417,-0.0649 0.08987,-0.0649 0.03912,0 0.07529,-0.0509 0.09078,-0.12845 0.01412,-0.0706 0.03843,-0.10782 0.05402,-0.0826 0.01953,0.0316 0.09863,0.017 0.25463,-0.0467 0.1245,-0.0508 0.2825,-0.14837 0.3513,-0.21696 0.11071,-0.1104 0.11313,-0.1175 0.0209,-0.0617 -0.0573,0.0346 -0.14159,0.0769 -0.18745,0.0935 -0.0792,0.0289 -0.0796,0.0267 -0.0109,-0.0427 0.0398,-0.0402 0.18006,-0.13544 0.31227,-0.2115 0.1322,-0.0761 0.30644,-0.17082 0.3867,-0.2106 0.0803,-0.0398 0.16872,-0.0941 0.19699,-0.12074 0.0283,-0.0267 0.0918,-0.0379 0.14115,-0.0249 0.0649,0.017 0.0843,0.007 0.0699,-0.035 -0.0132,-0.0389 0.0979,-0.12451 0.33314,-0.25644 0.1942,-0.10893 0.36401,-0.19789 0.37718,-0.19789 0.0132,0 0.001,0.0224 -0.0263,0.0499 -0.0275,0.0276 -0.0499,0.0663 -0.0499,0.0862 0,0.0199 0.0612,-0.006 0.13571,-0.0586 0.0745,-0.0521 0.14467,-0.10689 0.15614,-0.12208 0.0115,-0.0152 0.0645,-0.041 0.11755,-0.0576 0.0531,-0.0166 0.16165,-0.0874 0.24147,-0.1575 0.12983,-0.11391 0.15575,-0.12197 0.24373,-0.0749 0.0541,0.0288 0.11876,0.04 0.14388,0.0245 0.0251,-0.0155 0.0458,-0.0533 0.0458,-0.0835 0,-0.0302 0.0419,-0.0833 0.0935,-0.11801 0.0516,-0.0347 0.0799,-0.0775 0.0626,-0.0953 -0.006,-0.006 -0.03,0.005 -0.0436,0.004 l 0.42029,-0.22286 c 0.13579,0.0455 0.32561,0.11731 0.55509,0.22967 0.28429,0.13917 0.73771,0.35951 1.00716,0.48973 0.26945,0.13022 0.48973,0.25245 0.48973,0.27142 0,0.0189 -0.0329,0.0487 -0.0731,0.0663 -0.0401,0.0174 -0.10592,0.0275 -0.14615,0.0222 -0.0662,-0.008 -0.0645,0.005 0.0155,0.14071 0.0486,0.0823 0.12544,0.16984 0.17111,0.19425 0.0477,0.0251 0.16568,0.0333 0.27686,0.0182 0.10648,-0.0145 0.24986,-0.0268 0.31863,-0.0286 0.0688,-0.002 0.22618,0.017 0.34949,0.0413 0.1233,0.0242 0.25603,0.0732 0.29502,0.10848 0.039,0.0353 0.10413,0.064 0.14479,0.064 0.0407,0 0.16122,0.0453 0.26779,0.10031 0.10657,0.0551 0.27806,0.12153 0.38126,0.14796 0.10319,0.0264 0.20673,0.0462 0.22966,0.0436 0.0229,-0.003 0.27617,-0.0118 0.56281,-0.0213 0.28665,-0.01 0.58079,-0.0262 0.65404,-0.0367 0.0733,-0.0105 0.18616,-0.0564 0.25054,-0.10167 0.0704,-0.0496 0.22271,-0.0934 0.38217,-0.10984 0.14593,-0.015 0.2961,-0.0423 0.3336,-0.0608 0.0375,-0.0184 0.13395,-0.0574 0.21423,-0.0867 0.0803,-0.0293 0.24878,-0.0645 0.37491,-0.0785 0.1584,-0.0178 0.22576,-0.0428 0.21785,-0.0808 -0.006,-0.0304 0.006,-0.0444 0.0272,-0.0314 0.0211,0.0131 0.0921,-0.004 0.1575,-0.0381 0.0654,-0.0342 0.14334,-0.0625 0.17338,-0.0626 0.0297,-8e-5 0.0432,0.0188 0.0291,0.0417 -0.0141,0.0229 -0.0626,0.0418 -0.10711,0.0418 -0.0444,0 -0.0808,0.0184 -0.0808,0.0413 0,0.0229 0.0388,0.0417 0.0858,0.0417 0.047,0 0.14534,-0.032 0.21877,-0.0712 0.0734,-0.0393 0.19885,-0.0952 0.27913,-0.12436 0.0803,-0.0292 0.23983,-0.0537 0.35449,-0.0554 0.11466,-0.002 0.26483,-0.0284 0.3336,-0.0599 0.0816,-0.0374 0.0998,-0.0582 0.0522,-0.0609 -0.0401,-0.002 -0.0731,-0.0208 -0.0731,-0.0422 0,-0.0214 0.0398,-0.0517 0.0885,-0.0672 0.0492,-0.0156 0.10082,-0.008 0.11619,0.0168 0.0189,0.0306 0.0667,0.0247 0.15114,-0.0191 0.0679,-0.0351 0.16112,-0.0989 0.20697,-0.14161 0.0459,-0.0426 0.13956,-0.0907 0.20833,-0.10666 0.0688,-0.016 0.33144,-0.0826 0.58369,-0.14842 0.25225,-0.0659 0.53372,-0.14112 0.62545,-0.16703 0.0917,-0.0258 0.28894,-0.0846 0.43799,-0.13072 0.14906,-0.0461 0.2899,-0.0989 0.31317,-0.11709 0.0232,-0.0182 0.13574,-0.0548 0.25009,-0.0817 0.11436,-0.0269 0.31142,-0.0837 0.43754,-0.12617 0.12613,-0.0426 0.33229,-0.11672 0.45842,-0.16477 0.12613,-0.048 0.34826,-0.12735 0.49382,-0.1761 0.14556,-0.0487 0.27482,-0.11398 0.28686,-0.14524 0.012,-0.0313 -0.01,-0.0921 -0.0486,-0.13481 -0.0461,-0.0509 -0.0551,-0.0869 -0.0259,-0.10484 0.0244,-0.0148 0.0444,-0.0119 0.0444,0.007 0,0.0187 0.0386,0.0581 0.0858,0.0876 0.0719,0.0449 0.1128,0.042 0.25009,-0.0186 0.109,-0.048 0.14682,-0.0833 0.11256,-0.10439 -0.0372,-0.0229 -0.0394,-0.045 -0.007,-0.0771 0.0247,-0.0248 0.11858,-0.0535 0.20832,-0.064 l 0.16295,-0.0191 -0.13526,0.0427 c -0.0746,0.0235 -0.13571,0.0608 -0.13571,0.0831 0,0.0223 0.0141,0.039 0.0314,0.0381 0.0172,-0.002 0.11759,-0.0433 0.22285,-0.0935 0.12418,-0.0593 0.18448,-0.11212 0.17157,-0.15024 -0.014,-0.0413 0.002,-0.0507 0.0517,-0.0313 0.0393,0.0152 0.11782,0.016 0.17429,0.002 0.0566,-0.0141 0.0955,-0.0472 0.0867,-0.0731 -0.009,-0.0259 -0.0613,-0.0487 -0.11664,-0.0504 -0.0553,-0.002 -0.12784,-0.007 -0.16113,-0.0105 -0.0444,-0.005 -0.0481,-0.0195 -0.014,-0.0536 0.0267,-0.0267 0.0701,-0.0316 0.10212,-0.0118 0.0306,0.0192 0.1095,0.0288 0.17519,0.0218 0.0842,-0.009 0.11066,0.002 0.089,0.0372 -0.0222,0.0359 -0.004,0.0416 0.0681,0.0199 0.0545,-0.0165 0.1122,-0.0423 0.12845,-0.0572 0.0162,-0.0148 0.012,-0.0548 -0.01,-0.089 -0.0305,-0.048 -0.0394,-0.0494 -0.04,-0.005 -4.5e-4,0.0402 -0.0327,0.049 -0.11029,0.0295 -0.0601,-0.0151 -0.13722,-0.0555 -0.17157,-0.0899 -0.0341,-0.0343 -0.0526,-0.0726 -0.0404,-0.0848 0.0122,-0.0122 0.0618,-8.8e-4 0.10984,0.0245 0.048,0.0257 0.11097,0.0439 0.13934,0.0404 0.0284,-0.004 0.10306,-0.004 0.16612,-0.002 0.074,0.004 0.11483,0.028 0.11483,0.0699 0,0.0358 0.0199,0.0528 0.0444,0.0377 0.0243,-0.0151 0.0343,-0.0534 0.0222,-0.0848 -0.012,-0.0315 0.0103,-0.0755 0.0494,-0.0976 0.0558,-0.0314 0.0602,-0.051 0.0209,-0.0908 -0.0396,-0.0403 -0.0665,-0.0393 -0.12527,0.005 -0.0713,0.054 -0.071,0.0532 -4.5e-4,-0.0236 0.0593,-0.0646 0.0881,-0.0713 0.14932,-0.0331 0.0426,0.0266 0.10035,0.0327 0.13118,0.0136 0.0302,-0.019 0.079,-0.0248 0.10802,-0.0136 0.0291,0.0112 0.11011,-0.0352 0.18064,-0.10258 0.0704,-0.0674 0.12845,-0.14584 0.12845,-0.17474 0,-0.0324 0.0327,-0.0441 0.0835,-0.0308 0.0502,0.0131 0.0979,-0.004 0.11937,-0.0417 0.0259,-0.0464 0.0438,-0.0505 0.0658,-0.015 0.0211,0.034 0.0462,0.0357 0.0821,0.006 0.0285,-0.0236 0.094,-0.0493 0.1457,-0.0572 0.0517,-0.008 0.10928,-0.0391 0.12799,-0.0694 0.0227,-0.0366 0.0774,-0.0462 0.1634,-0.029 0.0712,0.0142 0.17573,0.008 0.23239,-0.0136 0.0576,-0.0219 0.11451,-0.0857 0.12935,-0.14479 0.0146,-0.0581 0.0436,-0.10575 0.064,-0.10575 0.0205,0 0.0372,0.0282 0.0372,0.0626 0,0.0366 0.0387,0.0635 0.0935,0.0645 0.0872,0.002 0.0855,0.006 -0.0245,0.0654 -0.0651,0.0353 -0.10862,0.0743 -0.0967,0.0862 0.0119,0.012 0.0899,-7.5e-4 0.17293,-0.0281 0.14755,-0.0487 0.14962,-0.0522 0.0853,-0.15024 -0.0636,-0.097 -0.0624,-0.10031 0.0423,-0.10031 0.0595,0 0.1865,-0.0451 0.28231,-0.1003 0.0958,-0.0552 0.22899,-0.0997 0.29548,-0.099 0.0792,8.6e-4 0.1471,-0.0327 0.19698,-0.0976 0.0419,-0.0545 0.0767,-0.0759 0.0771,-0.0472 4.4e-4,0.0287 0.0371,0.0522 0.0812,0.0522 0.0442,0 0.11461,-0.0433 0.15659,-0.0967 0.042,-0.0534 0.13711,-0.10949 0.21151,-0.12436 0.0743,-0.0149 0.13525,-0.0123 0.13525,0.005 0,0.0178 -0.0223,0.0546 -0.0494,0.0817 -0.0274,0.0271 -0.0368,0.0617 -0.0213,0.0772 0.0155,0.0154 0.0754,-0.0228 0.133,-0.0849 0.0576,-0.0621 0.10438,-0.13076 0.10438,-0.1525 0,-0.0218 0.0152,-0.0395 0.0336,-0.0395 0.0183,0 0.056,0.0229 0.0835,0.0504 0.0389,0.0389 0.0499,0.0343 0.0499,-0.0209 0,-0.0483 0.0362,-0.0725 0.11438,-0.0758 0.0631,-0.003 0.12847,-0.003 0.14524,-4.5e-4 0.0168,0.003 0.0941,-0.0309 0.17157,-0.0744 0.0824,-0.0463 0.20782,-0.0757 0.30274,-0.0713 0.12166,0.006 0.1844,-0.0163 0.25053,-0.0876 0.0485,-0.0523 0.13652,-0.0949 0.19563,-0.0949 0.059,0 0.11781,-0.0173 0.13072,-0.0381 0.0128,-0.0208 0.12201,-0.0666 0.24237,-0.10167 0.12035,-0.0351 0.27991,-0.0739 0.35448,-0.0862 0.1052,-0.0174 0.13526,-0.008 0.13526,0.0436 0,0.043 0.0227,0.0573 0.0658,0.0408 0.0363,-0.0139 0.088,-0.0267 0.11483,-0.0281 0.0268,-10e-4 0.002,-0.0215 -0.0554,-0.0445 -0.10118,-0.0405 -0.10186,-0.0429 -0.0209,-0.0894 0.0458,-0.0263 0.10189,-0.0505 0.12481,-0.0536 0.0229,-0.003 0.10385,-0.008 0.17974,-0.0118 0.0892,-0.004 0.12783,-0.0228 0.10939,-0.0526 -0.0188,-0.0305 -5.5e-4,-0.0371 0.0536,-0.02 0.0451,0.0143 0.15004,-0.002 0.2333,-0.0372 0.0833,-0.0348 0.20613,-0.0636 0.27323,-0.0636 0.0738,0 0.13233,-0.0265 0.14796,-0.0672 0.0163,-0.0427 0.0558,-0.0592 0.10848,-0.0454 0.0497,0.013 0.0974,-0.004 0.11892,-0.0427 0.029,-0.0518 0.0755,-0.0579 0.23965,-0.0313 0.11203,0.0181 0.25643,0.0286 0.32089,0.0231 0.0645,-0.005 0.21462,-0.0448 0.3336,-0.0871 0.11898,-0.0423 0.17884,-0.0789 0.13299,-0.0812 -0.0825,-0.004 -0.0826,-0.005 -0.003,-0.0653 0.0444,-0.0337 0.0972,-0.0613 0.11711,-0.0613 0.0201,0 0.0254,0.0172 0.0122,0.0386 -0.0132,0.0213 -0.004,0.0514 0.0213,0.0667 0.0253,0.0157 0.0552,-0.0101 0.0681,-0.059 0.0157,-0.0602 0.0761,-0.10062 0.19517,-0.13026 0.0948,-0.0236 0.28054,-0.072 0.41258,-0.10712 0.13204,-0.0351 0.25847,-0.0523 0.2814,-0.0381 0.0229,0.0142 0.053,-0.003 0.0667,-0.039 0.0137,-0.0357 0.0429,-0.0536 0.0649,-0.0399 0.022,0.0136 0.0682,-0.0102 0.10258,-0.0526 0.0447,-0.0554 0.0684,-0.0624 0.084,-0.025 0.0119,0.0287 0.0518,0.0522 0.0881,0.0522 0.0364,0 0.0528,-0.0131 0.0367,-0.029 -0.016,-0.016 0.0606,-0.0533 0.17021,-0.0831 0.10959,-0.0298 0.25576,-0.066 0.32453,-0.0808 0.0688,-0.0148 0.15396,-0.0521 0.18927,-0.0826 0.0416,-0.0359 0.14695,-0.0507 0.29955,-0.0422 0.12948,0.007 0.25991,-0.002 0.29004,-0.0213 0.0416,-0.0264 0.0423,-0.0349 0.003,-0.0354 -0.0286,-3.6e-4 -0.0517,-0.0209 -0.0517,-0.0454 0,-0.0255 0.0352,-0.0333 0.0831,-0.0182 0.0499,0.0159 0.0835,0.007 0.0835,-0.0209 0,-0.0277 0.0332,-0.0366 0.0798,-0.0218 0.0439,0.014 0.089,0.0102 0.1003,-0.008 0.0113,-0.0184 0.13953,-0.0391 0.28458,-0.0463 0.14505,-0.007 0.28264,-0.0278 0.30592,-0.0458 0.0233,-0.0181 0.0987,-0.048 0.16748,-0.0663 0.0688,-0.0183 0.15945,-0.0286 0.20152,-0.0231 0.0421,0.005 0.0998,-0.0229 0.1289,-0.0626 0.0371,-0.0508 0.11554,-0.0736 0.2637,-0.0767 0.13869,-0.003 0.23883,-0.0297 0.29276,-0.0785 0.0506,-0.0458 0.13599,-0.0704 0.22286,-0.0649 0.0775,0.005 0.21599,-0.0157 0.30772,-0.0454 0.0917,-0.0297 0.18474,-0.0702 0.20652,-0.0903 0.0218,-0.0202 0.0541,-0.0368 0.0717,-0.0368 0.0176,0 0.0193,0.0325 0.004,0.0726 -0.0258,0.0683 -0.023,0.0687 0.0431,0.003 0.0388,-0.0385 0.0708,-0.0895 0.0708,-0.11347 0,-0.029 0.0337,-0.0309 0.10076,-0.005 0.0728,0.0277 0.11434,0.0225 0.14841,-0.0186 0.0381,-0.046 0.0298,-0.0524 -0.044,-0.0331 -0.0667,0.0173 -0.0863,0.008 -0.0722,-0.0345 0.0107,-0.0321 0.0889,-0.0693 0.17384,-0.0831 0.0849,-0.0138 0.2056,-0.0728 0.26779,-0.13071 0.0622,-0.058 0.13204,-0.0981 0.15523,-0.0894 0.0232,0.009 0.0609,-0.0252 0.0835,-0.0753 0.0227,-0.0501 0.10113,-0.1206 0.17429,-0.15659 0.0792,-0.0389 0.16144,-0.12786 0.20334,-0.21967 0.0387,-0.0849 0.10083,-0.18795 0.13798,-0.22921 0.0371,-0.0413 0.0951,-0.13137 0.12844,-0.20016 0.0334,-0.0688 0.0878,-0.15806 0.12119,-0.19835 0.0333,-0.0403 0.0813,-0.1092 0.10621,-0.15341 0.0249,-0.0442 0.13819,-0.23642 0.2519,-0.4271 0.1137,-0.19068 0.29055,-0.46868 0.39306,-0.61773 0.10252,-0.14906 0.25082,-0.35078 0.32951,-0.44798 0.0834,-0.10307 0.13306,-0.2029 0.11892,-0.23965 -0.0148,-0.0389 -2.6e-4,-0.0631 0.0381,-0.0631 0.0342,0 0.0804,-0.0471 0.10212,-0.10439 0.0218,-0.0573 0.0653,-0.10394 0.0967,-0.10394 0.0315,0 0.11607,-0.0295 0.18792,-0.0654 0.0718,-0.0359 0.14178,-0.0831 0.15522,-0.10485 0.0148,-0.0238 0.22691,-0.0288 0.5324,-0.0132 0.36142,0.0185 0.65366,0.006 1.01306,-0.0413 0.27783,-0.0368 0.91561,-0.0864 1.41747,-0.11075 0.50186,-0.0243 1.1754,-0.0342 1.49644,-0.0218 0.32105,0.0124 0.94942,0.0327 1.39658,0.0454 0.44718,0.0127 1.07556,0.0407 1.3966,0.0622 0.32105,0.0215 0.89339,0.0594 1.27176,0.0844 0.37838,0.025 0.94132,0.0814 1.25089,0.12572 1.11169,0.14951 1.45897,0.0754 2.51404,0.21786 0.0108,0.088 0.0307,0.13007 0.059,0.12437 0.0286,-0.006 0.0522,0.0187 0.0522,0.0545 h 4.5e-4 c 0,0.0358 0.0173,0.0544 0.0386,0.0413 0.023,-0.0145 0.0217,-0.077 -0.004,-0.15886 -0.004,-0.0134 -0.009,-0.0279 -0.0132,-0.0427 0.22056,0.0318 0.54192,0.0944 0.83514,0.14842 0.0351,0.0165 0.082,0.0292 0.11619,0.0295 0.0106,9e-5 0.0203,-10e-4 0.0286,-0.004 0.14588,0.0277 0.22844,0.0363 0.39533,0.0704 0.86409,0.28885 1.60714,0.50921 2.36063,0.69852 0.009,0.0202 0.0291,0.0457 0.0522,0.0649 0.0315,0.0261 0.0855,0.0368 0.11982,0.0236 0.0343,-0.0132 0.0913,0.005 0.12709,0.0408 0.0358,0.0357 0.10408,0.0649 0.1516,0.0649 0.0474,0 0.0863,0.0257 0.0863,0.0572 0,0.0345 0.0701,0.0702 0.17701,0.0894 0.0975,0.0175 0.28055,0.0353 0.40668,0.0395 0.12612,0.004 0.27152,0.0214 0.32316,0.0386 0.0516,0.0172 0.094,0.0572 0.094,0.089 0,0.0317 0.0325,0.0771 0.0726,0.10076 0.0401,0.0237 0.10128,0.0385 0.13571,0.0327 0.0344,-0.006 0.0626,-0.053 0.0626,-0.10485 0,-0.0519 0.0259,-0.11053 0.0576,-0.13026 0.007,-0.004 0.0124,-0.009 0.0168,-0.0141 0.3323,0.053 0.71568,0.0977 1.09067,0.14388 -0.0113,0.013 -0.0186,0.0253 -0.0186,0.0349 0,0.0221 0.0376,0.0404 0.0835,0.0404 0.0457,0 0.0827,-0.019 0.0831,-0.0418 0,-0.005 0.003,-0.009 0.007,-0.0132 0.11853,0.0141 0.21433,0.0309 0.33815,0.0445 0.011,0.006 0.0225,0.0105 0.0327,0.0105 0.006,0 0.0118,-0.002 0.0168,-0.004 0.15401,0.0434 0.16075,0.0352 0.27551,0.0658 -0.0267,0.0307 -0.0444,0.0563 -0.0444,0.0667 0,0.017 0.0518,0.0496 0.11484,0.0726 0.0631,0.023 0.13002,0.0436 0.14886,0.0454 0.0188,0.002 0.0625,-0.0248 0.0967,-0.059 0.0134,-0.0134 0.0237,-0.0285 0.0308,-0.0436 0.0298,0.007 0.0727,0.018 0.1003,0.0241 -0.0187,0.005 -0.0327,0.0208 -0.0327,0.04 0,0.0229 0.008,0.0417 0.0182,0.0417 0.0101,0 0.0303,-0.0188 0.0445,-0.0417 0.008,-0.0129 0.009,-0.0246 0.004,-0.0322 0.4622,0.0992 0.78843,0.13721 2.14095,0.40895 0.23362,0.0469 0.58275,0.0501 0.96949,0.035 -0.002,9.6e-4 -0.004,0.002 -0.005,0.003 -0.0496,0.0314 -0.0502,0.0495 -0.005,0.10394 0.03,0.0361 0.0626,0.0654 0.0726,0.0654 0.01,0 0.007,-0.0173 -0.006,-0.0386 h 4.6e-4 c -0.0132,-0.0213 0.0171,-0.0448 0.0672,-0.0522 0.0502,-0.007 0.099,-0.0367 0.10847,-0.0653 0.003,-0.009 0.003,-0.0176 -8.8e-4,-0.0245 1.40375,-0.0832 3.26073,-0.409 3.26204,-0.34086 0.002,0.0917 -0.003,0.2287 -0.0109,0.30455 -0.008,0.0758 -0.002,0.14551 0.0136,0.15478 0.015,0.009 0.1288,-0.0712 0.2528,-0.17883 0.12401,-0.10759 0.33234,-0.29915 0.46296,-0.42574 0.13062,-0.12659 0.32628,-0.30497 0.43482,-0.39669 0.10853,-0.0917 0.34016,-0.30776 0.5147,-0.47975 0.23787,-0.2344 0.36064,-0.39834 0.49065,-0.65541 0.0954,-0.18861 0.21104,-0.47008 0.25689,-0.62544 0.0459,-0.15536 0.14997,-0.62967 0.23147,-1.05391 0.0815,-0.42424 0.16528,-0.84644 0.1861,-0.93817 0.0208,-0.0917 0.0618,-0.35013 0.0908,-0.57416 0.0427,-0.32974 0.0425,-0.48445 -8.7e-4,-0.81289 -0.0398,-0.30086 -0.0919,-0.48661 -0.20153,-0.7185 -0.0813,-0.17199 -0.2059,-0.38756 -0.27686,-0.47929 -0.071,-0.0917 -0.14301,-0.17301 -0.16023,-0.18065 -0.0172,-0.008 -0.0314,-0.0335 -0.0314,-0.0572 0,-0.0237 -0.10614,-0.18627 -0.23601,-0.36129 -0.12987,-0.17503 -0.32238,-0.43542 -0.42756,-0.5787 -0.10518,-0.14328 -0.30786,-0.41533 -0.4507,-0.60457 -0.14284,-0.18923 -0.27438,-0.36286 -0.2923,-0.38579 -0.0179,-0.0229 -0.0969,-0.12602 -0.17565,-0.22921 -0.0788,-0.1032 -0.17561,-0.21939 -0.21469,-0.25826 -0.0391,-0.0389 -0.15934,-0.18554 -0.26733,-0.32589 -0.12773,-0.16598 -0.21727,-0.2474 -0.25644,-0.23238 -0.0335,0.0127 -0.05,0.006 -0.0372,-0.0141 0.0124,-0.0206 0.0117,-0.0675 -0.003,-0.10394 -0.014,-0.0365 -0.0427,-0.0663 -0.0636,-0.0663 -0.0206,0 -0.0279,0.0518 -0.0155,0.11483 0.0125,0.0631 0.0225,0.29695 0.0222,0.52015 -2.7e-4,0.22868 0.0219,0.45649 0.0504,0.52151 0.0279,0.0635 0.0696,0.1294 0.0931,0.1466 0.0272,0.02 0.0204,0.0456 -0.0195,0.0713 -0.0221,0.0142 -0.17172,0.42194 -0.33133,0.86146 0.0896,-0.39559 0.14783,-0.75156 0.11983,-0.99037 -0.0351,-0.2991 -0.0352,-0.42445 0,-0.49019 0.034,-0.0634 0.0348,-0.11165 0.003,-0.17156 -0.0245,-0.0459 -0.0696,-0.0835 -0.10031,-0.0835 -0.0307,0 -0.0668,0.0539 -0.0798,0.11982 -0.0132,0.0659 -0.0555,0.13185 -0.094,0.14661 -0.11024,0.0423 -0.13471,-0.0863 -0.25463,-0.0245 -0.0415,0.0214 -0.0994,0.0303 -0.12799,0.02 -0.0287,-0.0103 -0.0523,0.007 -0.0526,0.0372 -5.3e-4,0.0417 -0.011,0.0396 -0.0413,-0.007 -0.0222,-0.0344 -0.0405,-0.0928 -0.0408,-0.13027 -3.6e-4,-0.0375 0.0414,-0.0815 0.093,-0.098 0.0516,-0.0165 0.14288,-0.0337 0.20243,-0.0377 0.0596,-0.004 0.14021,-0.0395 0.17974,-0.079 0.0395,-0.0395 0.10825,-0.0717 0.15251,-0.0717 0.0443,0 0.0804,-0.0269 0.0804,-0.0599 0,-0.033 -0.0188,-0.0721 -0.0417,-0.0862 -0.0229,-0.0142 -0.0417,-0.006 -0.0417,0.0186 0,0.0243 -0.015,0.044 -0.0335,0.044 -0.0185,0 -0.0646,-0.0701 -0.10258,-0.15613 -0.0536,-0.12155 -0.0948,-0.15846 -0.18518,-0.16567 -0.0639,-0.005 -0.16673,-0.01 -0.2283,-0.01 -0.0616,-4.2e-4 -0.12367,-0.0199 -0.13798,-0.0431 -0.0143,-0.0232 -0.0547,-0.0417 -0.0899,-0.0417 -0.0351,0 -0.11143,-0.0376 -0.16975,-0.0835 -0.0583,-0.0459 -0.16839,-0.0835 -0.24419,-0.0835 -0.0758,0 -0.14784,0.0162 -0.16022,0.0363 -0.0125,0.0202 -0.10266,0.0217 -0.20198,0.003 -0.0988,-0.0185 -0.25992,-0.0428 -0.35765,-0.054 -0.0977,-0.0112 -0.20463,-0.0432 -0.23783,-0.0708 -0.045,-0.0373 -0.0749,-0.0381 -0.11711,-0.003 -0.0316,0.0263 -0.11192,0.0359 -0.18245,0.0218 -0.0736,-0.0147 -0.13772,-0.006 -0.15432,0.0209 -0.0177,0.0286 0.01,0.0458 0.0735,0.0458 0.056,0 0.1558,0.0299 0.2215,0.0663 l 0.11937,0.0663 -0.11347,-0.025 c -0.0896,-0.0197 -0.12711,-0.004 -0.17928,0.0758 -0.0363,0.0554 -0.11398,0.11241 -0.17248,0.12709 -0.0957,0.024 -0.10376,0.0415 -0.0794,0.17111 0.0206,0.10973 0.0127,0.14388 -0.0327,0.14388 -0.0328,0 -0.0904,0.0477 -0.12845,0.10575 -0.038,0.0581 -0.0879,0.094 -0.11075,0.0799 -0.0226,-0.0141 -0.0299,-0.0641 -0.015,-0.11075 0.0148,-0.0467 0.003,-0.1307 -0.0272,-0.18654 -0.0464,-0.0866 -0.0434,-0.12141 0.0191,-0.23738 0.0416,-0.0774 0.0652,-0.18867 0.0549,-0.25826 -0.0107,-0.0731 -0.0398,-0.11703 -0.0722,-0.10938 -0.0299,0.007 -0.14956,-0.01 -0.26597,-0.0368 -0.1164,-0.0273 -0.23725,-0.0703 -0.2687,-0.0953 -0.0314,-0.0251 -0.12515,-0.0479 -0.20832,-0.0513 -0.0832,-0.003 -0.25469,-0.0184 -0.38081,-0.0336 -0.12612,-0.0152 -0.263,-0.0382 -0.3041,-0.0508 -0.0517,-0.0159 -0.0667,-0.0478 -0.049,-0.10349 0.0221,-0.0698 0.007,-0.079 -0.11165,-0.0694 -0.0974,0.008 -0.13772,-0.007 -0.13844,-0.0499 -6e-4,-0.0353 -0.0622,-0.0742 -0.14706,-0.0926 -0.0803,-0.0174 -0.17369,-0.0219 -0.20742,-0.01 -0.054,0.0191 -0.054,0.0267 0,0.0608 0.0486,0.0307 0.0419,0.039 -0.0322,0.0395 -0.0516,3.5e-4 -0.094,-0.0137 -0.094,-0.0309 0,-0.0172 -0.0702,-0.0324 -0.15613,-0.034 -0.086,-0.002 -0.30673,-0.005 -0.49019,-0.008 -0.18345,-0.003 -0.62449,-0.003 -0.97993,-4.6e-4 -0.35544,0.002 -0.74316,-0.005 -0.86191,-0.0159 -0.11875,-0.0112 -0.24067,-0.04 -0.27097,-0.064 -0.0303,-0.0239 -0.11142,-0.0574 -0.18019,-0.0744 -0.0688,-0.0171 -0.22519,-0.0371 -0.34767,-0.0445 -0.12248,-0.007 -0.25382,-0.0415 -0.29185,-0.0758 -0.038,-0.0343 -0.13013,-0.0579 -0.2047,-0.0526 -0.0746,0.005 -0.13571,-10e-4 -0.13571,-0.015 0,-0.0135 -0.10262,-0.0263 -0.22829,-0.0281 -0.12569,-0.002 -0.25279,-0.022 -0.28186,-0.0449 -0.0292,-0.023 -0.18398,-0.0551 -0.3445,-0.0717 -0.16053,-0.0166 -0.3206,-0.0342 -0.35538,-0.039 -0.0348,-0.005 -0.0814,-0.0191 -0.10394,-0.0313 -0.0226,-0.0122 -0.10673,-0.019 -0.187,-0.0154 -0.0803,0.004 -0.20931,0.01 -0.28686,0.0136 -0.13812,0.007 -0.14061,0.0107 -0.11892,0.16385 0.0121,0.086 0.043,0.2032 0.0685,0.26052 0.0256,0.0573 0.0845,0.16736 0.13118,0.24464 0.0466,0.0773 0.0765,0.14901 0.0662,0.15932 -0.0103,0.0103 -0.058,-0.006 -0.10575,-0.0354 -0.0477,-0.0298 -0.11414,-0.12257 -0.14752,-0.20606 -0.0334,-0.0835 -0.11621,-0.23988 -0.18428,-0.34722 -0.0681,-0.10733 -0.1362,-0.17527 -0.15113,-0.15114 -0.0149,0.0241 -0.0918,0.044 -0.17066,0.044 -0.0997,0 -0.14343,-0.0192 -0.14343,-0.0626 0,-0.0344 -0.0188,-0.0626 -0.0417,-0.0626 -0.0229,0 -0.0417,0.0196 -0.0417,0.0436 0,0.029 -0.10127,0.0336 -0.30229,0.0141 -0.16626,-0.0162 -0.36191,-0.0262 -0.43481,-0.0227 -0.0969,0.005 -0.16606,-0.0272 -0.25735,-0.11846 -0.0762,-0.0762 -0.16812,-0.12482 -0.23602,-0.12482 -0.0611,0 -0.14216,0.0373 -0.18019,0.0831 -0.048,0.0576 -0.098,0.0753 -0.16295,0.0576 -0.0516,-0.014 -0.0942,-0.056 -0.0944,-0.0935 -2.8e-4,-0.042 -0.11594,-0.12849 -0.30228,-0.22558 -0.16601,-0.0865 -0.3235,-0.15663 -0.34994,-0.15613 -0.0264,5e-4 -0.0906,0.071 -0.14297,0.15704 -0.0725,0.11922 -0.0993,0.13915 -0.11166,0.0835 -0.009,-0.0401 -0.0525,-0.0731 -0.0967,-0.0731 -0.0442,0 -0.0804,-0.0211 -0.0804,-0.0468 0,-0.0256 -0.068,0.006 -0.15114,0.069 l -0.15114,0.11529 -0.14342,-0.16249 c -0.11053,-0.12499 -0.13967,-0.14214 -0.12527,-0.0735 0.0103,0.049 0.006,0.10954 -0.009,0.13435 -0.0167,0.027 -0.0897,0.035 -0.18246,0.02 -0.0851,-0.0138 -0.15478,-0.0413 -0.15478,-0.0613 0,-0.0199 -0.0188,-0.0363 -0.0417,-0.0363 -0.0229,0 -0.0413,0.0376 -0.0413,0.0835 0,0.0459 -0.0247,0.0835 -0.0544,0.0835 -0.0299,0 -0.0764,-0.0224 -0.10393,-0.0499 -0.0276,-0.0275 -0.0504,-0.0821 -0.0504,-0.12118 0,-0.0545 -0.0512,-0.0779 -0.21877,-0.0994 -0.12039,-0.0155 -0.32231,-0.0589 -0.44843,-0.0967 -0.12613,-0.0378 -0.25373,-0.10188 -0.28368,-0.14252 -0.03,-0.0406 -0.0751,-0.074 -0.10031,-0.074 -0.0252,0 -0.0136,0.0354 0.0258,0.079 0.0692,0.0764 0.0659,0.0804 -0.10031,0.10848 -0.13124,0.0222 -0.18436,0.0139 -0.22195,-0.0349 -0.0339,-0.044 -0.17361,-0.0757 -0.44661,-0.10167 -0.21852,-0.0208 -0.52375,-0.0316 -0.67856,-0.0236 -0.19899,0.0103 -0.2872,-6.8e-4 -0.30046,-0.0377 -0.0104,-0.0288 -0.0257,-0.16729 -0.0345,-0.30773 -0.009,-0.14043 -0.029,-0.27646 -0.045,-0.30228 -0.0172,-0.0279 -0.15326,-0.0468 -0.33496,-0.0468 -0.23335,0 -0.3117,0.0149 -0.32997,0.0626 -0.0132,0.0344 -0.0546,0.0626 -0.0926,0.0626 -0.0534,0 -0.0582,-0.0128 -0.0218,-0.0567 0.0383,-0.0462 0.007,-0.0617 -0.16976,-0.0826 -0.11918,-0.0142 -0.22643,-0.0159 -0.23828,-0.004 -0.0118,0.0118 0.0202,0.0325 0.0712,0.0458 0.0734,0.0192 0.0831,0.0363 0.0454,0.0817 -0.0262,0.0316 -0.0649,0.0572 -0.0862,0.0572 -0.0213,0 -0.0569,-0.0515 -0.079,-0.11483 -0.0229,-0.0657 -0.0946,-0.13925 -0.16657,-0.17111 -0.0694,-0.0307 -0.25193,-0.0723 -0.40577,-0.0921 -0.15385,-0.0198 -0.41375,-0.0365 -0.57733,-0.0372 -0.26147,-0.001 -0.29994,-0.0118 -0.31908,-0.0849 -0.0119,-0.0457 -0.0561,-0.0952 -0.0985,-0.1103 -0.0423,-0.0151 -0.10887,-0.055 -0.14796,-0.0885 -0.0255,-0.0218 -0.0545,-0.0349 -0.0912,-0.0399 z m 20.87846,36.29038 c 0.20705,0.002 0.2264,-6.8e-4 0.50834,8.8e-4 0.006,-0.008 0.007,-0.0259 0.015,-0.0259 0.0156,0.009 0.0336,0.0166 0.0495,0.0259 0.23024,8.8e-4 0.11538,1.2e-4 0.40032,8.8e-4 1.15499,0.004 -1.13565,-0.0796 -0.99717,-0.0699 -0.0138,0.0213 -0.005,0.0472 0.0241,0.0681 z m -0.0241,-0.0681 c 0.003,-0.004 3.1e-4,-0.0133 0.004,-0.0159 0.026,-0.0161 0.0472,-0.0483 0.0472,-0.0717 0,-0.0234 -0.0482,0.0153 -0.10756,0.0858 -0.0107,-5.5e-4 0.0605,0.002 0.0559,0.002 z m -0.68445,-33.38012 c -0.004,4e-4 -0.007,0.002 -0.01,0.004 -0.0133,0.0133 0.004,0.0417 0.0372,0.0631 0.0337,0.0213 0.0679,0.0391 0.0767,0.0395 0.009,3.6e-4 -0.008,-0.0281 -0.0372,-0.0631 -0.0235,-0.0284 -0.0507,-0.0453 -0.0672,-0.0436 z m 0.003,7.27115 c -0.10262,0.28881 -0.24724,0.70441 -0.30137,0.84558 -0.0109,-0.004 -0.021,-0.007 -0.0318,-0.0109 0.0841,-0.21501 0.21003,-0.5337 0.33315,-0.83468 z m -0.38398,0.96767 c 0.0116,0.004 0.0235,0.008 0.035,0.0118 -0.0244,0.0614 -0.15874,0.45768 -0.16385,0.46024 -0.0505,0.0252 0.0184,-0.181 0.1289,-0.47204 z m -4.67859,2.59165 c 0.0449,0.0115 0.0827,0.0193 0.12255,0.029 -0.007,0.0267 -0.0315,0.0463 -0.0603,0.0463 -0.0329,0 -0.0593,-0.0327 -0.0622,-0.0753 z m 1.27722,0.33088 c -0.0114,7.8e-4 -0.0236,0.004 -0.035,0.008 -0.0333,0.0133 -0.0232,0.023 0.0254,0.025 0.0439,0.002 0.0683,-0.008 0.0545,-0.0218 -0.009,-0.009 -0.0258,-0.0126 -0.045,-0.0113 z m 3.28518,0.13389 c -0.0112,10e-4 -0.0182,0.0102 -0.0182,0.0254 0,0.0243 0.0188,0.044 0.0417,0.044 0.0229,0 0.0413,-0.009 0.0413,-0.0186 0,-0.0101 -0.0184,-0.0299 -0.0413,-0.044 -0.009,-0.005 -0.017,-0.007 -0.0236,-0.007 z m 0.5324,0.19472 c -0.0595,0.002 -0.0522,0.0124 0.0118,0.0831 0.0414,0.0457 0.13364,0.10039 0.20469,0.12164 0.0711,0.0213 0.23027,0.0767 0.35358,0.12345 0.12329,0.0468 0.23407,0.0952 0.24645,0.10757 0.0123,0.0124 0.0428,0.0214 0.0676,0.02 0.0249,-0.001 -0.0394,-0.0433 -0.14252,-0.0935 -0.1032,-0.0502 -0.19682,-0.10181 -0.20833,-0.11438 -0.0114,-0.0126 -0.10877,-0.0733 -0.21605,-0.13526 -0.10727,-0.062 -0.23673,-0.11256 -0.28776,-0.11256 -0.0112,0 -0.021,-2.2e-4 -0.0295,0 z m -0.55646,0.25009 c -0.0464,0.003 -0.0651,0.0268 -0.0563,0.0726 0.008,0.0401 0.0155,0.0778 0.0172,0.0835 0.002,0.006 0.055,0.009 0.118,0.007 0.0631,-0.002 0.0908,-0.0129 0.0622,-0.0245 -0.0286,-0.0116 -0.0522,-0.0474 -0.0522,-0.0799 0,-0.0325 -0.0356,-0.059 -0.0794,-0.059 -0.004,0 -0.006,-1.9e-4 -0.01,0 z m 0.87236,0.3336 c -0.0196,0.002 -0.025,0.0198 -0.0118,0.0413 0.0141,0.0229 0.0443,0.0418 0.0672,0.0418 0.0229,0 0.0305,-0.0188 0.0163,-0.0418 -0.0141,-0.0229 -0.0447,-0.0413 -0.0676,-0.0413 -0.002,0 -0.003,-1.5e-4 -0.004,0 z m -29.51488,0.81471 c -0.01,5.9e-4 -0.0215,0.003 -0.0345,0.006 -0.047,0.0123 -0.0741,0.0397 -0.0608,0.0613 0.0134,0.0216 0.0448,0.0324 0.0699,0.0241 0.0251,-0.008 0.052,-0.0363 0.0608,-0.0617 0.007,-0.0211 -0.006,-0.0317 -0.0354,-0.03 z m 0.48383,0.0608 c -0.0229,-1.3e-4 -0.14034,0.0372 -0.26098,0.0831 -0.12063,0.0459 -0.26134,0.0841 -0.31272,0.0844 -0.0514,3.5e-4 -0.12125,0.0186 -0.15568,0.0409 -0.0503,0.0325 -0.044,0.0403 0.0335,0.0408 0.0531,3.5e-4 0.19376,-0.0311 0.31272,-0.0699 0.11897,-0.0388 0.26354,-0.095 0.3209,-0.12481 0.0573,-0.0298 0.0851,-0.0543 0.0622,-0.0545 z m -1.18553,0.0831 c -0.0216,0 -0.0508,0.0188 -0.0649,0.0417 -0.0141,0.0229 0.004,0.0418 0.039,0.0418 0.0358,0 0.0649,-0.0188 0.0649,-0.0418 0,-0.0229 -0.0174,-0.0417 -0.039,-0.0417 z m 0.29593,0.14615 c -0.01,5.5e-4 -0.0196,0.003 -0.0291,0.006 -0.0336,0.0129 -0.0608,0.0309 -0.0608,0.0399 0,0.009 0.0386,0.0163 0.0858,0.0163 0.0472,0 0.0748,-0.018 0.0613,-0.0399 -0.01,-0.0158 -0.0327,-0.0241 -0.0572,-0.0227 z m -0.29094,0.0654 c -0.0683,0.003 -0.16228,0.0286 -0.21605,0.059 -0.10042,0.0569 -0.098,0.0581 0.0626,0.0345 0.0917,-0.0135 0.19477,-0.0399 0.2292,-0.059 0.0444,-0.0247 0.0263,-0.0346 -0.0626,-0.0345 -0.004,1e-5 -0.009,-2.1e-4 -0.0132,0 z m -1.26178,0.12754 c -0.0177,3.4e-4 -0.0351,0.003 -0.0486,0.009 -0.0287,0.0116 -0.005,0.0213 0.0522,0.0213 0.0574,0 0.0804,-0.01 0.0517,-0.0213 -0.0153,-0.006 -0.0353,-0.009 -0.0553,-0.009 z m 0.78067,0.0132 c -0.0149,3.5e-4 -0.0377,0.002 -0.0685,0.005 -0.12613,0.013 -0.3572,0.0463 -0.51334,0.074 -0.15614,0.0276 -0.27032,0.0637 -0.25372,0.0803 0.0167,0.0166 0.0505,0.0292 0.0754,0.0277 0.0249,-0.001 0.24214,-0.0487 0.48293,-0.1044 0.2553,-0.059 0.34206,-0.0846 0.27732,-0.0831 z m -1.09385,0.20833 c -0.0178,8.8e-4 -0.0403,0.004 -0.0672,0.009 -0.0756,0.0144 -0.14565,0.0331 -0.15523,0.0413 -0.01,0.008 0.0414,0.0145 0.11257,0.0145 0.0712,0 0.1408,-0.0183 0.15477,-0.0409 0.0109,-0.0176 -0.005,-0.026 -0.045,-0.024 z m -0.28004,0.0327 c -0.006,-3.8e-4 -0.0158,0.004 -0.0286,0.0113 -0.0287,0.0178 -0.1484,0.0556 -0.26597,0.0844 -0.19237,0.0471 -0.19937,0.0527 -0.0681,0.0531 0.0803,2.6e-4 0.19177,-0.0126 0.24736,-0.0281 0.0556,-0.0155 0.10947,-0.0537 0.11983,-0.0849 0.008,-0.0231 0.006,-0.0352 -0.004,-0.0358 z m -0.64588,0.16249 c -0.0386,6e-4 -0.0907,0.004 -0.14977,0.0109 -0.13497,0.0152 -0.26364,0.0389 -0.28595,0.0526 -0.0245,0.0151 -0.0203,0.0378 0.0104,0.0567 0.028,0.0173 0.14476,0.007 0.25918,-0.0236 0.11441,-0.0302 0.2198,-0.0679 0.23465,-0.084 0.009,-0.009 -0.0189,-0.0135 -0.0685,-0.0127 z m -0.63769,0.16703 c -0.0175,3.3e-4 -0.0352,0.003 -0.0486,0.009 -0.0282,0.0115 -0.005,0.0213 0.0522,0.0213 0.0574,0 0.0808,-0.01 0.0522,-0.0213 -0.0153,-0.006 -0.0357,-0.009 -0.0559,-0.009 z m -0.21559,0.0399 c -0.0556,9.7e-4 -0.12386,0.0173 -0.15614,0.0381 -0.0516,0.0334 -0.048,0.0401 0.0209,0.0381 0.0458,-0.001 0.12118,-0.0184 0.16703,-0.0381 0.0764,-0.0329 0.0746,-0.036 -0.0209,-0.0381 -0.004,-8e-5 -0.007,-6e-5 -0.0109,0 z m -0.29321,0.0944 c -0.0202,5.6e-4 -0.051,0.004 -0.0921,0.0109 -0.0917,0.0149 -0.19478,0.0445 -0.22921,0.0658 -0.0411,0.0255 -0.005,0.0292 0.10439,0.0113 0.0917,-0.0149 0.19478,-0.044 0.22921,-0.0653 0.0257,-0.0159 0.0214,-0.0236 -0.0122,-0.0227 z m -1.51097,0.36129 c -0.0576,0.002 -0.10303,0.0198 -0.10303,0.0413 0,0.0229 0.0235,0.0412 0.0522,0.0408 0.0286,-3.5e-4 0.0804,-0.0186 0.11483,-0.0408 0.0487,-0.0315 0.0371,-0.0408 -0.0522,-0.0413 -0.004,-2e-5 -0.008,-1.2e-4 -0.0118,0 z m -0.64632,0.21877 c -0.0352,0.001 -0.0953,0.0118 -0.15932,0.029 -0.0931,0.0251 -0.18235,0.0667 -0.19834,0.0926 -0.0159,0.0259 -0.0121,0.0367 0.009,0.0241 0.0207,-0.0127 0.11945,-0.045 0.21922,-0.0717 0.0998,-0.0268 0.17219,-0.058 0.16068,-0.0694 -0.004,-0.004 -0.0148,-0.005 -0.0308,-0.005 z m -1.52685,0.40622 c -0.0315,0.002 -0.0563,0.0203 -0.0563,0.0418 0,0.0229 0.0282,0.0413 0.0626,0.0413 0.0344,0 0.0626,-0.0184 0.0626,-0.0413 0,-0.0229 -0.0282,-0.0418 -0.0626,-0.0418 -0.002,0 -0.004,-1.4e-4 -0.006,0 z m -0.21605,0.11165 c -0.0149,4.5e-4 -0.0314,0.002 -0.0486,0.005 -0.0688,0.0101 -0.12527,0.0256 -0.12527,0.0345 0,0.009 0.0565,0.0159 0.12527,0.0159 0.0688,0 0.12526,-0.0155 0.12526,-0.0345 0,-0.0142 -0.0319,-0.0217 -0.0767,-0.0204 z m -0.66312,0.22241 c -0.0194,0.001 -0.061,0.0193 -0.0944,0.0408 -0.0539,0.0348 -0.0526,0.0408 0.008,0.0413 0.0387,3.5e-4 0.0821,-0.0184 0.0962,-0.0413 0.0142,-0.0229 0.0104,-0.0412 -0.008,-0.0408 -5.7e-4,1e-5 -8.8e-4,-5e-5 -0.002,0 z m -0.37445,0.12935 c -0.0473,0.002 -0.1246,0.0269 -0.17837,0.0576 -0.0596,0.0341 -0.0776,0.0592 -0.0417,0.059 0.0344,-2.2e-4 0.11868,-0.0262 0.18745,-0.0576 0.0969,-0.0443 0.10631,-0.0575 0.0417,-0.059 -0.003,-6e-5 -0.006,-1.4e-4 -0.009,0 z m -1.18599,0.37173 c -0.007,0.001 -0.0198,0.0102 -0.0386,0.0254 -0.0324,0.0262 -0.0962,0.0576 -0.14206,0.0699 -0.0524,0.0141 -0.038,0.0196 0.0386,0.015 0.067,-0.004 0.13082,-0.0355 0.14206,-0.0699 0.01,-0.0292 0.0105,-0.0425 0,-0.0404 z m -41.870836,0.0495 c -0.0072,7.2e-4 -0.01718,0.008 -0.02996,0.0204 -0.0255,0.0255 -0.03356,0.0668 -0.01815,0.0917 0.01541,0.0249 0.08324,0.0454 0.150688,0.0454 0.06744,0 0.122548,-0.0188 0.122548,-0.0422 0,-0.0245 -0.04429,-0.0314 -0.104393,-0.0163 -0.0824,0.0207 -0.103938,0.0101 -0.103938,-0.0495 0,-0.0346 -0.0048,-0.0507 -0.01679,-0.0495 z m 41.446916,0.16068 c -0.0118,0.002 -0.0346,0.008 -0.0695,0.0181 -0.0573,0.0164 -0.12209,0.0464 -0.14387,0.0667 -0.0243,0.0227 -0.0162,0.0367 0.0209,0.0358 0.0333,-7.3e-4 0.098,-0.0307 0.14388,-0.0667 0.0532,-0.0418 0.071,-0.057 0.0486,-0.054 z m -1.08205,0.3926 c -0.0238,4.8e-4 -0.0495,0.002 -0.0772,0.004 -0.14095,0.009 -0.26798,0.0284 -0.28186,0.0436 -0.014,0.0149 0.0249,0.0178 0.0858,0.007 0.0805,-0.0147 0.10468,-0.004 0.089,0.0363 v 4.5e-4 c -0.0118,0.0308 -0.002,0.0559 0.0222,0.0559 0.0241,0 0.0558,-0.0188 0.0699,-0.0417 0.0141,-0.0229 0.0702,-0.0417 0.12483,-0.0417 0.0546,0 0.11009,-0.0168 0.123,-0.0377 0.011,-0.0177 -0.0524,-0.0275 -0.15568,-0.0254 z m -0.65494,0.14616 c -0.0223,0.002 -0.0494,0.0203 -0.0626,0.0417 -0.0142,0.0229 -0.007,0.0417 0.0159,0.0417 0.0229,0 0.053,-0.0188 0.0672,-0.0417 0.0142,-0.0229 0.007,-0.0417 -0.0159,-0.0417 -0.002,0 -0.003,-1.5e-4 -0.004,0 z m 0.35221,0.003 c -0.047,-8.8e-4 -0.10577,0.0177 -0.13027,0.0423 -0.0245,0.0245 -0.0704,0.0501 -0.10212,0.0563 -0.0317,0.006 -0.11065,0.033 -0.1752,0.0595 -0.0646,0.0265 -0.14189,0.0481 -0.17202,0.0481 -0.03,0 -0.0787,0.0295 -0.10848,0.0653 -0.0343,0.0414 -0.0897,0.0563 -0.15114,0.0408 -0.0649,-0.0162 -0.0971,-0.006 -0.0971,0.0308 0,0.0304 -0.0513,0.0758 -0.11437,0.10077 -0.0633,0.0249 -0.0939,0.0468 -0.0681,0.0494 0.0258,0.003 0.15314,-0.0425 0.28277,-0.0999 0.12963,-0.0573 0.25259,-0.10394 0.27323,-0.10394 0.0206,0 0.17475,-0.0648 0.34268,-0.14388 0.16797,-0.0791 0.26712,-0.14482 0.22014,-0.1457 z m -44.576422,0.10258 c -0.01566,0.002 -0.02757,0.009 -0.03631,0.0236 -0.01526,0.0247 0.01508,0.0907 0.06763,0.1466 0.05255,0.0559 0.111315,0.0856 0.130717,0.0662 0.01941,-0.0194 0.02308,-0.0673 0.0082,-0.10621 -0.01491,-0.0388 -0.06125,-0.0888 -0.10303,-0.1112 -0.02712,-0.0144 -0.04942,-0.0207 -0.06717,-0.0191 z m -2.849456,0.27142 c -0.05136,8.7e-4 -0.04965,0.009 4.54e-4,0.0408 0.03439,0.0222 0.06737,0.0409 0.07308,0.0413 0.0058,3.5e-4 0.01044,-0.0184 0.01044,-0.0413 0,-0.0229 -0.03295,-0.0412 -0.07308,-0.0408 -0.0039,3e-5 -0.0075,-8e-5 -0.01089,0 z m 3.778547,0.12436 c -0.03308,0.002 -0.07011,0.0308 -0.08351,0.0658 -0.01754,0.0459 -0.0039,0.0611 0.04448,0.0517 0.03815,-0.008 0.07714,-0.0367 0.08669,-0.0653 0.0095,-0.0286 -0.01062,-0.0522 -0.04448,-0.0522 -0.0011,0 -0.0021,-6e-5 -0.0032,0 z m 25.530721,2.45957 c -0.022,8.8e-4 -0.0395,0.0196 -0.0395,0.0418 0,0.0229 0.0188,0.0417 0.0418,0.0417 0.0229,0 0.0418,-0.0188 0.0418,-0.0417 0,-0.0229 -0.0188,-0.0418 -0.0418,-0.0418 -7.2e-4,0 -0.002,-3e-5 -0.002,0 z m -0.27959,0.18519 c -0.007,4.2e-4 -0.017,0.003 -0.0286,0.007 -0.0356,0.0136 -0.0649,0.0322 -0.0649,0.0413 0,0.009 0.0179,0.0163 0.0395,0.0163 0.0216,0 0.0504,-0.0182 0.0645,-0.0408 0.01,-0.0161 0.006,-0.0249 -0.0104,-0.0241 z m -0.85828,0.52876 c -0.0115,7.7e-4 -0.0237,0.004 -0.0349,0.008 -0.0333,0.0134 -0.0236,0.0236 0.025,0.0254 0.044,0.002 0.0688,-0.008 0.0549,-0.0218 -0.009,-0.009 -0.0258,-0.0131 -0.0449,-0.0118 z m -1.480558,1.12064 c -0.02211,0.002 -0.05049,0.031 -0.06399,0.0662 -0.01558,0.0407 -0.0064,0.0596 0.02406,0.0494 0.02725,-0.009 0.0572,-0.0391 0.06627,-0.0663 0.0091,-0.0272 -0.0021,-0.0495 -0.02451,-0.0495 -7e-4,0 -0.0011,-6e-5 -0.0018,0 z m 0.790658,0.50017 c -0.01776,0 -0.03222,0.0268 -0.03222,0.059 0,0.032 0.02493,0.0489 0.05538,0.0372 0.03044,-0.0117 0.04491,-0.038 0.03222,-0.0586 -0.01268,-0.0205 -0.03762,-0.0377 -0.05538,-0.0377 z m -2.007509,4.6e-4 c -0.0051,0.002 -0.02145,0.0136 -0.05038,0.0363 -0.04013,0.0314 -0.07308,0.0644 -0.07308,0.0731 0,0.009 0.0073,0.0159 0.01589,0.0159 0.0087,0 0.04161,-0.0329 0.07308,-0.0731 0.02917,-0.0371 0.04109,-0.0539 0.03449,-0.0522 z m 0.251903,0.12482 c -0.02293,0 -0.04175,0.0188 -0.04175,0.0417 0,0.0229 0.01882,0.0417 0.04175,0.0417 0.02293,0 0.04175,-0.0188 0.04175,-0.0417 0,-0.0229 -0.01882,-0.0417 -0.04175,-0.0417 z m -0.220132,0.13026 c -0.01229,4.7e-4 -0.02544,0.004 -0.03767,0.008 -0.03326,0.0134 -0.02361,0.0229 0.02496,0.0249 0.04395,0.002 0.06877,-0.008 0.05492,-0.0218 -0.0083,-0.008 -0.02425,-0.012 -0.04221,-0.0113 z m 1.741082,0.0921 c -0.01203,2.8e-4 -0.01997,0.009 -0.01997,0.0254 0,0.0242 0.01882,0.0444 0.04175,0.0444 0.02293,0 0.04175,-0.008 0.04175,-0.0186 0,-0.0101 -0.01882,-0.0298 -0.04175,-0.044 -0.0079,-0.005 -0.01548,-0.007 -0.02179,-0.007 z m -1.609456,0.084 c -0.01447,8.8e-4 -0.02614,0.004 -0.03223,0.0113 -0.01391,0.0151 -0.0029,0.0356 0.02451,0.0454 0.02738,0.01 0.03835,0.0475 0.02451,0.0835 -0.01697,0.0442 -0.0061,0.0591 0.03359,0.0458 0.03232,-0.0108 0.0644,-0.0487 0.07126,-0.084 0.0069,-0.0353 -0.0193,-0.0763 -0.0581,-0.0912 -0.02183,-0.009 -0.04494,-0.012 -0.06354,-0.0109 z m -0.455695,0.65268 c -0.02195,0.002 -0.03949,0.0303 -0.03949,0.0649 0,0.0358 0.01882,0.0537 0.04176,0.0395 0.02293,-0.0141 0.04175,-0.0437 0.04175,-0.0653 0,-0.0216 -0.01882,-0.039 -0.04175,-0.039 -7.17e-4,0 -0.0016,-5e-5 -0.0023,0 z m 1.450145,2.46003 c -0.01695,0.002 -0.03041,0.0184 -0.03041,0.0381 0,0.0211 0.02353,0.0479 0.0522,0.0595 0.02867,0.0116 0.08044,0.0223 0.114832,0.0232 0.0466,0.002 0.0417,-0.0139 -0.01861,-0.0595 -0.04452,-0.0336 -0.09628,-0.0613 -0.114832,-0.0613 -0.0011,0 -0.002,-1.4e-4 -0.0032,0 z m 0.285036,0.16748 c -0.02388,0.003 -0.01707,0.018 0.01816,0.0408 0.0344,0.0222 0.06823,0.0409 0.07534,0.0413 0.0071,3.5e-4 0.0015,-0.0183 -0.01271,-0.0413 -0.01418,-0.023 -0.04803,-0.0412 -0.07534,-0.0408 -0.0018,3e-5 -0.0039,-1.5e-4 -0.0054,0 z m 17.092646,2.48681 c -0.0135,8.7e-4 -0.0213,0.005 -0.0213,0.0127 0,0.0198 0.0513,0.0551 0.11438,0.0781 v 4.6e-4 c 0.0631,0.023 0.11912,0.0432 0.12527,0.045 0.006,0.002 0.0105,-0.0134 0.0105,-0.0341 0,-0.0207 -0.0565,-0.0573 -0.12528,-0.0812 -0.043,-0.0152 -0.081,-0.0226 -0.10348,-0.0209 z m 0.37445,0.14977 c -0.003,4.2e-4 -0.005,8.8e-4 -0.006,0.003 -0.011,0.011 0.0986,0.0581 0.24329,0.10484 0.14473,0.0467 0.26708,0.0862 0.27323,0.088 0.006,0.002 0.0104,-0.0121 0.0104,-0.0299 0,-0.0178 -0.11378,-0.0662 -0.25327,-0.10756 -0.1264,-0.0375 -0.23955,-0.0617 -0.26778,-0.0576 z m 2.56488,1.15694 c -0.0237,0.002 -0.0422,0.0203 -0.0422,0.0418 0,0.0229 -0.0413,0.0413 -0.0917,0.0413 -0.0724,0 -0.0812,0.011 -0.0409,0.0513 0.0403,0.0403 0.0684,0.0403 0.13299,0 0.045,-0.028 0.0934,-0.0513 0.10758,-0.0513 0.0143,0 0.016,0.0264 0.004,0.0586 -0.0123,0.032 -0.0124,0.0684 -4.5e-4,0.0808 0.0123,0.0119 0.0484,0.0119 0.0804,-4.6e-4 0.0322,-0.0123 0.0586,-0.0274 0.0586,-0.0327 0,-0.005 -0.0353,-0.0505 -0.0781,-0.0999 -0.0428,-0.0494 -0.0988,-0.0894 -0.12482,-0.0894 -0.002,0 -0.004,-1.4e-4 -0.005,0 z m 0.28458,0 c -0.021,0.002 -0.0273,0.0203 -0.014,0.0418 0.0142,0.0229 0.0339,0.0417 0.044,0.0417 0.0104,0 0.0186,-0.0188 0.0186,-0.0417 0,-0.0229 -0.0202,-0.0418 -0.0444,-0.0418 -0.002,0 -0.003,-1.4e-4 -0.004,0 z m 0.20924,0.0844 c -0.0365,0.004 -0.0234,0.0264 0.0431,0.0776 h 4.5e-4 c 0.0602,0.0465 0.13483,0.0675 0.18745,0.0531 0.0854,-0.0234 0.0852,-0.0247 0.004,-0.0404 -0.0458,-0.009 -0.10121,-0.0333 -0.123,-0.054 -0.0218,-0.0207 -0.0683,-0.0368 -0.10393,-0.0363 -0.003,5e-5 -0.006,-2.1e-4 -0.008,0 z m 0.39169,0.14297 c -8.8e-4,2.2e-4 -0.003,7e-4 -0.004,0.002 -0.007,0.007 0.0206,0.0531 0.0622,0.10168 0.0418,0.0492 0.082,0.0682 0.0908,0.0431 0.008,-0.0249 -0.0197,-0.0705 -0.0622,-0.10166 -0.0386,-0.0282 -0.0757,-0.0465 -0.0876,-0.0444 z m -0.10212,0.10621 c -0.0187,0.002 -0.0335,0.0185 -0.0335,0.0381 0,0.0211 0.0235,0.0474 0.0522,0.059 0.0286,0.0116 0.056,0.0228 0.0613,0.0245 0.005,0.002 -0.002,-0.025 -0.0149,-0.0595 -0.0132,-0.0344 -0.0409,-0.0622 -0.0613,-0.0622 -8.8e-4,0 -0.003,-1.3e-4 -0.004,0 z m 0.4153,0.0417 c -0.0397,0.002 -0.0803,0.0187 -0.0926,0.0386 -0.0132,0.0212 0.009,0.0471 0.0499,0.0576 0.0404,0.0105 0.0964,0.0214 0.12436,0.0241 0.0285,0.003 0.0404,-0.0227 0.0268,-0.0581 -0.0132,-0.0344 -0.0587,-0.0622 -0.10076,-0.0622 -0.003,0 -0.005,-1.3e-4 -0.008,0 z m 0.9527,0.33406 c -0.0156,0.002 -0.0178,0.0193 -0.004,0.0408 0.0142,0.0229 0.0575,0.0416 0.0962,0.0413 0.0607,-5.3e-4 0.0617,-0.006 0.008,-0.0413 -0.0344,-0.0223 -0.0777,-0.0405 -0.0962,-0.0408 -8.8e-4,-3e-5 -0.002,-1.3e-4 -0.004,0 z m 0.81289,0.30319 c -0.0293,8.8e-4 -0.0463,0.009 -0.0463,0.0236 0,0.0233 0.0517,0.0499 0.11484,0.0595 0.0631,0.009 0.15205,0.02 0.19789,0.0227 0.0663,0.004 0.0706,-0.003 0.0209,-0.0308 -0.0344,-0.0196 -0.12333,-0.0486 -0.19789,-0.0645 -0.0362,-0.008 -0.0666,-0.0112 -0.0894,-0.0104 z m -51.375981,0.0717 c -0.02096,0.002 -0.03767,0.0203 -0.03767,0.0418 0,0.0229 0.01882,0.0417 0.04175,0.0417 0.02293,0 0.04176,-0.0188 0.04176,-0.0417 0,-0.0229 -0.01882,-0.0418 -0.04176,-0.0418 -0.0014,0 -0.0027,-1.4e-4 -0.0041,0 z m 3.812588,0 c -0.03144,0.002 -0.05583,0.0203 -0.05583,0.0418 0,0.0229 0.02779,0.0417 0.06218,0.0417 0.0344,0 0.06263,-0.0188 0.06263,-0.0417 0,-0.0229 -0.02824,-0.0418 -0.06263,-0.0418 -0.0021,0 -0.0042,-1.4e-4 -0.0063,0 z m 48.135733,0.0831 c -0.021,0.002 -0.0273,0.0203 -0.014,0.0417 0.0142,0.0229 0.0339,0.0418 0.044,0.0418 0.0105,0 0.0186,-0.0189 0.0186,-0.0418 0,-0.0229 -0.0197,-0.0417 -0.044,-0.0417 -0.002,0 -0.004,-1.4e-4 -0.004,0 z m -52.342742,0.0168 c -0.01505,8.8e-4 -0.03003,0.01 -0.03903,0.0245 -0.0144,0.0233 0.0032,0.0423 0.03903,0.0423 0.03576,0 0.06491,-0.008 0.06491,-0.0182 0,-0.0101 -0.01723,-0.0291 -0.03858,-0.0422 -0.008,-0.005 -0.01729,-0.007 -0.02632,-0.006 z m 5.888178,0.0413 c -0.01122,0 -0.02829,0.009 -0.04856,0.0258 -0.0344,0.0285 -0.06263,0.0584 -0.06263,0.0663 0,0.008 0.02824,0.004 0.06263,-0.01 0.0344,-0.0132 0.06263,-0.043 0.06263,-0.0663 0,-0.0107 -0.0054,-0.0163 -0.01407,-0.0163 z m 46.741424,0.0254 c -0.0398,0.002 -0.0717,0.0303 -0.0717,0.0649 0,0.0355 0.0173,0.0546 0.0381,0.0418 0.0208,-0.0129 0.0816,-0.007 0.13525,0.0136 0.0538,0.0201 0.10705,0.0284 0.11846,0.0177 0.0114,-0.0106 -0.0154,-0.046 -0.0599,-0.0785 -0.0444,-0.0325 -0.11513,-0.0595 -0.15659,-0.0595 -8.8e-4,0 -0.003,-7e-5 -0.004,0 z m -51.57978,0.0545 c -0.0095,6.4e-4 -0.02434,0.0105 -0.04675,0.0291 -0.0344,0.0285 -0.06263,0.0588 -0.06263,0.0676 0,0.009 0.02824,0.0159 0.06263,0.0159 0.0344,0 0.06263,-0.0304 0.06263,-0.0676 0,-0.0312 -0.0036,-0.0458 -0.01589,-0.045 z m 0.641332,0.0291 c -0.04587,0 -0.08351,0.0209 -0.08351,0.0463 0,0.0256 -0.02824,0.0354 -0.06263,0.0222 -0.04331,-0.0167 -0.06263,0.003 -0.06263,0.0631 0,0.0763 0.0086,0.0801 0.06899,0.03 0.03792,-0.0315 0.103806,-0.051 0.146149,-0.044 0.04757,0.008 0.07716,-0.0118 0.07716,-0.0522 0,-0.0374 -0.0357,-0.0653 -0.08351,-0.0653 z m -4.565574,0.0163 c -0.01581,5.3e-4 -0.03185,0.01 -0.0413,0.025 -0.0144,0.0233 0.0028,0.0422 0.03858,0.0422 0.03576,0 0.06535,-0.008 0.06535,-0.0182 0,-0.0102 -0.01769,-0.0295 -0.03903,-0.0427 -0.0074,-0.004 -0.01532,-0.007 -0.0236,-0.006 z m 0.511976,0.0304 c -0.01307,1.7e-4 -0.02723,0.003 -0.04039,0.008 v 4.5e-4 c -0.03326,0.0134 -0.02315,0.0232 0.02542,0.0249 0.04396,0.002 0.06831,-0.008 0.05446,-0.0218 -0.0078,-0.008 -0.02269,-0.012 -0.03949,-0.0118 z m 55.405986,0.0417 c -0.0114,7.7e-4 -0.0232,0.004 -0.0345,0.008 -0.0333,0.0134 -0.0236,0.0236 0.0249,0.0254 0.0439,0.002 0.0688,-0.008 0.0549,-0.0218 -0.009,-0.009 -0.0263,-0.0131 -0.0454,-0.0118 z m 0.33042,0.079 c -0.0238,0.003 -0.017,0.0181 0.0182,0.0408 0.0344,0.0222 0.0683,0.0409 0.0754,0.0413 0.007,3.6e-4 8.8e-4,-0.0183 -0.0132,-0.0413 -0.0142,-0.023 -0.048,-0.0412 -0.0754,-0.0408 -0.002,3e-5 -0.004,-1.5e-4 -0.005,0 z m -45.208216,0.20833 c -0.03132,0.002 -0.04643,0.0203 -0.03313,0.0417 0.01418,0.0229 0.04378,0.0413 0.06536,0.0413 0.02158,0 0.03903,-0.0184 0.03903,-0.0413 0,-0.0229 -0.02916,-0.0417 -0.06491,-0.0417 -0.0022,0 -0.0043,-1.4e-4 -0.0063,0 z m 0.275504,0 c -0.02096,0.002 -0.03721,0.0203 -0.03721,0.0417 0,0.0229 0.01838,0.0413 0.0413,0.0413 0.02293,0 0.04175,-0.0184 0.04175,-0.0413 0,-0.0229 -0.01882,-0.0417 -0.04175,-0.0417 -0.0014,0 -0.0027,-1.4e-4 -0.0041,0 z m 0.639971,0 c -0.08344,5.3e-4 -0.09859,0.0111 -0.05583,0.0381 0.03232,0.0201 0.08409,0.0272 0.114832,0.0155 0.03074,-0.0119 0.05583,-0.0286 0.05583,-0.0377 0,-0.009 -0.05177,-0.0162 -0.114832,-0.0159 z m 0.979926,8.8e-4 -0.09395,8.7e-4 0.104392,0.0817 c 0.0573,0.0449 0.0795,0.0817 0.04948,0.0821 -0.03004,5.3e-4 -0.04277,0.0198 -0.0286,0.0427 0.01418,0.0229 0.04388,0.0417 0.06627,0.0417 0.02239,0 0.08736,-0.0301 0.14388,-0.0672 0.05653,-0.0371 0.102577,-0.0862 0.102577,-0.10938 0,-0.0241 -0.05235,-0.0318 -0.125271,-0.0172 -0.07055,0.0142 -0.124817,0.008 -0.124817,-0.0154 0,-0.0223 -0.04235,-0.0404 -0.09395,-0.04 z m 0.443894,0.0408 c -0.03267,0.002 -0.0581,0.0198 -0.0581,0.0413 0,0.0229 0.01745,0.0417 0.03903,0.0417 0.02158,0 0.05073,-0.0188 0.06491,-0.0417 0.01418,-0.0229 -0.0033,-0.0413 -0.03903,-0.0413 -0.0022,0 -0.0047,-1.4e-4 -0.0069,0 z m 43.747181,0.005 c -0.0164,1.1e-4 -0.0263,0.004 -0.0263,0.009 0,0.0134 0.0607,0.0416 0.13526,0.0631 v 4.5e-4 c 0.0745,0.0215 0.14404,0.0409 0.15432,0.0427 0.0104,0.002 8.7e-4,-0.0136 -0.0209,-0.035 -0.0218,-0.0213 -0.0913,-0.0512 -0.15432,-0.0667 -0.0355,-0.009 -0.067,-0.0138 -0.0881,-0.0136 z m 2.67652,0.70805 c -0.0164,6.3e-4 -0.0324,0.004 -0.045,0.009 -0.0287,0.0115 -0.005,0.0213 0.0522,0.0213 0.0573,0 0.0808,-0.01 0.0522,-0.0213 -0.0162,-0.006 -0.0383,-0.009 -0.0595,-0.009 z m 8.05365,3.68731 c -0.003,2.7e-4 -0.005,8.5e-4 -0.008,0.003 -0.0184,0.0113 -0.0335,0.0397 -0.0335,0.0626 0,0.023 0.0177,0.0309 0.039,0.0177 0.0213,-0.0132 0.0505,-0.005 0.0649,0.0182 0.0144,0.0234 0.0347,0.0427 0.045,0.0427 0.0104,0 -0.004,-0.0365 -0.0318,-0.0808 -0.0242,-0.0388 -0.0559,-0.0645 -0.0758,-0.0626 z m 0.27731,0.36628 c -0.009,0.003 0.004,0.0356 0.0363,0.0844 0.0393,0.0602 0.0793,0.10938 0.089,0.10938 0.01,0 -0.002,-0.0362 -0.0254,-0.0808 -0.0238,-0.0445 -0.0642,-0.0938 -0.0894,-0.10938 -0.004,-0.003 -0.008,-0.004 -0.0105,-0.004 z m 0.1575,0.251 c -0.004,7e-5 -0.006,0.002 -0.009,0.004 -0.0114,0.0114 0.004,0.0498 0.0331,0.0853 0.0294,0.0358 0.0631,0.0551 0.0745,0.0436 0.0114,-0.0114 -0.004,-0.0499 -0.0331,-0.0854 -0.0239,-0.0292 -0.0505,-0.0475 -0.0658,-0.0472 z"
     style="baseline-shift:baseline;display:inline;overflow:visible;vector-effect:none;stroke-width:0.878311;enable-background:accumulate;stop-color:#000000"
     id="path7014" /><g
     id="layer1"
     style="display:inline"
     transform="matrix(0.8783105,0,0,0.8783105,17.215869,36.9387)" /></svg>
