<?xml version="1.0" encoding="UTF-8" standalone="no"?>
<!-- Created with Inkscape (http://www.inkscape.org/) -->

<svg
   width="210mm"
   height="297mm"
   viewBox="0 0 210 297"
   version="1.1"
   id="svg1"
   xml:space="preserve"
   xmlns="http://www.w3.org/2000/svg"
   xmlns:svg="http://www.w3.org/2000/svg"><defs
     id="defs1" /><path
     style="display:inline;fill:#000000;stroke-width:0.264583"
     d="m 62.263715,138.75577 19.137712,0.55856 -0.293973,0.94071 -0.117589,0.79373 0.146986,0.94072 0.323372,0.67614 c 0,0 0.23518,0.35277 0.352769,0.41156 0.117588,0.0588 1.087704,0.70554 1.087704,0.70554 l 1.969627,1.35228 1.558063,0.99951 3.674676,1.02891 1.705049,-0.20578 3.52769,0.0588 3.645278,0.52915 19.137711,6.34984 4.05685,1.05831 6.29104,1.1465 c 0,0 3.76287,0.41156 5.96768,0.58795 2.2048,0.17638 4.29202,0.20578 4.82117,0.23517 0.52915,0.0294 1.76384,0.0294 2.64577,-0.0588 0.88192,-0.0882 7.8785,-1.20529 7.8785,-1.20529 l 12.58209,-1.94023 1.35229,-0.52916 3.3219,-4.82117 0.17639,-0.70554 -0.97012,-3.76287 -2.99853,-2.43998 -3.4101,0.17638 -10.70066,3.3513 -7.23176,0.55856 -5.52671,-0.17639 -2.17541,-3.29251 -0.94072,-0.64674 -5.49732,-0.99951 -5.02696,-1.32289 -4.23322,-1.44047 -9.43657,-3.4101 -0.97011,0.0882 -4.05685,2.05782 -9.289579,-4.82117 8.760429,-4.73299 4.40961,1.88144 1.20529,-0.0294 8.73104,-2.88095 3.43949,-1.64625 10.46548,-2.91034 1.82264,-0.58795 2.293,-3.67468 4.58599,-0.26457 8.76043,0.61734 3.85106,1.20529 6.29105,0.99952 3.90985,-0.0882 2.05782,-1.61685 0.88192,-3.73347 -0.0882,-0.91132 -0.23518,-0.64675 -0.49975,-0.70553 -2.38119,-2.93975 -12.5233,-1.55806 -9.28958,-1.85204 -3.20432,-0.0294 -6.37924,0.44096 -11.52378,2.2636 -11.25921,3.85106 -7.26116,2.52818 -5.467919,1.61685 -3.292509,0.35277 -2.645767,-0.29397 -2.322393,0.29397 -4.056843,1.94023 -3.233717,2.52818 -0.264575,1.26409 0.05879,0.99951 0.47036,0.94072 -3.968652,0.44096 -12.582091,0.52915 -3.586482,0.14699 -16.609539,5.6443 -0.0294,3.20432 3.821663,1.32288 13.522809,3.29251 z"
     id="path85" /></svg>
