<?xml version="1.0" encoding="UTF-8" standalone="no"?>
<!-- Created with Inkscape (http://www.inkscape.org/) -->

<svg
   width="210mm"
   height="297mm"
   viewBox="0 0 210 297"
   version="1.1"
   id="svg1"
   xml:space="preserve"
   sodipodi:docname="wrench_outline.svg"
   inkscape:version="1.4 (e7c3feb1, 2024-10-09)"
   xmlns:inkscape="http://www.inkscape.org/namespaces/inkscape"
   xmlns:sodipodi="http://sodipodi.sourceforge.net/DTD/sodipodi-0.dtd"
   xmlns="http://www.w3.org/2000/svg"
   xmlns:svg="http://www.w3.org/2000/svg"><sodipodi:namedview
     id="namedview1"
     pagecolor="#ffffff"
     bordercolor="#000000"
     borderopacity="0.25"
     inkscape:showpageshadow="2"
     inkscape:pageopacity="0.0"
     inkscape:pagecheckerboard="0"
     inkscape:deskcolor="#d1d1d1"
     inkscape:document-units="cm"
     inkscape:zoom="0.81581461"
     inkscape:cx="379.37541"
     inkscape:cy="221.86413"
     inkscape:window-width="1472"
     inkscape:window-height="891"
     inkscape:window-x="-1"
     inkscape:window-y="135"
     inkscape:window-maximized="0"
     inkscape:current-layer="layer2" /><defs
     id="defs1" /><g
     inkscape:groupmode="layer"
     id="layer2"
     inkscape:label="Layer 2"
     transform="matrix(1,0,0,-1,0,148.6602)"><path
       id="path111"
       style="baseline-shift:baseline;display:inline;overflow:visible;vector-effect:none;enable-background:accumulate;stop-color:#000000;stop-opacity:1"
       d="m 48.926729,62.201888 c -0.335784,0.0064 -0.605446,0.02204 -0.765844,0.04806 -0.368438,0.05978 -0.747426,0.242877 -0.890902,0.430982 l -0.110588,0.14521 -0.04754,2.0252 c -0.02624,1.113922 -0.05947,2.548735 -0.0739,3.188436 -0.03084,1.363383 -0.06409,1.527632 -0.349333,1.734261 -0.09995,0.0724 -0.289273,0.163318 -0.420646,0.201538 -0.131381,0.03819 -0.27368,0.107899 -0.31626,0.155029 -0.06817,0.07535 -0.171376,0.08855 -0.856278,0.110071 -0.644802,0.0203 -0.859058,0.04811 -0.749825,0.07493 l -4.880323,0.155029 -0.115238,0.134359 c -4.74e-4,1.23e-4 -0.0019,7.47e-4 -0.0026,0.001 -3.05e-4,1.5e-4 -8.41e-4,4.17e-4 -0.001,5.17e-4 -2.95e-4,1.41e-4 -0.0013,3.72e-4 -0.0016,5.17e-4 -5e-4,2.88e-4 -0.0012,8.4e-4 -0.0015,0.001 -3.16e-4,2.73e-4 -0.0013,0.0013 -0.0016,0.0016 -0.0012,0.0018 -0.0013,0.004 -5.17e-4,0.0057 l -0.145728,0.170016 c -0.07424,0.0092 -0.114163,0.04985 -0.136942,0.167948 -0.0068,0.03525 0.01987,0.03703 0.03617,0.04909 l -0.370003,0.924491 -0.0186,0.07596 c 0.02381,-0.105344 0.01885,-0.143972 0.0078,-0.144694 -8e-4,-5.1e-5 -0.0017,1.92e-4 -0.0026,5.17e-4 -0.0146,0.0055 -0.03628,0.06425 -0.02429,0.124024 -0.0046,0.01213 0.01171,0.0285 0.01344,0.04393 l -0.321427,1.332218 c 0,0 -0.203808,1.065628 -0.343648,2.087211 -0.03503,0.02037 -0.05204,0.108245 -0.02377,0.162264 -0.0505,0.38827 -0.09007,0.761241 -0.101285,1.057817 -0.0014,0.03598 5.34e-4,0.07201 -5.17e-4,0.108003 -0.0019,-0.0034 -0.004,-0.0052 -0.0062,-0.0052 -0.04076,7.2e-5 -0.11916,0.549971 0.0026,0.615466 0.0022,0.143376 0.0083,0.286588 0.01447,0.429948 -0.03162,0.172447 -0.07301,0.28972 0.02377,0.47904 0.01946,0.278878 0.04465,0.557514 0.07441,0.835608 -0.02015,-0.02735 -0.04552,-0.04074 -0.06821,-0.03979 -0.0835,0.0035 -0.0663,0.18035 -0.0124,0.18035 0.02507,0 0.04599,0.03061 0.04599,0.06821 0,0.0376 0.02041,0.06821 0.04547,0.06821 0.0077,0 0.01407,-0.0016 0.01964,-0.0047 0.0261,0.223928 0.0532,0.447776 0.0832,0.67076 0.0081,0.06029 0.01771,0.120588 0.02636,0.180868 0.0081,0.06786 0.01656,0.148375 0.01447,0.184485 -0.004,0.07012 0.01295,0.145294 0.04651,0.21084 0.02495,0.149197 0.05211,0.297765 0.08217,0.445967 -0.0078,0.0012 -0.01478,0.0012 -0.01809,-0.0015 0.0057,0.01925 0.02026,0.06537 0.04341,0.115238 0.03073,0.143955 0.06433,0.287104 0.101286,0.429431 -0.0073,0.03746 -0.02228,0.08355 0.0016,0.09405 0.0027,0.0012 0.02195,0.0283 0.03721,0.04754 0.02014,0.07263 0.03786,0.146025 0.05994,0.218074 0.182747,0.596087 0.715719,1.72806 0.715719,1.72806 l 0.04961,0.0739 0.676961,0.03772 c 0.387298,0.05712 0.814494,0.115596 0.979786,0.12144 0.740055,0.0252 1.581674,0.0557 1.87017,0.0677 0.288496,0.012 0.538451,0.0226 0.555521,0.02325 0.01708,6e-4 0.03738,0.04532 0.04548,0.09922 0.0207,0.13926 0.20464,0.258642 0.476456,0.309542 0.12862,0.0242 0.659099,0.05826 1.17874,0.07596 0.62144,0.0212 0.94843,0.04937 0.95653,0.08217 0.09418,0.3969 0.136972,0.455205 0.520382,0.714685 0.8876,0.60071 1.913315,0.95618 2.994649,1.03818 1.300785,0.09867 2.352205,-0.08929 3.42098,-0.611849 0.704897,-0.34465 0.979888,-0.543082 1.112077,-0.803052 l 0.108521,-0.213941 1.114143,-0.0041 c 1.02117,-0.0029 1.128566,-0.01067 1.292945,-0.09457 0.112224,-0.05725 0.189949,-0.133638 0.207739,-0.204638 l 0.02842,-0.113688 0.939478,-0.0036 1.443322,0.0708 c -0.107082,0.02726 -0.112137,0.04322 -0.112137,0.410828 0,0.24014 0.01941,0.396212 0.05219,0.416512 0.02883,0.0178 0.319531,0.04841 0.645955,0.06821 l 0.593762,0.03617 0.254765,0.24598 c 0.298503,0.28802 0.600262,0.482114 0.995805,0.641304 0.247218,0.0995 0.391255,0.138461 0.855762,0.229961 l 0.0026,-0.001 c 0.05018,0.0099 0.301762,0.02025 0.558622,0.02325 0.66251,0.0075 1.154682,-0.136072 1.861902,-0.542602 l 0.185518,-0.106454 0.214974,0.147795 c 0.264288,0.18183 0.610587,0.336229 0.942061,0.420129 0.364042,0.09215 3.080501,0.06903 3.50728,-0.02997 0.356452,-0.08267 0.678438,-0.260386 0.733288,-0.404626 0.02179,-0.05723 0.04668,-0.589897 0.05478,-1.183907 0.01279,-0.9216 0.0052,-1.086963 -0.05323,-1.123963 -0.03763,-0.024 -0.222677,-0.04379 -0.410828,-0.04444 -0.529467,-0.0019 -0.671693,-0.03622 -0.705383,-0.170532 -0.01605,-0.06273 -0.02154,-0.121191 -0.01344,-0.129191 0.0084,-0.0084 1.163875,-0.02724 2.567802,-0.04134 1.403918,-0.014 2.737347,-0.03578 2.963126,-0.04858 0.705623,-0.04013 1.545405,-0.160583 2.08101,-0.298173 0.09086,-0.0234 0.357988,-0.05595 0.593246,-0.07235 0.235259,-0.0164 0.468611,-0.05553 0.518831,-0.08733 0.05017,-0.03178 0.306584,-0.08125 0.569991,-0.109554 1.306496,-0.14056 1.649808,-0.179226 2.007113,-0.225826 1.066697,-0.13913 2.505844,-0.174439 8.255827,-0.204639 5.52386,-0.029 8.326204,-0.05175 11.585336,-0.09405 7.61114,-0.09891 7.94022,-0.09461 9.69347,0.138493 4.68039,0.622271 4.60859,1.67862 6.24768,1.5012 0.82821,-0.01192 0.8326,-0.01269 0.98495,-0.148828 0.12998,-0.11611 0.15066,-0.173749 0.22996,-0.650089 0.0478,-0.28741 0.0977,-0.557364 0.11111,-0.599964 0.001,1.77e-4 0.24659,0.131602 0.39997,1.073837 0.28562,0.07056 0.61614,0.07689 0.92243,0.09715 0.22219,0.0054 0.30896,0.03067 0.43356,0.125574 0.13555,0.10324 0.20265,0.11954 0.52038,0.12454 0.20069,0.0031 0.54633,-0.009 0.76791,-0.02635 0.39941,-0.03151 0.4037,-0.03287 0.51005,-0.195854 0.059,-0.09041 0.13066,-0.297893 0.15916,-0.460953 0.0937,-0.53661 0.13845,-0.673143 0.22015,-0.667143 0.15532,0.272296 0.32356,1.076125 0.32556,1.101225 0.004,0.0619 0.0335,0.02526 0.0941,0.0279 0.29228,0.01271 0.31387,0.0039 0.59479,-0.05374 0.24917,-0.07289 0.44434,0.01166 0.65319,0.185518 0.0265,0.02207 0.0888,0.03028 0.11938,0.06718 0.0469,0.0565 0.3172,0.0689 1.72702,0.0739 0.91947,0.0037 1.89755,0.01105 2.17351,0.01705 0.50314,0.0108 2.11465,0.02387 3.35225,0.02687 0.36375,0.001 0.68184,0.0032 0.70694,0.0052 0.0251,0.002 0.12806,-10e-5 0.22841,-0.0031 0.31248,-0.0095 1.13,-0.01844 1.34514,-0.01344 0.81342,0.0176 4.7823,0.01182 5.86114,-0.0083 2.49638,-0.04622 3.55849,-0.07257 4.06125,-0.100769 0.62882,0.0572 1.21752,-0.04356 1.85466,-0.06821 1.75545,-0.06509 2.13961,-0.08341 2.80138,-0.132809 0.3482,-0.0259 0.97204,-0.05511 1.38597,-0.06511 0.41393,-0.0097 0.78869,-0.03179 0.83199,-0.04909 0.0696,-0.0286 0.1811,-0.03384 0.51418,-0.02584 0.0502,0.0012 0.32647,-0.01843 0.61495,-0.04393 0.2885,-0.0255 0.70025,-0.04309 0.9126,-0.06511 0.81843,-0.019 1.60632,-0.124679 2.41743,-0.186035 0.21324,-0.0146 0.56842,-0.04628 0.78961,-0.07028 0.2212,-0.0241 0.4225,-0.03122 0.447,-0.01602 0.0244,0.0151 0.069,0.007 0.0992,-0.01809 0.065,-0.0538 0.49416,-0.08367 0.56586,-0.03927 0.0274,0.0169 0.12741,-0.0017 0.22221,-0.04134 0.12099,-0.051 0.25309,-0.06496 0.44235,-0.04806 0.1484,0.0132 0.32149,0.0046 0.38499,-0.01964 0.28258,-0.10743 2.17307,0.08375 3.66231,0.37052 0.29933,0.05764 1.46682,0.356676 1.57354,0.403076 0.0502,0.02178 0.35141,0.124333 0.66973,0.227893 l 0.57929,0.188102 0.70642,-0.0026 0.70642,-0.0031 c 0.31705,-0.06738 0.0874,-0.0071 0.32659,-0.0832 0.1063,0.02529 0.19393,-0.337355 0.25528,-0.465605 0.0346,-0.06658 0.0625,-0.15442 0.0625,-0.19482 0,-0.04037 0.0204,-0.108845 0.0455,-0.152445 0.0251,-0.04357 0.066,-0.135639 0.0904,-0.204639 0.066,-0.18614 0.13339,-0.152228 0.13539,0.06821 0.11073,0.326595 0.15429,0.547923 0.1757,0.609265 0.0556,0.159371 0.034,0.202705 0.10439,0.273368 0.2964,-0.02905 0.56291,0.0013 0.83561,0.113172 0.16806,0.0992 0.18872,0.100648 0.6134,0.04754 0.88789,-0.180688 0.92351,-0.03108 1.25883,-0.302824 0.0541,-0.04385 0.0554,-0.128102 0.0899,-0.188619 0.0487,-0.08543 0.10777,-0.164522 0.16433,-0.244946 0.0346,-0.04918 0.0751,-0.09421 0.10697,-0.145211 0.0264,-0.04236 0.0438,-0.09017 0.0698,-0.132808 0.0289,-0.0475 0.0626,-0.09163 0.0956,-0.136426 0.021,-0.02846 0.0365,-0.06283 0.0646,-0.08423 0.0253,-0.01926 0.0617,-0.0192 0.0889,-0.03566 0.0203,-0.01228 0.0383,-0.02847 0.0543,-0.04599 0.0281,-0.03077 0.0553,-0.06406 0.0718,-0.102319 0.2981,-0.691253 0.3829,-1.554425 0.45372,-2.212268 0.0856,-0.88053 0.0537,-3.05679 -0.0501,-3.42098 -0.086,-0.443981 -0.63311,-1.442449 -0.70538,-1.573547 -0.14095,-0.114271 -0.14547,-0.281315 -0.20619,-0.430982 0,-0.06122 -0.005,-0.111006 -0.0124,-0.139526 -0.0135,-0.05112 0.0718,-0.138672 -0.17001,-0.249597 -0.5044,-0.231379 -0.91945,-0.108752 -1.45934,0.09508 -0.0878,0.02803 -0.18134,0.07769 -0.20774,0.110588 -0.0267,0.0333 -0.17855,0.06933 -0.3421,0.08113 -0.16175,0.0116 -0.35211,0.04383 -0.42271,0.07183 -0.0706,0.0279 -0.16641,0.05116 -0.21291,0.05116 -0.0465,0 -0.11773,0.01241 -0.15813,0.02791 -0.0667,0.0253 -0.0661,0.03462 0.007,0.08992 0.0762,0.058 0.0764,0.06104 0.001,0.06305 -0.0474,9e-4 -0.0801,0.03655 -0.0801,0.08785 0,0.04748 -0.029,0.0975 -0.0646,0.111105 -0.0466,0.01781 -0.0574,0.07458 -0.0403,0.202571 0.0192,0.14279 0.009,0.177767 -0.0496,0.177767 -0.0459,0 -0.0734,-0.03897 -0.0734,-0.103869 0,-0.05706 -0.0219,-0.117342 -0.0486,-0.133842 -0.0318,-0.01963 -0.0214,-0.05999 0.03,-0.116789 0.0736,-0.0807 0.0741,-0.08682 0.002,-0.08682 -0.0423,0 -0.0894,-0.03568 -0.10439,-0.07958 -0.21263,-0.481331 -0.63757,-0.511801 -1.01389,-0.533301 -0.37389,-0.02141 -1.28607,0.0542 -1.62471,0.170016 -0.3574,0.1267 -0.74962,0.213607 -2.235,0.495577 -1.08259,0.20551 -2.6027,0.368692 -3.8995,0.24753 -0.2547,-0.0238 -0.49682,-0.122387 -0.74363,-0.189653 -0.13775,-0.03754 -0.27205,-0.08805 -0.41134,-0.119372 -0.096,-0.02159 -0.19367,-0.03605 -0.29146,-0.04703 -0.0376,-0.0042 -0.0952,-0.04055 -0.11317,-0.0072 -0.0121,0.02242 0.0458,0.03552 0.046,0.06098 5e-4,0.05341 -0.0413,0.120904 -0.094,0.129708 -0.055,0.0092 -0.0895,-0.06676 -0.13694,-0.09612 -0.0157,-0.0097 -0.0302,-0.02532 -0.0486,-0.02636 -0.0358,-0.002 -0.0645,0.0334 -0.0997,0.04031 -0.0267,0.0052 -0.0547,-0.0023 -0.0816,5.17e-4 0.007,-0.0055 0.006,-0.01335 -0.003,-0.02222 -0.009,-0.0089 -0.0209,-0.01347 -0.0326,-0.01292 -6.4e-4,3e-5 -0.001,-6.3e-5 -0.002,0 -6.2e-4,5.8e-5 -0.001,-8.8e-5 -0.002,0 -0.009,0.0013 -0.0174,0.0061 -0.0243,0.01292 -0.009,0.0089 -0.009,0.01676 -0.003,0.02222 -0.13116,0.006 -0.263,0.0077 -0.39429,0.0016 -0.32193,-0.01516 -0.6419,-0.05903 -0.96222,-0.09457 -0.2441,-0.02708 -0.70472,-0.06843 -0.73122,-0.09043 -0.0265,-0.022 -0.11929,-0.0394 -0.20619,-0.03876 -0.58228,0.004 -0.96572,-0.02211 -1.17719,-0.08061 -0.15332,-0.0424 -0.52606,-0.07375 -1.00355,-0.08475 -0.76827,-0.0176 -1.58969,-0.07775 -2.17351,-0.158646 -0.17561,-0.0243 -0.54518,-0.05523 -0.82114,-0.06873 -0.27594,-0.0136 -0.748,-0.04453 -1.04903,-0.06873 -0.30105,-0.0241 -0.91684,-0.06625 -1.3684,-0.09405 -0.45156,-0.0278 -0.83891,-0.06757 -0.86041,-0.08837 -0.0215,-0.0208 0.004,-0.0611 0.0574,-0.0894 0.0529,-0.0283 0.0961,-0.07142 0.0961,-0.09612 0,-0.06089 -0.21199,-0.007 -0.4191,0.106454 -0.18498,0.10139 -0.28947,0.100442 -2.02106,-0.01499 -0.94356,-0.0629 -1.14486,-0.0729 -2.18953,-0.108003 -0.45157,-0.0152 -0.90515,-0.03838 -1.00769,-0.05168 -0.17789,-0.0231 -1.28126,-0.05455 -2.96054,-0.08475 -0.75802,-0.01365 -1.3081,-0.02687 -5.17695,-0.122473 -1.0411,-0.0258 -2.38533,-0.05491 -2.98741,-0.06511 -0.60208,-0.0102 -1.75487,-0.03014 -2.5616,-0.04444 l -1.4671,-0.02635 -0.10025,0.141076 c -0.0552,0.07748 -0.11006,0.131273 -0.12196,0.119373 -0.0119,-0.0119 -0.0608,0.01753 -0.10903,0.06563 -0.41245,-0.04397 -0.0966,-0.0081 -0.48266,-0.04754 -0.12142,-0.01243 -0.11967,-0.01632 -0.30024,-0.01189 -0.29681,0.02831 -0.4532,0.128966 -0.4284,0.275436 -0.0399,0.154949 -0.0178,0.102154 -0.0527,0.363285 0.0426,0.0425 0.0232,0.0562 -0.0863,0.05478 -0.30451,-0.004 -0.39368,-0.107333 -0.42323,-0.343132 -0.0495,-0.394862 -0.2142,-0.722645 -0.31729,-0.679545 -0.0395,0.0164 -0.0922,0.02836 -0.11731,0.02635 -0.0251,-0.002 -0.30174,-0.0048 -0.61443,-0.0088 l -0.56844,-0.0052 -0.16433,0.163814 c -0.13622,0.13545 -0.19793,0.163814 -0.35554,0.163814 -0.10481,0 -0.19017,-0.02101 -0.19017,-0.04651 -0.32747,-0.112316 -0.5618,-0.04237 -0.90588,0.136943 -0.0975,0 -0.15542,0.131638 -0.15142,0.342098 0.002,0.09514 -0.0326,0.162475 -0.11213,0.221175 -0.0628,0.0464 -0.12529,0.07725 -0.13385,0.0646 -0.14851,-0.219603 -0.0789,-0.101208 -0.25734,-0.582394 -0.0721,-0.47333 -0.0935,-0.487516 -0.76895,-0.524516 -0.26174,-0.0143 -0.61655,-0.04803 -0.78858,-0.07493 -0.28673,-0.0448 -0.32342,-0.04137 -0.43873,0.04393 -0.0692,0.05115 -0.20533,0.127498 -0.30283,0.169498 -0.27555,0.1185 -1.2465,0.431498 -1.3379,0.431498 -0.0451,0 -0.21253,0.04255 -0.37259,0.09405 -0.30906,0.09939 -0.78475,0.200384 -1.27176,0.270784 -0.7969,0.11522 -1.2044,0.180026 -1.4242,0.225826 -0.82401,0.17166 -3.7123,0.226746 -6.23889,0.118856 -0.91565,-0.03909 -2.44347,-0.10161 -3.39515,-0.13901 -0.9517,-0.0374 -1.96764,-0.07782 -2.257739,-0.08992 -0.290094,-0.0121 -0.978752,-0.03374 -1.530656,-0.04754 -0.551904,-0.0139 -1.31145,-0.0443 -1.687752,-0.0677 -0.376302,-0.0234 -0.99209,-0.05326 -1.368392,-0.06666 -0.376302,-0.0133 -0.858538,-0.03463 -1.071769,-0.04703 -0.213239,-0.0124 -0.788254,-0.03448 -1.277442,-0.04858 -0.489186,-0.014 -0.991819,-0.03436 -1.117244,-0.04496 -0.125434,-0.0107 -0.546501,-0.02936 -0.935343,-0.04186 -0.388842,-0.0125 -1.055612,-0.04386 -1.482081,-0.06976 -0.42647,-0.0258 -1.062655,-0.05736 -1.413867,-0.06976 -2.189773,-0.07748 -3.093799,-0.11983 -3.375504,-0.15813 -0.175611,-0.024 -0.627255,-0.05655 -1.003557,-0.07235 -0.793628,-0.03333 -0.853452,-0.03697 -1.64176,-0.10697 -0.326124,-0.0289 -0.654908,-0.07103 -0.730188,-0.09353 -0.07527,-0.02251 -0.495808,-0.08533 -0.934827,-0.139527 -0.84711,-0.10456 -1.077121,-0.138476 -1.550809,-0.227376 -0.163062,-0.0306 -0.342552,-0.06225 -0.398942,-0.06925 -0.303525,-0.04023 -0.470023,-0.07969 -0.492993,-0.116789 -0.01416,-0.023 -0.104198,-0.04134 -0.199988,-0.04134 -0.0958,0 -0.196362,-0.0265 -0.223242,-0.05891 -0.0269,-0.03242 -0.124905,-0.0644 -0.218075,-0.0708 -0.09317,-0.0063 -0.191868,-0.02555 -0.219108,-0.04289 -0.02724,-0.01743 -0.100558,-0.03519 -0.163298,-0.03979 -0.23811,-0.01704 -0.666419,-0.09575 -0.786515,-0.144694 -0.110642,-0.04512 -0.801043,-0.166959 -1.19786,-0.266134 -0.323145,-0.08076 -0.638192,-0.192725 -0.962732,-0.267684 -0.132959,-0.03071 -0.267965,-0.05193 -0.402559,-0.07441 -0.109255,-0.01825 -0.220442,-0.02546 -0.328662,-0.04909 -0.04117,-0.009 -0.08135,-0.02216 -0.12144,-0.03514 -0.08201,-0.02655 -0.160232,-0.06467 -0.243396,-0.08733 -0.06327,-0.01724 -0.129016,-0.0236 -0.19327,-0.03669 -0.07618,-0.01552 -0.152649,-0.03005 -0.227893,-0.04961 -0.110966,-0.02884 -0.22385,-0.05445 -0.329178,-0.09974 -0.03388,-0.01457 -0.08703,-0.01904 -0.09612,-0.05478 -0.0085,-0.03359 0.06757,-0.05616 0.05478,-0.08837 -0.07553,-0.190157 -0.392479,-0.118147 -0.593245,-0.157613 -0.10021,-0.0197 -0.201916,-0.04543 -0.303858,-0.03927 -0.03974,0.0024 -0.07645,0.02308 -0.115755,0.02946 -0.04211,0.0068 -0.08546,0.0029 -0.127641,0.0093 -0.13671,0.02068 -0.265856,0.09175 -0.404109,0.09354 -0.110932,0.0014 -0.217751,-0.04272 -0.326078,-0.06666 -0.03855,-0.0085 -0.07658,-0.01934 -0.115239,-0.02739 -0.05825,-0.01214 -0.118783,-0.01417 -0.1757,-0.03152 -0.07002,-0.02134 -0.128654,-0.09935 -0.201021,-0.08837 -0.03271,0.005 -0.04918,0.04433 -0.07493,0.06511 -0.02528,0.0204 -0.04637,0.05113 -0.07803,0.05839 -1.122445,0.257388 -1.759303,-0.62653 -3.391525,-0.657841 -0.375611,-0.0028 -0.419201,-0.01288 -0.517281,-0.116272 -0.05895,-0.06215 -0.254194,-0.184952 -0.433565,-0.272852 -0.283202,-0.138724 -0.395095,-0.165835 -0.850594,-0.205155 -0.676239,-0.05839 -1.33703,-0.05805 -1.647445,5.17e-4 -0.23831,0.04497 -0.861418,0.312186 -0.861446,0.369486 -9e-6,0.02979 -2.033149,6.54e-4 -2.132169,-0.03049 -0.03144,-0.0099 -0.524379,-0.02771 -1.095024,-0.03979 -0.570647,-0.01208 -1.149958,-0.04402 -1.287777,-0.0708 -0.137811,-0.02683 -0.497201,-0.06957 -0.798401,-0.09509 -0.627843,-0.05325 -0.706933,-0.07116 -0.706933,-0.157613 0,-0.08656 -0.04713,-0.108491 -0.349333,-0.164331 -0.331953,-0.06136 -0.597647,-0.209675 -0.599447,-0.334863 -5.75e-4,-0.03243 -0.01883,-0.229871 -0.03256,-0.387574 l -0.02222,-0.72347 0.0036,-0.225309 c 2.7e-4,-0.04264 0.0069,-0.05993 0.0016,-0.104386 l 0.0052,-0.335897 c 0.01406,-0.101156 0.01696,-0.299291 0.01292,-0.68833 -0.0038,-0.376302 0.0073,-0.785524 0.02481,-0.909506 0.01091,-0.07689 -0.0035,-0.14205 -0.0093,-0.21549 l 0.001,-0.05994 -0.0026,-0.224792 c 0.0034,-0.0022 -0.0038,-0.01563 5.17e-4,-0.01705 0.06477,-0.02167 0.07026,-0.17663 0.0072,-0.21549 -0.0072,-0.0045 -0.0054,-0.02512 -0.01085,-0.03411 l -0.0026,-0.200504 c 0.0057,-0.01044 0.0039,-0.03278 0.01189,-0.03772 0.02447,-0.01484 0.03216,-0.05684 0.01809,-0.09353 -0.006,-0.01576 -0.02052,-0.0086 -0.03152,-0.01602 l -0.001,-0.09353 5.17e-4,5.16e-4 c 0.0049,0.0027 0.01002,0.0041 0.0155,0.0041 0.02507,0 0.04548,-0.03114 0.04548,-0.06873 0,-0.03768 -0.02041,-0.06821 -0.04548,-0.06821 -7.84e-4,0 -0.0018,-6e-5 -0.0026,0 -7.5e-4,5.7e-5 -0.0013,-1.12e-4 -0.0021,0 -0.0043,6.56e-4 -0.009,0.0028 -0.01292,0.0052 l -0.0047,-0.418062 0.02636,0.09353 c 0.02974,0.105262 0.03209,0.102448 0.03669,-0.03566 0.0028,-0.09163 -0.02075,-0.159227 -0.06098,-0.174667 -0.0012,-4.64e-4 -0.0024,-0.001 -0.0036,-0.0015 l -0.0078,-0.65164 -0.0088,-0.173116 c 0.0924,0.01437 0.105953,-0.05137 0.02584,-0.14056 -0.01189,-0.01326 -0.02444,-0.03226 -0.03566,-0.05374 l -0.02119,-0.425814 -0.04754,-0.308508 c 0.0041,-0.06608 -0.03225,-0.138118 -0.157613,-0.228927 -0.261601,-0.189504 -0.522245,-0.262288 -1.228349,-0.342098 -1.04045,-0.117572 -2.645198,-0.181385 -3.653524,-0.162264 z m 5.174878,2.205034 c -0.0095,8.66e-4 -0.01602,0.01475 -0.01602,0.03772 0,0.03312 0.01378,0.04668 0.03049,0.02997 0.01671,-0.0167 0.01671,-0.04375 0,-0.06046 -0.0052,-0.0052 -0.01016,-0.0076 -0.01447,-0.0072 z m 15.056446,7.107059 c -0.01145,0.0012 -0.02067,0.01099 -0.02067,0.02274 0,0.01253 0.01021,0.02274 0.02274,0.02274 0.01253,0 0.02274,-0.01022 0.02274,-0.02274 0,-0.01253 -0.01021,-0.02274 -0.02274,-0.02274 -7.83e-4,0 -0.0013,-7.8e-5 -0.0021,0 z m 3.560506,0.729672 c -0.01154,0.0024 -0.03143,0.0225 -0.04599,0.04599 h -5.17e-4 c -0.01543,0.02507 -0.0064,0.04548 0.02015,0.04548 0.02661,0 0.04858,-0.0204 0.04858,-0.04548 0,-0.02506 -0.0091,-0.04599 -0.02015,-0.04599 -6.92e-4,0 -0.0013,-1.6e-4 -0.0021,0 z m 77.765281,11.268562 c -0.0114,0.0012 -0.0207,0.01102 -0.0207,0.02274 0,0.0125 0.0102,0.02274 0.0227,0.02274 0.0125,0 0.0227,-0.01024 0.0227,-0.02274 0,-0.0125 -0.0102,-0.02274 -0.0227,-0.02274 -7.9e-4,0 -0.001,-7.8e-5 -0.002,0 z" /></g></svg>
