<?xml version="1.0" encoding="UTF-8" standalone="no"?>
<!-- Created with Inkscape (http://www.inkscape.org/) -->

<svg
   width="210mm"
   height="297mm"
   viewBox="0 0 210 297"
   version="1.1"
   id="svg1"
   xml:space="preserve"
   xmlns="http://www.w3.org/2000/svg"
   xmlns:svg="http://www.w3.org/2000/svg"><defs
     id="defs1" /><g
     id="layer2"><path
       id="path111"
       style="baseline-shift:baseline;display:inline;overflow:visible;vector-effect:none;enable-background:accumulate;stop-color:#000000;stop-opacity:1"
       d="M 48.926729 62.201888 C 48.590945 62.208288 48.321283 62.223927 48.160885 62.249947 C 47.792447 62.309727 47.413459 62.492824 47.269983 62.680929 L 47.159395 62.826139 L 47.111853 64.851339 C 47.085613 65.965261 47.052386 67.400074 47.037956 68.039775 C 47.007116 69.403158 46.973866 69.567407 46.688623 69.774036 C 46.588673 69.846436 46.39935 69.937354 46.267977 69.975574 C 46.136596 70.013764 45.994297 70.083473 45.951717 70.130603 C 45.883547 70.205953 45.780341 70.219153 45.095439 70.240674 C 44.450637 70.260974 44.236381 70.288785 44.345614 70.315605 L 39.465291 70.470634 L 39.350053 70.604993 C 39.349579 70.605116 39.348169 70.60574 39.347469 70.606026 C 39.347164 70.606176 39.346628 70.606443 39.346436 70.606543 C 39.346141 70.606684 39.345185 70.606915 39.344885 70.60706 C 39.344385 70.607348 39.343635 70.6079 39.343335 70.608093 C 39.343019 70.608366 39.342085 70.609344 39.341785 70.609644 C 39.340585 70.611444 39.340485 70.613628 39.341268 70.615328 L 39.19554 70.785344 C 39.1213 70.794544 39.081377 70.835194 39.058598 70.953292 C 39.051798 70.988542 39.078471 70.990325 39.094771 71.002385 L 38.724768 71.926876 L 38.706165 72.00284 C 38.729975 71.897496 38.725016 71.858868 38.713916 71.858146 C 38.713116 71.858095 38.712232 71.858338 38.711332 71.858663 C 38.696732 71.864163 38.675054 71.922913 38.687044 71.982687 C 38.682444 71.994817 38.69875 72.011182 38.70048 72.026612 L 38.379053 73.35883 C 38.379053 73.35883 38.175245 74.424458 38.035405 75.446041 C 38.000375 75.466411 37.983363 75.554286 38.011633 75.608305 C 37.961133 75.996575 37.921563 76.369546 37.910348 76.666122 C 37.908948 76.702102 37.910882 76.738132 37.909831 76.774125 C 37.907931 76.770725 37.90583 76.768958 37.90363 76.768958 C 37.86287 76.76903 37.78447 77.318929 37.906213 77.384424 C 37.908413 77.5278 37.914513 77.671012 37.920683 77.814372 C 37.889063 77.986819 37.847674 78.104092 37.944454 78.293412 C 37.963914 78.57229 37.989108 78.850926 38.018868 79.12902 C 37.998718 79.10167 37.973345 79.08828 37.950655 79.08923 C 37.867155 79.09273 37.884353 79.26958 37.938253 79.26958 C 37.963323 79.26958 37.984245 79.300193 37.984245 79.337793 C 37.984245 79.375393 38.00466 79.406006 38.02972 79.406006 C 38.03742 79.406006 38.043787 79.404455 38.049357 79.401355 C 38.075457 79.625283 38.102556 79.849131 38.132556 80.072115 C 38.140656 80.132405 38.150271 80.192703 38.158911 80.252983 C 38.167011 80.320843 38.175471 80.401358 38.173381 80.437468 C 38.169381 80.507588 38.186329 80.582762 38.219889 80.648308 C 38.244839 80.797505 38.271995 80.946073 38.302055 81.094275 C 38.294255 81.095475 38.287278 81.095525 38.283968 81.092725 C 38.289668 81.111975 38.304226 81.158095 38.327376 81.207963 C 38.358106 81.351918 38.391706 81.495067 38.428662 81.637394 C 38.421362 81.674854 38.406383 81.720946 38.430213 81.731446 C 38.432913 81.732646 38.45216 81.759748 38.46742 81.778988 C 38.48756 81.851618 38.505284 81.925013 38.527364 81.997062 C 38.710111 82.593149 39.243083 83.725122 39.243083 83.725122 L 39.292692 83.79902 L 39.969653 83.836743 C 40.356951 83.893863 40.784147 83.952339 40.949439 83.958183 C 41.689494 83.983383 42.531113 84.013879 42.819609 84.025879 C 43.108105 84.037879 43.35806 84.048484 43.37513 84.049134 C 43.39221 84.049734 43.412506 84.094452 43.420606 84.148352 C 43.441306 84.287612 43.625246 84.406994 43.897062 84.457894 C 44.025682 84.482094 44.556161 84.516158 45.075802 84.533858 C 45.697242 84.555058 46.024232 84.583224 46.032332 84.616024 C 46.126512 85.012924 46.169304 85.071229 46.552714 85.330709 C 47.440314 85.931419 48.466029 86.286889 49.547363 86.368889 C 50.848148 86.467559 51.899568 86.279599 52.968343 85.75704 C 53.67324 85.41239 53.948231 85.213958 54.08042 84.953988 L 54.188941 84.740047 L 55.303084 84.735913 C 56.324254 84.733013 56.43165 84.725245 56.596029 84.641345 C 56.708253 84.584095 56.785978 84.507707 56.803768 84.436707 L 56.83219 84.323019 L 57.771668 84.319401 L 59.21499 84.390198 C 59.107908 84.417458 59.102853 84.433418 59.102853 84.801026 C 59.102853 85.041166 59.122266 85.197238 59.155046 85.217538 C 59.183876 85.235338 59.474577 85.265951 59.801001 85.285751 L 60.394763 85.321924 L 60.649528 85.567904 C 60.948031 85.855924 61.24979 86.050018 61.645333 86.209208 C 61.892551 86.308708 62.036588 86.347669 62.501095 86.439169 L 62.503679 86.438135 C 62.553859 86.448035 62.805441 86.458389 63.062301 86.461389 C 63.724811 86.468889 64.216983 86.325317 64.924203 85.918787 L 65.109721 85.812333 L 65.324695 85.960128 C 65.588983 86.141958 65.935282 86.296357 66.266756 86.380257 C 66.630798 86.472407 69.347257 86.449285 69.774036 86.350285 C 70.130488 86.267615 70.452474 86.089899 70.507324 85.945659 C 70.529114 85.888429 70.554001 85.355762 70.562101 84.761752 C 70.574891 83.840152 70.567305 83.674789 70.508875 83.637789 C 70.471245 83.613789 70.286198 83.593997 70.098047 83.593347 C 69.56858 83.591447 69.426354 83.557127 69.392664 83.422815 C 69.376614 83.360085 69.371128 83.301624 69.379228 83.293624 C 69.387628 83.285224 70.543103 83.266383 71.94703 83.252283 C 73.350948 83.238283 74.684377 83.216507 74.910156 83.203707 C 75.615779 83.163577 76.455561 83.043124 76.991166 82.905534 C 77.082026 82.882134 77.349154 82.849587 77.584412 82.833187 C 77.819671 82.816787 78.053023 82.777654 78.103243 82.745854 C 78.153413 82.714074 78.409827 82.664604 78.673234 82.6363 C 79.97973 82.49574 80.323042 82.457074 80.680347 82.410474 C 81.747044 82.271344 83.186191 82.236035 88.936174 82.205835 C 94.460034 82.176835 97.262378 82.154084 100.52151 82.111784 C 108.13265 82.012874 108.46173 82.017174 110.21498 82.250277 C 114.89537 82.872548 114.82357 83.928897 116.46266 83.751477 C 117.29087 83.739557 117.29526 83.738787 117.44761 83.602649 C 117.57759 83.486539 117.59827 83.4289 117.67757 82.95256 C 117.72537 82.66515 117.77527 82.395196 117.78868 82.352596 C 117.78968 82.352773 118.03527 82.484198 118.18865 83.426433 C 118.47427 83.496993 118.80479 83.503324 119.11108 83.523584 C 119.33327 83.528984 119.42004 83.554254 119.54464 83.649158 C 119.68019 83.752398 119.74729 83.768698 120.06502 83.773698 C 120.26571 83.776798 120.61135 83.764693 120.83293 83.747343 C 121.23234 83.715833 121.23663 83.714473 121.34298 83.551489 C 121.40198 83.461079 121.47364 83.253596 121.50214 83.090536 C 121.59584 82.553926 121.64059 82.417393 121.72229 82.423393 C 121.87761 82.695689 122.04585 83.499518 122.04785 83.524618 C 122.05185 83.586518 122.0813 83.549883 122.1419 83.552523 C 122.43418 83.565233 122.45577 83.55642 122.73669 83.49878 C 122.98586 83.42589 123.18103 83.51044 123.38988 83.684298 C 123.41638 83.706368 123.47868 83.714577 123.50926 83.751477 C 123.55616 83.807977 123.82646 83.820375 125.23628 83.825375 C 126.15575 83.829075 127.13383 83.836428 127.40979 83.842428 C 127.91293 83.853228 129.52444 83.8663 130.76204 83.8693 C 131.12579 83.8703 131.44388 83.872467 131.46898 83.874467 C 131.49408 83.876467 131.59704 83.874367 131.69739 83.871367 C 132.00987 83.861867 132.82739 83.852931 133.04253 83.857931 C 133.85595 83.875531 137.82483 83.869752 138.90367 83.849662 C 141.40005 83.803442 142.46216 83.777092 142.96492 83.748893 C 143.59374 83.806093 144.18244 83.705331 144.81958 83.680681 C 146.57503 83.615591 146.95919 83.597271 147.62096 83.547872 C 147.96916 83.521972 148.593 83.49276 149.00693 83.48276 C 149.42086 83.47306 149.79562 83.450967 149.83892 83.433667 C 149.90852 83.405067 150.02002 83.399829 150.3531 83.407829 C 150.4033 83.409029 150.67957 83.389404 150.96805 83.363904 C 151.25655 83.338404 151.6683 83.320812 151.88065 83.298792 C 152.69908 83.279792 153.48697 83.174113 154.29808 83.112757 C 154.51132 83.098157 154.8665 83.066477 155.08769 83.042477 C 155.30889 83.018377 155.51019 83.011257 155.53469 83.026457 C 155.55909 83.041557 155.60371 83.03346 155.63391 83.00837 C 155.69891 82.95457 156.12807 82.924696 156.19977 82.969096 C 156.22717 82.985996 156.32718 82.967395 156.42198 82.927755 C 156.54297 82.876755 156.67507 82.862796 156.86433 82.879696 C 157.01273 82.892896 157.18582 82.884299 157.24932 82.860059 C 157.5319 82.752629 159.42239 82.943809 160.91163 83.230579 C 161.21096 83.288219 162.37845 83.587255 162.48517 83.633655 C 162.53537 83.655435 162.83658 83.757988 163.1549 83.861548 L 163.73419 84.04965 L 164.44061 84.047066 L 165.14703 84.043966 C 165.46408 83.976586 165.23443 84.036867 165.47362 83.960767 C 165.57992 83.986057 165.66755 83.623412 165.7289 83.495162 C 165.7635 83.428582 165.79143 83.340742 165.79143 83.300342 C 165.79143 83.259972 165.81181 83.191497 165.83691 83.147897 C 165.86201 83.104327 165.90294 83.012258 165.92734 82.943258 C 165.99334 82.757118 166.06073 82.79103 166.06273 83.011471 C 166.17346 83.338066 166.21702 83.559394 166.23843 83.620736 C 166.29403 83.780107 166.27243 83.823441 166.34282 83.894104 C 166.63922 83.865054 166.90573 83.895404 167.17843 84.007276 C 167.34649 84.106476 167.36715 84.107924 167.79183 84.054818 C 168.67972 83.87413 168.71534 84.023738 169.05066 83.751994 C 169.10476 83.708144 169.10608 83.623892 169.14058 83.563375 C 169.18928 83.477945 169.24835 83.398853 169.30491 83.318429 C 169.33951 83.269249 169.38001 83.224219 169.41188 83.173218 C 169.43828 83.130858 169.45565 83.083048 169.48165 83.04041 C 169.51055 82.99291 169.54425 82.94878 169.57725 82.903984 C 169.59825 82.875524 169.61374 82.841151 169.64184 82.819751 C 169.66714 82.800491 169.70353 82.800554 169.73073 82.784094 C 169.75103 82.771814 169.76899 82.755622 169.78499 82.738102 C 169.81309 82.707332 169.84032 82.674042 169.85682 82.635783 C 170.15492 81.94453 170.23972 81.081358 170.31054 80.423515 C 170.39614 79.542985 170.36421 77.366725 170.26041 77.002535 C 170.17441 76.558554 169.6273 75.560086 169.55503 75.428988 C 169.41408 75.314717 169.40956 75.147673 169.34884 74.998006 C 169.34884 74.936786 169.34383 74.887 169.33643 74.85848 C 169.32293 74.80736 169.40823 74.719808 169.16642 74.608883 C 168.66202 74.377504 168.24697 74.500131 167.70708 74.703967 C 167.61928 74.731997 167.52574 74.781657 167.49934 74.814555 C 167.47264 74.847855 167.32079 74.883887 167.15724 74.895687 C 166.99549 74.907287 166.80513 74.939517 166.73453 74.967517 C 166.66393 74.995417 166.56812 75.018677 166.52162 75.018677 C 166.47512 75.018677 166.40389 75.031082 166.36349 75.046582 C 166.29679 75.071882 166.29742 75.081199 166.37072 75.136499 C 166.44692 75.194499 166.44716 75.197534 166.37176 75.199544 C 166.32436 75.200444 166.29166 75.236094 166.29166 75.287394 C 166.29166 75.334874 166.26266 75.384894 166.22706 75.398499 C 166.18046 75.416309 166.16966 75.473079 166.18676 75.60107 C 166.20596 75.74386 166.19575 75.778837 166.13715 75.778837 C 166.09125 75.778837 166.06377 75.739867 166.06377 75.674968 C 166.06377 75.617908 166.04189 75.557626 166.01519 75.541126 C 165.98339 75.521496 165.99376 75.481136 166.04516 75.424337 C 166.11876 75.343637 166.11923 75.337521 166.04723 75.337521 C 166.00493 75.337521 165.95782 75.301839 165.94284 75.257939 C 165.73021 74.776608 165.30527 74.746138 164.92895 74.724638 C 164.55506 74.703228 163.64288 74.778838 163.30424 74.894654 C 162.94684 75.021354 162.55462 75.108261 161.06924 75.390231 C 159.98665 75.595741 158.46654 75.758923 157.16974 75.637761 C 156.91504 75.613961 156.67292 75.515374 156.42611 75.448108 C 156.28836 75.410568 156.15406 75.360058 156.01477 75.328736 C 155.91877 75.307146 155.8211 75.29269 155.72331 75.28171 C 155.68571 75.27751 155.62812 75.241165 155.61014 75.274475 C 155.59804 75.296895 155.65593 75.309993 155.65613 75.335453 C 155.65663 75.388863 155.61478 75.456357 155.56208 75.465161 C 155.50708 75.474361 155.47258 75.398403 155.42514 75.369043 C 155.40944 75.359343 155.39496 75.343728 155.37656 75.342688 C 155.34076 75.340688 155.31203 75.376086 155.27683 75.382996 C 155.25013 75.388196 155.22208 75.380696 155.19518 75.383513 C 155.20218 75.378013 155.20108 75.370162 155.19208 75.361292 C 155.18308 75.352392 155.17122 75.347823 155.15952 75.348373 C 155.15888 75.348403 155.15845 75.34831 155.15745 75.348373 C 155.15683 75.348431 155.15639 75.348285 155.15539 75.348373 C 155.14639 75.349673 155.138 75.354472 155.1311 75.361292 C 155.1221 75.370192 155.122 75.378053 155.128 75.383513 C 154.99684 75.389513 154.865 75.391163 154.73371 75.385063 C 154.41178 75.369903 154.09181 75.326035 153.77149 75.290495 C 153.52739 75.263415 153.06677 75.222061 153.04027 75.200061 C 153.01377 75.178061 152.92098 75.160664 152.83408 75.161304 C 152.2518 75.165304 151.86836 75.139189 151.65689 75.080689 C 151.50357 75.038289 151.13083 75.006939 150.65334 74.995939 C 149.88507 74.978339 149.06365 74.918189 148.47983 74.837293 C 148.30422 74.812993 147.93465 74.782063 147.65869 74.768563 C 147.38275 74.754963 146.91069 74.724033 146.60966 74.699833 C 146.30861 74.675733 145.69282 74.633582 145.24126 74.605782 C 144.7897 74.577982 144.40235 74.538216 144.38085 74.517416 C 144.35935 74.496616 144.38481 74.456315 144.43821 74.428015 C 144.49111 74.399715 144.53433 74.356597 144.53433 74.331897 C 144.53433 74.271007 144.32234 74.324897 144.11523 74.438351 C 143.93025 74.539741 143.82576 74.538793 142.09417 74.423364 C 141.15061 74.360464 140.94931 74.350464 139.90464 74.315361 C 139.45307 74.300161 138.99949 74.276984 138.89695 74.263684 C 138.71906 74.240584 137.61569 74.209135 135.93641 74.178935 C 135.17839 74.165285 134.62831 74.152065 130.75946 74.056462 C 129.71836 74.030662 128.37413 74.001549 127.77205 73.991349 C 127.16997 73.981149 126.01718 73.961208 125.21045 73.946908 L 123.74335 73.920553 L 123.6431 74.061629 C 123.5879 74.139109 123.53304 74.192902 123.52114 74.181002 C 123.50924 74.169102 123.46035 74.198531 123.41211 74.246631 C 122.99966 74.202661 123.31551 74.238529 122.92945 74.199089 C 122.80803 74.186659 122.80978 74.182773 122.62921 74.187203 C 122.3324 74.215513 122.17601 74.316169 122.20081 74.462639 C 122.16091 74.617588 122.183 74.564793 122.1481 74.825924 C 122.1907 74.868424 122.1713 74.882121 122.0618 74.880701 C 121.75729 74.876701 121.66812 74.773368 121.63857 74.537569 C 121.58907 74.142707 121.42437 73.814924 121.32128 73.858024 C 121.28178 73.874424 121.22907 73.886389 121.20397 73.884379 C 121.17887 73.882379 120.90223 73.879594 120.58954 73.875594 L 120.0211 73.870427 L 119.85677 74.034241 C 119.72055 74.169691 119.65884 74.198055 119.50123 74.198055 C 119.39642 74.198055 119.31106 74.177046 119.31106 74.151546 C 118.98359 74.03923 118.74926 74.109176 118.40518 74.288489 C 118.30768 74.288489 118.24976 74.420127 118.25376 74.630587 C 118.25576 74.725727 118.22117 74.793062 118.14163 74.851762 C 118.07883 74.898162 118.01634 74.929008 118.00778 74.916358 C 117.85927 74.696755 117.92889 74.81515 117.75044 74.333964 C 117.67834 73.860634 117.65693 73.846448 116.98149 73.809448 C 116.71975 73.795148 116.36494 73.761418 116.19291 73.734518 C 115.90618 73.689718 115.86949 73.693143 115.75418 73.778443 C 115.68498 73.829593 115.54885 73.905941 115.45135 73.947941 C 115.1758 74.066441 114.20485 74.379439 114.11345 74.379439 C 114.06835 74.379439 113.90092 74.421991 113.74086 74.473491 C 113.4318 74.572881 112.95611 74.673875 112.4691 74.744275 C 111.6722 74.859495 111.2647 74.924301 111.0449 74.970101 C 110.22089 75.141761 107.3326 75.196847 104.80601 75.088957 C 103.89036 75.049867 102.36254 74.987347 101.41086 74.949947 C 100.45916 74.912547 99.44322 74.87213 99.153121 74.86003 C 98.863027 74.84793 98.174369 74.826288 97.622465 74.812488 C 97.070561 74.798588 96.311015 74.768192 95.934713 74.744792 C 95.558411 74.721392 94.942623 74.691529 94.566321 74.678129 C 94.190019 74.664829 93.707783 74.643504 93.494552 74.631104 C 93.281313 74.618704 92.706298 74.596628 92.21711 74.582528 C 91.727924 74.568528 91.225291 74.548169 91.099866 74.537569 C 90.974432 74.526869 90.553365 74.508211 90.164523 74.495711 C 89.775681 74.483211 89.108911 74.451848 88.682442 74.425948 C 88.255972 74.400148 87.619787 74.368585 87.268575 74.356185 C 85.078802 74.278705 84.174776 74.236355 83.893071 74.198055 C 83.71746 74.174055 83.265816 74.141508 82.889514 74.125708 C 82.095886 74.092378 82.036062 74.088738 81.247754 74.018738 C 80.92163 73.989838 80.592846 73.947704 80.517566 73.925204 C 80.442296 73.902694 80.021758 73.839874 79.582739 73.785677 C 78.735629 73.681117 78.505618 73.647201 78.03193 73.558301 C 77.868868 73.527701 77.689378 73.496055 77.632988 73.489055 C 77.329463 73.448825 77.162965 73.409365 77.139995 73.372266 C 77.125835 73.349266 77.035797 73.330925 76.940007 73.330925 C 76.844207 73.330925 76.743645 73.304424 76.716765 73.272014 C 76.689865 73.239594 76.59186 73.207617 76.49869 73.201217 C 76.40552 73.194917 76.306822 73.175665 76.279582 73.158325 C 76.252342 73.140895 76.179024 73.123135 76.116284 73.118535 C 75.878174 73.101495 75.449865 73.022785 75.329769 72.973841 C 75.219127 72.928721 74.528726 72.806882 74.131909 72.707707 C 73.808764 72.626947 73.493717 72.514982 73.169177 72.440023 C 73.036218 72.409313 72.901212 72.388089 72.766618 72.365609 C 72.657363 72.347359 72.546176 72.340146 72.437956 72.316516 C 72.396786 72.307516 72.356606 72.294356 72.316516 72.281376 C 72.234506 72.254826 72.156284 72.216703 72.07312 72.194043 C 72.00985 72.176803 71.944104 72.170443 71.87985 72.157353 C 71.80367 72.141833 71.727201 72.127304 71.651957 72.107744 C 71.540991 72.078904 71.428107 72.053298 71.322779 72.008008 C 71.288899 71.993438 71.23575 71.988971 71.22666 71.953231 C 71.21816 71.919641 71.294227 71.897074 71.281437 71.864864 C 71.205907 71.674707 70.888958 71.746717 70.688192 71.707251 C 70.587982 71.687551 70.486276 71.661817 70.384334 71.667977 C 70.344594 71.670377 70.307884 71.691053 70.268579 71.697433 C 70.226469 71.704233 70.183119 71.700334 70.140938 71.706734 C 70.004228 71.727414 69.875082 71.798479 69.736829 71.800269 C 69.625897 71.801669 69.519078 71.757546 69.410751 71.733606 C 69.372201 71.725106 69.33417 71.714268 69.295512 71.706218 C 69.237262 71.694078 69.176729 71.692045 69.119812 71.674695 C 69.049792 71.653355 68.991158 71.575348 68.918791 71.586328 C 68.886081 71.591328 68.86961 71.630661 68.84386 71.651441 C 68.81858 71.671841 68.797489 71.702575 68.765829 71.709835 C 67.643384 71.967223 67.006526 71.083305 65.374304 71.051994 C 64.998693 71.049194 64.955103 71.039114 64.857023 70.935722 C 64.798073 70.873572 64.602829 70.75077 64.423458 70.66287 C 64.140256 70.524146 64.028363 70.497035 63.572864 70.457715 C 62.896625 70.399325 62.235834 70.399665 61.925419 70.458232 C 61.687109 70.503202 61.064001 70.770418 61.063973 70.827718 C 61.063964 70.857508 59.030824 70.828372 58.931804 70.797229 C 58.900364 70.787329 58.407425 70.769518 57.83678 70.757438 C 57.266133 70.745358 56.686822 70.713422 56.549003 70.686642 C 56.411192 70.659812 56.051802 70.617077 55.750602 70.591557 C 55.122759 70.538307 55.043669 70.520397 55.043669 70.433944 C 55.043669 70.347384 54.996539 70.325453 54.694336 70.269613 C 54.362383 70.208253 54.096689 70.059938 54.094889 69.93475 C 54.094314 69.90232 54.076063 69.704879 54.062333 69.547176 L 54.040112 68.823706 L 54.04373 68.598397 C 54.044 68.555757 54.05058 68.538467 54.04528 68.494011 L 54.050448 68.158114 C 54.064508 68.056958 54.067407 67.858823 54.063367 67.469784 C 54.059567 67.093482 54.070672 66.68426 54.088172 66.560278 C 54.099082 66.483388 54.08467 66.418228 54.07887 66.344788 L 54.079903 66.284843 L 54.077319 66.060051 C 54.080719 66.057851 54.073519 66.044417 54.077836 66.042997 C 54.142606 66.021327 54.148101 65.866367 54.085071 65.827507 C 54.077871 65.823007 54.079669 65.80239 54.074219 65.7934 L 54.071635 65.592896 C 54.077335 65.582456 54.075541 65.560112 54.083521 65.555172 C 54.107991 65.540332 54.115677 65.498328 54.101607 65.461638 C 54.095607 65.445878 54.081085 65.453038 54.070085 65.445618 L 54.069051 65.352084 L 54.069568 65.3526 C 54.074468 65.3553 54.079591 65.356734 54.085071 65.356734 C 54.110141 65.356734 54.130546 65.325595 54.130546 65.288005 C 54.130546 65.250325 54.110131 65.219792 54.085071 65.219792 C 54.084287 65.219792 54.083287 65.219732 54.082487 65.219792 C 54.081737 65.219849 54.08122 65.21968 54.08042 65.219792 C 54.07612 65.220448 54.071421 65.222559 54.067501 65.224959 L 54.06285 64.806897 L 54.089205 64.900431 C 54.118945 65.005693 54.121295 65.002879 54.125895 64.864775 C 54.128695 64.773145 54.105147 64.705548 54.064917 64.690108 C 54.063717 64.689644 54.0625 64.689058 54.0613 64.688558 L 54.053548 64.036918 L 54.044763 63.863802 C 54.137163 63.878172 54.150716 63.812432 54.070602 63.723242 C 54.058712 63.709982 54.046165 63.690979 54.034945 63.669499 L 54.013757 63.243685 L 53.966215 62.935177 C 53.970315 62.869097 53.933965 62.797059 53.808602 62.70625 C 53.547001 62.516746 53.286357 62.443962 52.580253 62.364152 C 51.539803 62.24658 49.935055 62.182767 48.926729 62.201888 z M 54.101607 64.406922 C 54.092107 64.407788 54.085588 64.421675 54.085588 64.444645 C 54.085588 64.477765 54.099367 64.491328 54.116077 64.474618 C 54.132787 64.457918 54.132787 64.430866 54.116077 64.414156 C 54.110877 64.408956 54.105917 64.406522 54.101607 64.406922 z M 69.158053 71.513981 C 69.146603 71.515181 69.137382 71.524969 69.137382 71.536719 C 69.137382 71.549249 69.14759 71.559457 69.16012 71.559457 C 69.17265 71.559457 69.182857 71.549239 69.182857 71.536719 C 69.182857 71.524189 69.17265 71.513981 69.16012 71.513981 C 69.159337 71.513981 69.158853 71.513903 69.158053 71.513981 z M 72.718559 72.243653 C 72.707019 72.246053 72.687127 72.266155 72.672567 72.289645 L 72.67205 72.289645 C 72.65662 72.314715 72.665654 72.33512 72.692204 72.33512 C 72.718814 72.33512 72.74078 72.314725 72.74078 72.289645 C 72.74078 72.264585 72.731676 72.243653 72.720626 72.243653 C 72.719934 72.243653 72.719359 72.243493 72.718559 72.243653 z M 150.48384 83.512215 C 150.47244 83.513415 150.46317 83.523233 150.46317 83.534953 C 150.46317 83.547453 150.47341 83.557691 150.48591 83.557691 C 150.49841 83.557691 150.50864 83.547453 150.50864 83.534953 C 150.50864 83.522453 150.49841 83.512215 150.48591 83.512215 C 150.48512 83.512215 150.48484 83.512137 150.48384 83.512215 z " /></g></svg>
